{"glyphs":{"0":{"ha":1003,"x_min":0,"x_max":0,"o":"m 554 3 b 999 488 778 50 965 247 b 621 982 1036 754 865 971 l 621 975 b 718 372 750 908 744 568 b 554 8 696 221 657 60 z m 431 -7 l 432 0 b 325 599 294 56 296 390 b 499 967 347 756 390 918 l 497 975 b 43 488 269 928 78 728 b 431 -7 6 218 179 0 z "},"1":{"ha":554,"x_min":0,"x_max":0,"o":"m -39 0 l 496 0 l 496 6 b 371 133 408 10 357 35 l 496 1019 l 490 1019 b 81 847 454 915 331 847 l 79 839 l 222 839 l 122 133 b -39 6 108 35 51 10 z "},"2":{"ha":625,"x_min":0,"x_max":0,"o":"m 167 213 b 479 449 340 338 347 342 b 665 725 590 536 650 618 b 421 981 688 881 589 972 l 422 975 b 438 710 451 924 457 853 b 161 217 413 538 331 404 z m 192 668 b 314 769 256 668 306 715 b 294 854 318 804 311 819 b 285 915 288 871 282 890 b 304 964 290 946 297 956 l 303 969 b 97 778 186 935 107 853 b 192 668 88 714 128 668 z m -39 0 l 522 0 l 601 253 l 596 253 b 443 190 565 201 529 190 l 138 190 l -39 6 z "},"3":{"ha":742,"x_min":0,"x_max":0,"o":"m 321 -7 b 707 261 557 1 688 118 b 436 518 726 394 635 504 b 715 744 613 538 699 626 b 444 983 733 874 642 986 l 444 976 b 504 708 522 951 519 819 b 382 519 486 583 436 532 l 382 514 b 454 219 444 514 475 367 b 321 1 436 90 418 14 z m 231 728 b 338 822 296 728 331 771 b 332 876 340 846 336 863 b 324 932 324 897 321 913 b 328 960 325 938 321 953 l 328 967 b 156 813 231 940 167 888 b 231 728 149 764 181 728 z m 210 1 l 213 8 b 149 75 160 22 146 56 b 174 131 151 94 160 110 b 199 194 186 147 194 165 b 111 301 206 253 181 301 b 3 201 56 301 11 260 b 210 1 -14 83 89 19 z "},"4":{"ha":801,"x_min":0,"x_max":0,"o":"m 619 1271 l 338 1271 l 338 1268 l 619 1268 z m 600 1132 l 318 1132 l 318 1129 l 600 1129 z m 617 133 l 631 228 l 756 228 l 757 236 l 632 236 l 744 1035 l 739 1035 b 483 942 688 947 504 942 l 471 854 l 279 854 l 279 851 l 471 851 l 451 715 l 338 715 l 413 824 l 406 828 l 326 715 l 260 715 l 260 713 l 325 713 l -6 236 l -7 228 l 383 228 l 374 160 l 182 160 l 182 157 l 374 157 l 369 133 b 293 21 361 71 335 38 l 163 21 l 163 18 l 286 18 b 207 6 264 11 238 7 l 207 0 l 743 0 l 743 6 b 617 133 654 10 603 35 z m 581 993 l 299 993 l 299 990 l 581 990 z m 451 713 l 432 576 l 240 576 l 336 713 z m 140 236 b 92 301 103 236 86 260 b 168 471 99 346 122 403 l 240 576 l 240 574 l 432 574 l 413 438 l 221 438 l 221 435 l 413 435 l 393 299 l 201 299 l 201 296 l 393 296 l 385 236 z m 143 -121 l 425 -121 l 425 -118 l 143 -118 z m 124 -260 l 406 -260 l 406 -257 l 124 -257 z "},"5":{"ha":742,"x_min":0,"x_max":0,"o":"m 236 782 l 669 782 l 747 1035 l 742 1035 b 588 972 710 983 674 972 l 286 972 z m 328 -6 b 708 269 558 3 688 119 b 388 554 732 439 615 554 b 174 514 279 554 218 535 l 236 743 l 226 743 l 161 507 l 171 507 b 311 539 219 526 267 539 b 456 228 456 539 479 400 b 328 0 438 96 418 15 z m 217 -1 l 218 4 b 149 75 161 18 146 56 b 174 131 151 94 160 110 b 199 194 186 147 194 165 b 111 301 206 253 181 301 b 3 201 56 301 11 260 b 217 -1 -14 81 93 17 z "},"6":{"ha":786,"x_min":0,"x_max":0,"o":"m 303 -6 l 306 -1 b 311 560 256 39 257 181 b 457 969 347 826 378 943 l 457 976 b 35 426 189 953 79 744 b 303 -6 0 179 76 17 z m 626 732 b 739 826 686 732 732 769 b 569 974 751 910 667 960 l 568 967 b 583 925 579 960 588 946 b 560 881 582 913 575 900 b 536 826 549 867 540 851 b 626 732 529 776 557 732 z m 417 -7 b 754 278 599 8 729 103 b 442 551 776 436 665 551 b 388 550 421 551 403 551 l 388 542 b 397 540 390 540 393 540 b 496 229 486 540 531 475 b 417 -1 478 97 458 22 z "},"7":{"ha":636,"x_min":0,"x_max":0,"o":"m 63 719 l 68 719 b 221 782 99 771 135 782 l 579 782 l 714 972 l 142 972 z m 185 -4 b 335 139 267 -4 321 40 b 535 717 369 386 426 549 l 522 717 b 221 417 432 649 310 528 b 78 129 143 319 89 210 b 185 -4 65 38 106 -4 z "},"8":{"ha":847,"x_min":0,"x_max":0,"o":"m 675 1271 l 393 1271 l 393 1268 l 675 1268 z m 656 1132 l 374 1132 l 374 1129 l 656 1129 z m 636 993 l 354 993 l 354 990 l 636 990 z m 519 517 b 814 747 672 533 794 607 b 567 976 835 892 722 964 l 564 968 b 613 854 590 950 607 911 l 371 854 b 453 968 390 911 421 951 l 451 976 b 143 747 292 963 164 890 b 376 517 124 607 226 533 b 11 256 185 500 33 418 b 324 -6 -12 89 128 7 l 326 3 b 306 18 319 7 311 13 l 460 18 b 436 6 451 13 444 8 l 436 -4 b 811 256 631 10 788 93 b 519 517 833 418 704 500 z m 613 851 b 607 724 615 815 614 772 b 558 576 599 661 582 611 l 358 576 b 346 713 347 611 342 657 l 597 713 l 597 715 l 344 715 b 351 768 346 732 349 750 b 369 851 356 799 361 826 z m 393 513 l 394 522 b 360 574 379 533 368 550 l 557 574 b 497 521 539 547 518 529 l 496 514 b 551 438 519 500 539 475 l 308 438 b 393 513 332 476 363 501 z m 463 21 l 301 21 b 253 157 275 47 256 93 l 519 157 l 519 160 l 251 160 b 258 285 250 196 251 238 l 260 296 l 539 296 l 539 299 l 260 299 b 307 435 269 354 285 400 l 553 435 b 561 231 569 385 574 317 b 463 21 547 128 508 56 z m 199 -121 l 481 -121 l 481 -118 l 199 -118 z m 179 -260 l 461 -260 l 461 -257 l 179 -257 z "},"9":{"ha":786,"x_min":0,"x_max":0,"o":"m 383 419 l 438 419 l 438 429 b 428 431 435 429 432 431 b 329 742 340 431 294 496 b 408 972 347 872 367 947 l 408 978 b 72 693 228 961 97 868 b 383 419 50 535 161 419 z m 369 -6 b 792 544 636 17 747 226 b 522 976 826 790 749 954 l 519 971 b 514 411 571 931 568 789 b 369 1 476 143 449 28 z m 256 -4 l 258 3 b 242 44 246 11 239 24 b 265 90 244 57 250 71 b 288 144 276 103 285 119 b 199 238 296 194 269 238 b 85 144 139 238 93 201 b 256 -4 74 60 160 10 z "}," ":{"ha":310,"x_min":0,"x_max":0,"o":""},"A":{"ha":1089,"x_min":0,"x_max":0,"o":"m 531 0 l 1060 0 l 1060 6 b 888 133 969 10 910 35 l 688 1029 l 682 1029 b 476 890 665 957 553 890 l 594 365 l 300 365 l 297 357 l 596 357 l 646 133 b 651 76 651 113 653 90 b 531 6 643 24 600 8 z m -67 0 l 321 0 l 321 6 b 206 113 249 11 193 21 b 261 264 211 149 231 197 l 253 264 b -67 6 157 57 64 14 z "},"Á":{"ha":1089,"x_min":0,"x_max":0,"o":"m 539 1125 l 554 1125 l 769 1317 l 688 1317 z m 531 0 l 1060 0 l 1060 6 b 888 133 969 10 910 35 l 688 1029 l 682 1029 b 476 890 665 957 553 890 l 594 365 l 300 365 l 297 357 l 596 357 l 646 133 b 651 76 651 113 653 90 b 531 6 643 24 600 8 z m -67 0 l 321 0 l 321 6 b 206 113 249 11 193 21 b 261 264 211 149 231 197 l 253 264 b -67 6 157 57 64 14 z "},"Ă":{"ha":1089,"x_min":0,"x_max":0,"o":"m 646 1154 b 818 1290 751 1154 808 1217 l 814 1290 b 654 1221 808 1250 757 1221 b 514 1290 551 1221 508 1250 l 510 1290 b 646 1154 500 1217 540 1154 z m 531 0 l 1060 0 l 1060 6 b 888 133 969 10 910 35 l 688 1029 l 682 1029 b 476 890 665 957 553 890 l 594 365 l 300 365 l 297 357 l 596 357 l 646 133 b 651 76 651 113 653 90 b 531 6 643 24 600 8 z m -67 0 l 321 0 l 321 6 b 206 113 249 11 193 21 b 261 264 211 149 231 197 l 253 264 b -67 6 157 57 64 14 z "},"Â":{"ha":1089,"x_min":0,"x_max":0,"o":"m 450 1125 l 465 1125 l 663 1281 l 817 1125 l 832 1125 l 708 1317 l 626 1317 z m 531 0 l 1060 0 l 1060 6 b 888 133 969 10 910 35 l 688 1029 l 682 1029 b 476 890 665 957 553 890 l 594 365 l 300 365 l 297 357 l 596 357 l 646 133 b 651 76 651 113 653 90 b 531 6 643 24 600 8 z m -67 0 l 321 0 l 321 6 b 206 113 249 11 193 21 b 261 264 211 149 231 197 l 253 264 b -67 6 157 57 64 14 z "},"Ä":{"ha":1089,"x_min":0,"x_max":0,"o":"m 539 1154 b 618 1225 578 1154 613 1185 b 558 1294 624 1264 597 1294 b 478 1225 518 1294 483 1264 b 539 1154 472 1185 499 1154 z m 750 1154 b 829 1225 789 1154 824 1185 b 769 1294 835 1264 808 1294 b 689 1225 729 1294 694 1264 b 750 1154 683 1185 710 1154 z m 531 0 l 1060 0 l 1060 6 b 888 133 969 10 910 35 l 688 1029 l 682 1029 b 476 890 665 957 553 890 l 594 365 l 300 365 l 297 357 l 596 357 l 646 133 b 651 76 651 113 653 90 b 531 6 643 24 600 8 z m -67 0 l 321 0 l 321 6 b 206 113 249 11 193 21 b 261 264 211 149 231 197 l 253 264 b -67 6 157 57 64 14 z "},"À":{"ha":1089,"x_min":0,"x_max":0,"o":"m 728 1125 l 743 1125 l 647 1317 l 565 1317 z m 531 0 l 1060 0 l 1060 6 b 888 133 969 10 910 35 l 688 1029 l 682 1029 b 476 890 665 957 553 890 l 594 365 l 300 365 l 297 357 l 596 357 l 646 133 b 651 76 651 113 653 90 b 531 6 643 24 600 8 z m -67 0 l 321 0 l 321 6 b 206 113 249 11 193 21 b 261 264 211 149 231 197 l 253 264 b -67 6 157 57 64 14 z "},"Ā":{"ha":1089,"x_min":0,"x_max":0,"o":"m 494 1211 l 811 1211 l 815 1235 l 499 1235 z m 531 0 l 1060 0 l 1060 6 b 888 133 969 10 910 35 l 688 1029 l 682 1029 b 476 890 665 957 553 890 l 594 365 l 300 365 l 297 357 l 596 357 l 646 133 b 651 76 651 113 653 90 b 531 6 643 24 600 8 z m -67 0 l 321 0 l 321 6 b 206 113 249 11 193 21 b 261 264 211 149 231 197 l 253 264 b -67 6 157 57 64 14 z "},"Ą":{"ha":1089,"x_min":0,"x_max":0,"o":"m 1060 0 l 1060 6 b 888 133 969 10 910 35 l 688 1029 l 682 1029 b 476 890 665 957 553 890 l 594 365 l 300 365 l 297 357 l 596 357 l 646 133 b 651 76 651 113 653 90 b 531 6 643 24 600 8 l 531 0 l 754 0 b 711 -112 736 -26 719 -61 b 794 -258 699 -201 731 -258 b 901 -143 856 -258 893 -211 l 899 -142 b 825 -181 888 -175 863 -181 b 736 -76 753 -181 728 -142 b 767 0 739 -54 747 -29 z m 206 113 b 261 264 211 149 231 197 l 253 264 b -67 6 157 57 64 14 l -67 0 l 321 0 l 321 6 b 206 113 249 11 193 21 z "},"Å":{"ha":1089,"x_min":0,"x_max":0,"o":"m 646 1146 b 793 1253 718 1146 785 1193 b 675 1358 801 1311 747 1358 b 526 1253 600 1358 535 1311 b 646 1146 518 1193 571 1146 z m 654 1151 b 603 1272 607 1151 593 1207 b 665 1353 610 1324 635 1353 b 718 1232 713 1353 726 1297 b 654 1151 710 1181 685 1151 z m 531 0 l 1060 0 l 1060 6 b 888 133 969 10 910 35 l 688 1029 l 682 1029 b 476 890 665 957 553 890 l 594 365 l 300 365 l 297 357 l 596 357 l 646 133 b 651 76 651 113 653 90 b 531 6 643 24 600 8 z m -67 0 l 321 0 l 321 6 b 206 113 249 11 193 21 b 261 264 211 149 231 197 l 253 264 b -67 6 157 57 64 14 z "},"Ã":{"ha":1089,"x_min":0,"x_max":0,"o":"m 735 1125 b 875 1261 822 1125 865 1188 l 871 1261 b 783 1176 865 1213 826 1176 b 689 1224 742 1176 718 1197 b 569 1275 657 1251 621 1275 b 428 1139 482 1275 439 1213 l 432 1139 b 521 1224 439 1188 478 1224 b 615 1176 563 1224 586 1203 b 735 1125 646 1149 683 1125 z m 531 0 l 1060 0 l 1060 6 b 888 133 969 10 910 35 l 688 1029 l 682 1029 b 476 890 665 957 553 890 l 594 365 l 300 365 l 297 357 l 596 357 l 646 133 b 651 76 651 113 653 90 b 531 6 643 24 600 8 z m -67 0 l 321 0 l 321 6 b 206 113 249 11 193 21 b 261 264 211 149 231 197 l 253 264 b -67 6 157 57 64 14 z "},"Æ":{"ha":1360,"x_min":0,"x_max":0,"o":"m 629 967 b 756 839 718 963 769 938 l 689 365 l 340 365 l 339 357 l 688 357 l 656 133 b 493 6 642 35 585 10 l 493 0 l 885 0 l 1021 972 l 629 972 z m 1324 782 l 1329 782 l 1322 972 l 1051 972 l 1051 967 l 1092 967 b 1324 782 1250 967 1300 882 z m 1176 360 l 1182 360 l 1226 675 l 1221 675 b 990 518 1197 572 1135 518 l 988 518 l 988 513 l 990 513 b 1176 360 1135 513 1182 463 z m 214 96 b 289 264 219 136 257 207 l 281 264 b -67 6 164 57 65 14 l -67 0 l 321 0 l 321 6 b 214 96 254 11 203 19 z m 1286 218 b 997 6 1235 118 1156 6 l 915 6 l 915 0 l 1228 0 l 1292 218 z "},"B":{"ha":938,"x_min":0,"x_max":0,"o":"m 758 1271 l 476 1271 l 476 1268 l 758 1268 z m 739 1132 l 457 1132 l 457 1129 l 739 1129 z m 719 993 l 438 993 l 438 990 l 719 990 z m 608 517 b 901 744 786 535 886 629 b 593 972 919 874 826 972 l 567 972 l 567 967 l 571 967 b 661 854 619 964 651 926 l 472 854 l 489 972 l 97 972 l 97 967 b 222 839 185 963 236 938 l 122 133 b -39 6 108 35 51 10 l -39 0 l 353 0 l 356 18 l 543 18 b 456 6 519 8 492 6 l 431 6 l 431 0 l 504 0 b 889 261 708 0 864 85 b 608 517 911 415 803 501 z m 661 851 b 660 715 667 815 667 769 l 453 715 l 472 851 z m 657 690 b 624 576 650 640 640 603 l 433 576 l 453 713 l 660 713 z m 613 438 l 414 438 l 433 574 l 622 574 b 503 519 597 535 561 519 l 503 514 b 613 438 550 514 588 488 z m 549 21 l 356 21 l 375 157 l 603 157 l 603 160 l 375 160 l 394 296 l 622 296 l 622 299 l 394 299 l 414 435 l 614 435 b 631 201 638 382 646 303 b 549 21 617 96 596 43 z m 282 -121 l 564 -121 l 564 -118 l 282 -118 z m 263 -260 l 544 -260 l 544 -257 l 263 -257 z "},"C":{"ha":944,"x_min":0,"x_max":0,"o":"m 763 1271 l 481 1271 l 481 1268 l 763 1268 z m 743 1132 l 461 1132 l 461 1129 l 743 1129 z m 724 993 l 442 993 l 442 990 l 724 990 z m 963 972 l 957 972 b 901 925 951 953 938 925 b 835 942 881 925 867 929 b 686 979 801 954 747 972 l 683 972 b 943 693 810 949 910 843 l 949 693 z m 556 6 b 482 18 528 6 504 10 l 588 18 l 588 21 l 475 21 b 354 157 418 44 379 92 l 607 157 l 607 160 l 353 160 b 332 618 310 275 308 442 b 560 969 360 811 424 938 l 560 976 b 50 486 303 942 85 733 b 319 21 21 274 133 92 l 306 21 l 306 18 l 328 18 b 499 -11 379 -1 438 -11 b 833 97 597 -11 729 19 l 829 103 b 556 6 728 29 601 6 z m 704 854 l 422 854 l 422 851 l 704 851 z m 685 715 l 403 715 l 403 713 l 685 713 z m 665 576 l 383 576 l 383 574 l 665 574 z m 646 438 l 364 438 l 364 435 l 646 435 z m 344 296 l 626 296 l 626 299 l 344 299 z m 286 -121 l 568 -121 l 568 -118 l 286 -118 z m 267 -260 l 549 -260 l 549 -257 l 267 -257 z "},"Ć":{"ha":944,"x_min":0,"x_max":0,"o":"m 490 1125 l 506 1125 l 510 1129 l 743 1129 l 743 1132 l 513 1132 l 667 1268 l 763 1268 l 763 1271 l 668 1271 l 721 1317 l 639 1317 l 603 1271 l 481 1271 l 481 1268 l 601 1268 l 494 1132 l 461 1132 l 461 1129 l 493 1129 z m 724 993 l 442 993 l 442 990 l 724 990 z m 963 972 l 957 972 b 901 925 951 953 938 925 b 835 942 881 925 867 929 b 686 979 801 954 747 972 l 683 972 b 943 693 810 949 910 843 l 949 693 z m 556 6 b 482 18 528 6 504 10 l 588 18 l 588 21 l 475 21 b 354 157 418 44 379 92 l 607 157 l 607 160 l 353 160 b 332 618 310 275 308 442 b 560 969 360 811 424 938 l 560 976 b 50 486 303 942 85 733 b 319 21 21 274 133 92 l 306 21 l 306 18 l 328 18 b 499 -11 379 -1 438 -11 b 833 97 597 -11 729 19 l 829 103 b 556 6 728 29 601 6 z m 704 854 l 422 854 l 422 851 l 704 851 z m 685 715 l 403 715 l 403 713 l 685 713 z m 665 576 l 383 576 l 383 574 l 665 574 z m 646 438 l 364 438 l 364 435 l 646 435 z m 344 296 l 626 296 l 626 299 l 344 299 z m 286 -121 l 568 -121 l 568 -118 l 286 -118 z m 267 -260 l 549 -260 l 549 -257 l 267 -257 z "},"Č":{"ha":944,"x_min":0,"x_max":0,"o":"m 461 1132 l 461 1129 l 549 1129 l 551 1125 l 633 1125 l 636 1129 l 743 1129 l 743 1132 l 639 1132 l 810 1317 l 794 1317 l 736 1271 l 488 1271 l 443 1317 l 428 1317 l 546 1132 z m 733 1268 l 597 1161 l 492 1268 z m 442 990 l 724 990 l 724 993 l 442 993 z m 963 972 l 957 972 b 901 925 951 953 938 925 b 835 942 881 925 867 929 b 686 979 801 954 747 972 l 683 972 b 943 693 810 949 910 843 l 949 693 z m 556 6 b 482 18 528 6 504 10 l 588 18 l 588 21 l 475 21 b 354 157 418 44 379 92 l 607 157 l 607 160 l 353 160 b 332 618 310 275 308 442 b 560 969 360 811 424 938 l 560 976 b 50 486 303 942 85 733 b 319 21 21 274 133 92 l 306 21 l 306 18 l 328 18 b 499 -11 379 -1 438 -11 b 833 97 597 -11 729 19 l 829 103 b 556 6 728 29 601 6 z m 704 854 l 422 854 l 422 851 l 704 851 z m 685 715 l 403 715 l 403 713 l 685 713 z m 665 576 l 383 576 l 383 574 l 665 574 z m 646 438 l 364 438 l 364 435 l 646 435 z m 344 296 l 626 296 l 626 299 l 344 299 z m 286 -121 l 568 -121 l 568 -118 l 286 -118 z m 267 -260 l 549 -260 l 549 -257 l 267 -257 z "},"Ç":{"ha":944,"x_min":0,"x_max":0,"o":"m 763 1271 l 481 1271 l 481 1268 l 763 1268 z m 743 1132 l 461 1132 l 461 1129 l 743 1129 z m 724 993 l 442 993 l 442 990 l 724 990 z m 963 972 l 957 972 b 901 925 951 953 938 925 b 835 942 881 925 867 929 b 686 979 801 954 747 972 l 683 972 b 943 693 810 949 910 843 l 949 693 z m 556 6 b 482 18 528 6 504 10 l 588 18 l 588 21 l 475 21 b 354 157 418 44 379 92 l 607 157 l 607 160 l 353 160 b 332 618 310 275 308 442 b 560 969 360 811 424 938 l 560 976 b 50 486 303 942 85 733 b 319 21 21 274 133 92 l 306 21 l 306 18 l 328 18 b 414 -4 356 8 385 0 l 367 -72 l 371 -72 b 440 -53 390 -58 415 -53 l 469 -10 b 499 -11 479 -11 489 -11 b 833 97 597 -11 729 19 l 829 103 b 556 6 728 29 601 6 z m 704 854 l 422 854 l 422 851 l 704 851 z m 685 715 l 403 715 l 403 713 l 685 713 z m 665 576 l 383 576 l 383 574 l 665 574 z m 646 438 l 364 438 l 364 435 l 646 435 z m 344 296 l 626 296 l 626 299 l 344 299 z m 463 -50 l 460 -54 b 490 -118 492 -60 494 -83 l 286 -118 l 286 -121 l 490 -121 l 489 -122 b 369 -233 479 -194 435 -233 b 286 -207 344 -233 318 -228 l 283 -211 b 404 -244 307 -226 343 -244 b 565 -142 493 -244 556 -206 b 567 -121 565 -135 567 -128 l 568 -121 l 568 -118 l 565 -118 b 463 -50 561 -72 521 -50 z m 267 -260 l 549 -260 l 549 -257 l 267 -257 z "},"Ċ":{"ha":944,"x_min":0,"x_max":0,"o":"m 506 1244 b 596 1142 497 1188 536 1142 b 714 1244 653 1142 706 1188 b 714 1268 715 1253 714 1261 l 763 1268 l 763 1271 l 714 1271 b 625 1349 708 1315 672 1349 b 511 1271 575 1349 531 1315 l 481 1271 l 481 1268 l 511 1268 b 506 1244 508 1261 507 1253 z m 743 1132 l 461 1132 l 461 1129 l 743 1129 z m 724 993 l 442 993 l 442 990 l 724 990 z m 963 972 l 957 972 b 901 925 951 953 938 925 b 835 942 881 925 867 929 b 686 979 801 954 747 972 l 683 972 b 943 693 810 949 910 843 l 949 693 z m 556 6 b 482 18 528 6 504 10 l 588 18 l 588 21 l 475 21 b 354 157 418 44 379 92 l 607 157 l 607 160 l 353 160 b 332 618 310 275 308 442 b 560 969 360 811 424 938 l 560 976 b 50 486 303 942 85 733 b 319 21 21 274 133 92 l 306 21 l 306 18 l 328 18 b 499 -11 379 -1 438 -11 b 833 97 597 -11 729 19 l 829 103 b 556 6 728 29 601 6 z m 704 854 l 422 854 l 422 851 l 704 851 z m 685 715 l 403 715 l 403 713 l 685 713 z m 665 576 l 383 576 l 383 574 l 665 574 z m 646 438 l 364 438 l 364 435 l 646 435 z m 344 296 l 626 296 l 626 299 l 344 299 z m 286 -121 l 568 -121 l 568 -118 l 286 -118 z m 267 -260 l 549 -260 l 549 -257 l 267 -257 z "},"D":{"ha":1089,"x_min":0,"x_max":0,"o":"m -39 0 l 353 0 l 489 972 l 97 972 l 97 967 b 222 839 185 963 236 938 l 122 133 b -39 6 108 35 51 10 z m 440 0 l 506 0 b 1078 485 776 0 1040 217 b 638 972 1115 753 911 972 l 576 972 l 576 967 l 613 967 b 814 360 810 967 853 638 b 506 6 785 154 693 6 l 440 6 z "},"Ð":{"ha":1089,"x_min":0,"x_max":0,"o":"m 554 583 l 556 592 l 436 592 l 489 972 l 97 972 l 97 967 b 222 839 185 963 236 938 l 188 592 l 100 592 l 99 583 l 186 583 l 122 133 b -39 6 108 35 51 10 l -39 0 l 353 0 l 435 583 z m 638 972 l 576 972 l 576 967 l 613 967 b 814 360 810 967 853 638 b 506 6 785 154 693 6 l 440 6 l 440 0 l 506 0 b 1078 485 776 0 1040 217 b 638 972 1115 753 911 972 z "},"Ď":{"ha":1089,"x_min":0,"x_max":0,"o":"m 611 1125 l 693 1125 l 869 1317 l 854 1317 l 657 1161 l 503 1317 l 488 1317 z m -39 0 l 353 0 l 489 972 l 97 972 l 97 967 b 222 839 185 963 236 938 l 122 133 b -39 6 108 35 51 10 z m 440 0 l 506 0 b 1078 485 776 0 1040 217 b 638 972 1115 753 911 972 l 576 972 l 576 967 l 613 967 b 814 360 810 967 853 638 b 506 6 785 154 693 6 l 440 6 z "},"Đ":{"ha":1089,"x_min":0,"x_max":0,"o":"m 554 583 l 556 592 l 436 592 l 489 972 l 97 972 l 97 967 b 222 839 185 963 236 938 l 188 592 l 100 592 l 99 583 l 186 583 l 122 133 b -39 6 108 35 51 10 l -39 0 l 353 0 l 435 583 z m 638 972 l 576 972 l 576 967 l 613 967 b 814 360 810 967 853 638 b 506 6 785 154 693 6 l 440 6 l 440 0 l 506 0 b 1078 485 776 0 1040 217 b 638 972 1115 753 911 972 z "},"E":{"ha":828,"x_min":0,"x_max":0,"o":"m -39 0 l 353 0 l 489 972 l 97 972 l 97 967 b 222 839 185 963 236 938 l 122 133 b -39 6 108 35 51 10 z m 790 782 l 796 782 l 789 972 l 518 972 l 518 967 l 558 967 b 790 782 717 967 767 882 z m 643 360 l 649 360 l 693 675 l 688 675 b 457 518 664 572 601 518 l 454 518 l 454 513 l 457 513 b 643 360 601 513 649 463 z m 382 0 l 694 0 l 758 218 l 753 218 b 464 6 701 118 622 6 l 382 6 z "},"É":{"ha":828,"x_min":0,"x_max":0,"o":"m 435 1125 l 450 1125 l 665 1317 l 583 1317 z m -39 0 l 353 0 l 489 972 l 97 972 l 97 967 b 222 839 185 963 236 938 l 122 133 b -39 6 108 35 51 10 z m 790 782 l 796 782 l 789 972 l 518 972 l 518 967 l 558 967 b 790 782 717 967 767 882 z m 643 360 l 649 360 l 693 675 l 688 675 b 457 518 664 572 601 518 l 454 518 l 454 513 l 457 513 b 643 360 601 513 649 463 z m 382 0 l 694 0 l 758 218 l 753 218 b 464 6 701 118 622 6 l 382 6 z "},"Ě":{"ha":828,"x_min":0,"x_max":0,"o":"m 496 1125 l 578 1125 l 754 1317 l 739 1317 l 542 1161 l 388 1317 l 372 1317 z m -39 0 l 353 0 l 489 972 l 97 972 l 97 967 b 222 839 185 963 236 938 l 122 133 b -39 6 108 35 51 10 z m 790 782 l 796 782 l 789 972 l 518 972 l 518 967 l 558 967 b 790 782 717 967 767 882 z m 643 360 l 649 360 l 693 675 l 688 675 b 457 518 664 572 601 518 l 454 518 l 454 513 l 457 513 b 643 360 601 513 649 463 z m 382 0 l 694 0 l 758 218 l 753 218 b 464 6 701 118 622 6 l 382 6 z "},"Ê":{"ha":828,"x_min":0,"x_max":0,"o":"m 346 1125 l 361 1125 l 558 1281 l 713 1125 l 728 1125 l 604 1317 l 522 1317 z m -39 0 l 353 0 l 489 972 l 97 972 l 97 967 b 222 839 185 963 236 938 l 122 133 b -39 6 108 35 51 10 z m 790 782 l 796 782 l 789 972 l 518 972 l 518 967 l 558 967 b 790 782 717 967 767 882 z m 643 360 l 649 360 l 693 675 l 688 675 b 457 518 664 572 601 518 l 454 518 l 454 513 l 457 513 b 643 360 601 513 649 463 z m 382 0 l 694 0 l 758 218 l 753 218 b 464 6 701 118 622 6 l 382 6 z "},"Ë":{"ha":828,"x_min":0,"x_max":0,"o":"m 436 1154 b 515 1225 475 1154 510 1185 b 456 1294 521 1264 494 1294 b 375 1225 415 1294 381 1264 b 436 1154 369 1185 396 1154 z m 647 1154 b 726 1225 686 1154 721 1185 b 667 1294 732 1264 706 1294 b 586 1225 626 1294 592 1264 b 647 1154 581 1185 607 1154 z m -39 0 l 353 0 l 489 972 l 97 972 l 97 967 b 222 839 185 963 236 938 l 122 133 b -39 6 108 35 51 10 z m 790 782 l 796 782 l 789 972 l 518 972 l 518 967 l 558 967 b 790 782 717 967 767 882 z m 643 360 l 649 360 l 693 675 l 688 675 b 457 518 664 572 601 518 l 454 518 l 454 513 l 457 513 b 643 360 601 513 649 463 z m 382 0 l 694 0 l 758 218 l 753 218 b 464 6 701 118 622 6 l 382 6 z "},"Ė":{"ha":828,"x_min":0,"x_max":0,"o":"m 539 1142 b 657 1244 596 1142 649 1188 b 568 1349 665 1301 625 1349 b 449 1244 508 1349 457 1301 b 539 1142 440 1188 479 1142 z m -39 0 l 353 0 l 489 972 l 97 972 l 97 967 b 222 839 185 963 236 938 l 122 133 b -39 6 108 35 51 10 z m 790 782 l 796 782 l 789 972 l 518 972 l 518 967 l 558 967 b 790 782 717 967 767 882 z m 643 360 l 649 360 l 693 675 l 688 675 b 457 518 664 572 601 518 l 454 518 l 454 513 l 457 513 b 643 360 601 513 649 463 z m 382 0 l 694 0 l 758 218 l 753 218 b 464 6 701 118 622 6 l 382 6 z "},"È":{"ha":828,"x_min":0,"x_max":0,"o":"m 624 1125 l 639 1125 l 543 1317 l 461 1317 z m -39 0 l 353 0 l 489 972 l 97 972 l 97 967 b 222 839 185 963 236 938 l 122 133 b -39 6 108 35 51 10 z m 790 782 l 796 782 l 789 972 l 518 972 l 518 967 l 558 967 b 790 782 717 967 767 882 z m 643 360 l 649 360 l 693 675 l 688 675 b 457 518 664 572 601 518 l 454 518 l 454 513 l 457 513 b 643 360 601 513 649 463 z m 382 0 l 694 0 l 758 218 l 753 218 b 464 6 701 118 622 6 l 382 6 z "},"Ē":{"ha":828,"x_min":0,"x_max":0,"o":"m 390 1211 l 707 1211 l 711 1235 l 394 1235 z m -39 0 l 353 0 l 489 972 l 97 972 l 97 967 b 222 839 185 963 236 938 l 122 133 b -39 6 108 35 51 10 z m 790 782 l 796 782 l 789 972 l 518 972 l 518 967 l 558 967 b 790 782 717 967 767 882 z m 643 360 l 649 360 l 693 675 l 688 675 b 457 518 664 572 601 518 l 454 518 l 454 513 l 457 513 b 643 360 601 513 649 463 z m 382 0 l 694 0 l 758 218 l 753 218 b 464 6 701 118 622 6 l 382 6 z "},"Ę":{"ha":828,"x_min":0,"x_max":0,"o":"m 97 967 b 222 839 185 963 236 938 l 122 133 b -39 6 108 35 51 10 l -39 0 l 353 0 l 489 972 l 97 972 z m 790 782 l 796 782 l 789 972 l 518 972 l 518 967 l 558 967 b 790 782 717 967 767 882 z m 643 360 l 649 360 l 693 675 l 688 675 b 457 518 664 572 601 518 l 454 518 l 454 513 l 457 513 b 643 360 601 513 649 463 z m 622 -181 b 533 -76 550 -181 525 -142 b 564 0 536 -54 544 -29 l 694 0 l 758 218 l 753 218 b 464 6 701 118 622 6 l 382 6 l 382 0 l 551 0 b 508 -112 533 -26 517 -61 b 592 -258 496 -201 528 -258 b 699 -143 653 -258 690 -211 l 696 -142 b 622 -181 685 -175 660 -181 z "},"F":{"ha":779,"x_min":0,"x_max":0,"o":"m -39 0 l 496 0 l 496 6 b 371 133 408 10 357 35 l 489 972 l 97 972 l 97 967 b 222 839 185 963 236 938 l 122 133 b -39 6 108 35 51 10 z m 790 782 l 796 782 l 789 972 l 529 972 l 529 967 l 558 967 b 790 782 717 967 767 882 z m 643 360 l 649 360 l 693 675 l 688 675 b 457 518 664 572 601 518 l 456 518 l 456 513 l 457 513 b 643 360 601 513 649 463 z "},"G":{"ha":1035,"x_min":0,"x_max":0,"o":"m 939 692 l 944 692 l 958 972 l 953 972 b 893 921 949 954 932 921 b 831 938 876 921 861 925 b 686 975 799 950 746 968 l 683 967 b 939 692 806 944 906 839 z m 497 -7 b 617 6 553 -7 588 -1 l 614 15 b 553 10 597 11 578 10 b 332 617 331 10 288 296 b 561 965 360 810 422 935 l 560 974 b 50 488 304 940 85 733 b 497 -7 13 215 213 -7 z m 915 0 l 921 0 l 985 457 l 593 457 l 593 451 b 719 324 682 447 733 422 l 676 22 b 786 43 706 32 738 43 b 915 0 850 43 894 26 z "},"Ğ":{"ha":1035,"x_min":0,"x_max":0,"o":"m 667 1154 b 839 1290 772 1154 829 1217 l 835 1290 b 675 1221 829 1250 778 1221 b 535 1290 572 1221 529 1250 l 531 1290 b 667 1154 521 1217 561 1154 z m 939 692 l 944 692 l 958 972 l 953 972 b 893 921 949 954 932 921 b 831 938 876 921 861 925 b 686 975 799 950 746 968 l 683 967 b 939 692 806 944 906 839 z m 497 -7 b 617 6 553 -7 588 -1 l 614 15 b 553 10 597 11 578 10 b 332 617 331 10 288 296 b 561 965 360 810 422 935 l 560 974 b 50 488 304 940 85 733 b 497 -7 13 215 213 -7 z m 915 0 l 921 0 l 985 457 l 593 457 l 593 451 b 719 324 682 447 733 422 l 676 22 b 786 43 706 32 738 43 b 915 0 850 43 894 26 z "},"Ģ":{"ha":1035,"x_min":0,"x_max":0,"o":"m 939 692 l 944 692 l 958 972 l 953 972 b 893 921 949 954 932 921 b 831 938 876 921 861 925 b 686 975 799 950 746 968 l 683 967 b 939 692 806 944 906 839 z m 497 -7 b 617 6 553 -7 588 -1 l 614 15 b 553 10 597 11 578 10 b 332 617 331 10 288 296 b 561 965 360 810 422 935 l 560 974 b 50 488 304 940 85 733 b 497 -7 13 215 213 -7 z m 915 0 l 921 0 l 985 457 l 593 457 l 593 451 b 719 324 682 447 733 422 l 676 22 b 786 43 706 32 738 43 b 915 0 850 43 894 26 z m 413 -315 b 561 -140 494 -274 551 -208 b 494 -58 567 -93 538 -58 b 404 -133 450 -58 410 -93 b 433 -203 400 -164 410 -182 b 457 -247 451 -218 460 -231 b 410 -311 454 -269 442 -285 z "},"Ġ":{"ha":1035,"x_min":0,"x_max":0,"o":"m 664 1142 b 782 1244 721 1142 774 1188 b 693 1349 790 1301 750 1349 b 574 1244 633 1349 582 1301 b 664 1142 565 1188 604 1142 z m 939 692 l 944 692 l 958 972 l 953 972 b 893 921 949 954 932 921 b 831 938 876 921 861 925 b 686 975 799 950 746 968 l 683 967 b 939 692 806 944 906 839 z m 497 -7 b 617 6 553 -7 588 -1 l 614 15 b 553 10 597 11 578 10 b 332 617 331 10 288 296 b 561 965 360 810 422 935 l 560 974 b 50 488 304 940 85 733 b 497 -7 13 215 213 -7 z m 915 0 l 921 0 l 985 457 l 593 457 l 593 451 b 719 324 682 447 733 422 l 676 22 b 786 43 706 32 738 43 b 915 0 850 43 894 26 z "},"H":{"ha":1221,"x_min":0,"x_max":0,"o":"m 893 1271 l 611 1271 l 611 1268 l 893 1268 z m 874 1132 l 592 1132 l 592 1129 l 874 1129 z m 854 993 l 572 993 l 572 990 l 854 990 z m 496 6 b 371 133 408 10 357 35 l 471 839 b 632 967 485 938 542 963 l 632 972 l 97 972 l 97 967 b 222 839 185 963 236 938 l 122 133 b -39 6 108 35 51 10 l -39 0 l 496 0 z m 1299 967 l 1299 972 l 764 972 l 764 967 b 889 839 851 963 903 938 l 789 133 b 713 21 781 71 754 38 l 436 21 l 436 18 l 706 18 b 628 6 683 11 658 7 l 628 0 l 1163 0 l 1163 6 b 1038 133 1075 10 1024 35 l 1138 839 b 1299 967 1151 938 1208 963 z m 553 851 l 835 851 l 835 854 l 553 854 z m 815 715 l 533 715 l 533 713 l 815 713 z m 514 574 l 796 574 l 796 576 l 514 576 z m 808 518 l 461 518 l 460 510 l 807 510 z m 776 438 l 494 438 l 494 435 l 776 435 z m 757 299 l 475 299 l 475 296 l 757 296 z m 456 157 l 738 157 l 738 160 l 456 160 z m 417 -121 l 699 -121 l 699 -118 l 417 -118 z m 397 -260 l 679 -260 l 679 -257 l 397 -257 z "},"Ħ":{"ha":1221,"x_min":0,"x_max":0,"o":"m -39 0 l 496 0 l 496 6 b 371 133 408 10 357 35 l 457 746 l 875 746 l 789 133 b 628 6 775 35 718 10 l 628 0 l 1163 0 l 1163 6 b 1038 133 1075 10 1024 35 l 1124 746 l 1260 746 l 1261 754 l 1125 754 l 1138 839 b 1299 967 1151 938 1208 963 l 1299 972 l 764 972 l 764 967 b 889 839 851 963 903 938 l 876 754 l 458 754 l 471 839 b 632 967 485 938 542 963 l 632 972 l 97 972 l 97 967 b 222 839 185 963 236 938 l 210 754 l 74 754 l 72 746 l 208 746 l 122 133 b -39 6 108 35 51 10 z m 460 510 l 807 510 l 808 518 l 461 518 z "},"I":{"ha":554,"x_min":0,"x_max":0,"o":"m -39 0 l 496 0 l 496 6 b 371 133 408 10 357 35 l 471 839 b 632 967 485 938 542 963 l 632 972 l 97 972 l 97 967 b 222 839 185 963 236 938 l 122 133 b -39 6 108 35 51 10 z "},"Í":{"ha":554,"x_min":0,"x_max":0,"o":"m 285 1125 l 300 1125 l 515 1317 l 433 1317 z m -39 0 l 496 0 l 496 6 b 371 133 408 10 357 35 l 471 839 b 632 967 485 938 542 963 l 632 972 l 97 972 l 97 967 b 222 839 185 963 236 938 l 122 133 b -39 6 108 35 51 10 z "},"Î":{"ha":554,"x_min":0,"x_max":0,"o":"m 196 1125 l 211 1125 l 408 1281 l 563 1125 l 578 1125 l 454 1317 l 372 1317 z m -39 0 l 496 0 l 496 6 b 371 133 408 10 357 35 l 471 839 b 632 967 485 938 542 963 l 632 972 l 97 972 l 97 967 b 222 839 185 963 236 938 l 122 133 b -39 6 108 35 51 10 z "},"Ï":{"ha":554,"x_min":0,"x_max":0,"o":"m 286 1154 b 365 1225 325 1154 360 1185 b 306 1294 371 1264 344 1294 b 225 1225 265 1294 231 1264 b 286 1154 219 1185 246 1154 z m 497 1154 b 576 1225 536 1154 571 1185 b 517 1294 582 1264 556 1294 b 436 1225 476 1294 442 1264 b 497 1154 431 1185 457 1154 z m -39 0 l 496 0 l 496 6 b 371 133 408 10 357 35 l 471 839 b 632 967 485 938 542 963 l 632 972 l 97 972 l 97 967 b 222 839 185 963 236 938 l 122 133 b -39 6 108 35 51 10 z "},"İ":{"ha":554,"x_min":0,"x_max":0,"o":"m 389 1142 b 507 1244 446 1142 499 1188 b 418 1349 515 1301 475 1349 b 299 1244 358 1349 307 1301 b 389 1142 290 1188 329 1142 z m -39 0 l 496 0 l 496 6 b 371 133 408 10 357 35 l 471 839 b 632 967 485 938 542 963 l 632 972 l 97 972 l 97 967 b 222 839 185 963 236 938 l 122 133 b -39 6 108 35 51 10 z "},"Ì":{"ha":554,"x_min":0,"x_max":0,"o":"m 474 1125 l 489 1125 l 393 1317 l 311 1317 z m -39 0 l 496 0 l 496 6 b 371 133 408 10 357 35 l 471 839 b 632 967 485 938 542 963 l 632 972 l 97 972 l 97 967 b 222 839 185 963 236 938 l 122 133 b -39 6 108 35 51 10 z "},"Ī":{"ha":554,"x_min":0,"x_max":0,"o":"m 240 1211 l 557 1211 l 561 1235 l 244 1235 z m -39 0 l 496 0 l 496 6 b 371 133 408 10 357 35 l 471 839 b 632 967 485 938 542 963 l 632 972 l 97 972 l 97 967 b 222 839 185 963 236 938 l 122 133 b -39 6 108 35 51 10 z "},"Į":{"ha":554,"x_min":0,"x_max":0,"o":"m 632 967 l 632 972 l 97 972 l 97 967 b 222 839 185 963 236 938 l 122 133 b -39 6 108 35 51 10 l -39 0 l 281 0 b 238 -112 263 -26 246 -61 b 321 -258 225 -201 257 -258 b 428 -143 382 -258 419 -211 l 425 -142 b 351 -181 414 -175 389 -181 b 263 -76 279 -181 254 -142 b 293 0 265 -54 274 -29 l 496 0 l 496 6 b 371 133 408 10 357 35 l 471 839 b 632 967 485 938 542 963 z "},"J":{"ha":719,"x_min":0,"x_max":0,"o":"m 219 -6 b 568 354 397 7 543 178 l 636 839 b 797 967 650 938 707 963 l 797 972 l 263 972 l 263 967 b 388 839 350 963 401 938 l 282 86 b 218 4 275 43 257 13 z m -67 0 l -61 0 b -4 40 -58 11 -40 40 b 63 25 17 40 36 35 b 118 7 82 17 100 11 l 122 18 b -24 271 46 58 -8 157 l -29 271 z "},"K":{"ha":1113,"x_min":0,"x_max":0,"o":"m -39 0 l 496 0 l 496 6 b 371 133 408 10 357 35 l 471 839 b 632 967 485 938 542 963 l 632 972 l 97 972 l 97 967 b 222 839 185 963 236 938 l 122 133 b -39 6 108 35 51 10 z m 726 776 b 1081 967 900 950 982 961 l 1081 972 l 693 972 l 693 967 b 786 906 749 963 794 956 b 722 781 782 874 754 828 z m 676 0 l 1082 0 l 1082 6 b 888 157 1011 6 933 61 l 632 679 l 454 476 z "},"Ķ":{"ha":1113,"x_min":0,"x_max":0,"o":"m -39 0 l 496 0 l 496 6 b 371 133 408 10 357 35 l 471 839 b 632 967 485 938 542 963 l 632 972 l 97 972 l 97 967 b 222 839 185 963 236 938 l 122 133 b -39 6 108 35 51 10 z m 726 776 b 1081 967 900 950 982 961 l 1081 972 l 693 972 l 693 967 b 786 906 749 963 794 956 b 722 781 782 874 754 828 z m 676 0 l 1082 0 l 1082 6 b 888 157 1011 6 933 61 l 632 679 l 454 476 z m 400 -315 b 549 -140 482 -274 539 -208 b 482 -58 554 -93 525 -58 b 392 -133 438 -58 397 -93 b 421 -203 388 -164 397 -182 b 444 -247 439 -218 447 -231 b 397 -311 442 -269 429 -285 z "},"L":{"ha":757,"x_min":0,"x_max":0,"o":"m -39 0 l 353 0 l 471 839 b 632 967 485 938 542 963 l 632 972 l 97 972 l 97 967 b 222 839 185 963 236 938 l 122 133 b -39 6 108 35 51 10 z m 388 0 l 693 0 l 758 232 l 753 232 b 388 6 669 68 574 6 z "},"Ĺ":{"ha":757,"x_min":0,"x_max":0,"o":"m 389 1125 l 404 1125 l 619 1317 l 538 1317 z m -39 0 l 353 0 l 471 839 b 632 967 485 938 542 963 l 632 972 l 97 972 l 97 967 b 222 839 185 963 236 938 l 122 133 b -39 6 108 35 51 10 z m 388 0 l 693 0 l 758 232 l 753 232 b 388 6 669 68 574 6 z "},"Ľ":{"ha":757,"x_min":0,"x_max":0,"o":"m 450 1125 l 532 1125 l 708 1317 l 693 1317 l 496 1161 l 342 1317 l 326 1317 z m -39 0 l 353 0 l 471 839 b 632 967 485 938 542 963 l 632 972 l 97 972 l 97 967 b 222 839 185 963 236 938 l 122 133 b -39 6 108 35 51 10 z m 388 0 l 693 0 l 758 232 l 753 232 b 388 6 669 68 574 6 z "},"Ļ":{"ha":757,"x_min":0,"x_max":0,"o":"m -39 0 l 353 0 l 471 839 b 632 967 485 938 542 963 l 632 972 l 97 972 l 97 967 b 222 839 185 963 236 938 l 122 133 b -39 6 108 35 51 10 z m 388 0 l 693 0 l 758 232 l 753 232 b 388 6 669 68 574 6 z m 243 -315 b 392 -140 325 -274 382 -208 b 325 -58 397 -93 368 -58 b 235 -133 281 -58 240 -93 b 264 -203 231 -164 240 -182 b 288 -247 282 -218 290 -231 b 240 -311 285 -269 272 -285 z "},"Ł":{"ha":757,"x_min":0,"x_max":0,"o":"m 518 656 l 521 672 l 440 625 l 471 839 b 632 967 485 938 542 963 l 632 972 l 97 972 l 97 967 b 222 839 185 963 236 938 l 169 463 l 106 425 l 103 408 l 167 446 l 122 133 b -39 6 108 35 51 10 l -39 0 l 353 0 l 438 608 z m 753 232 b 388 6 669 68 574 6 l 388 0 l 693 0 l 758 232 z "},"M":{"ha":1438,"x_min":0,"x_max":0,"o":"m 578 -28 l 583 -28 l 739 293 l 596 972 l 214 972 l 214 967 b 385 839 303 963 363 938 z m 878 0 l 1407 0 l 1407 6 b 1260 133 1317 10 1261 35 l 1242 839 b 1243 872 1240 851 1242 864 b 1382 967 1253 944 1303 963 l 1379 972 l 994 972 l 1017 133 b 1015 101 1018 121 1017 110 b 878 6 1006 28 956 10 z m -67 0 l 321 0 l 321 6 b 192 165 206 13 175 46 b 215 264 196 199 204 229 l 207 264 b -67 6 149 85 68 14 z "},"N":{"ha":1089,"x_min":0,"x_max":0,"o":"m 861 -17 l 867 -17 l 910 292 l 268 989 l 263 989 l 219 681 z m 957 685 l 965 685 b 985 783 969 715 976 756 b 1196 967 1031 938 1101 961 l 1196 972 l 807 972 l 807 967 b 965 783 899 961 964 938 b 957 685 965 756 961 715 z m -67 0 l 322 0 l 322 6 b 164 189 231 11 165 35 b 172 288 164 217 168 257 l 164 288 b 144 189 160 257 153 217 b -67 6 97 35 28 11 z "},"Ń":{"ha":1089,"x_min":0,"x_max":0,"o":"m 594 1125 l 610 1125 l 825 1317 l 743 1317 z m 861 -17 l 867 -17 l 910 292 l 268 989 l 263 989 l 219 681 z m 957 685 l 965 685 b 985 783 969 715 976 756 b 1196 967 1031 938 1101 961 l 1196 972 l 807 972 l 807 967 b 965 783 899 961 964 938 b 957 685 965 756 961 715 z m -67 0 l 322 0 l 322 6 b 164 189 231 11 165 35 b 172 288 164 217 168 257 l 164 288 b 144 189 160 257 153 217 b -67 6 97 35 28 11 z "},"Ň":{"ha":1089,"x_min":0,"x_max":0,"o":"m 656 1125 l 738 1125 l 914 1317 l 899 1317 l 701 1161 l 547 1317 l 532 1317 z m 861 -17 l 867 -17 l 910 292 l 268 989 l 263 989 l 219 681 z m 957 685 l 965 685 b 985 783 969 715 976 756 b 1196 967 1031 938 1101 961 l 1196 972 l 807 972 l 807 967 b 965 783 899 961 964 938 b 957 685 965 756 961 715 z m -67 0 l 322 0 l 322 6 b 164 189 231 11 165 35 b 172 288 164 217 168 257 l 164 288 b 144 189 160 257 153 217 b -67 6 97 35 28 11 z "},"Ņ":{"ha":1089,"x_min":0,"x_max":0,"o":"m 861 -17 l 867 -17 l 910 292 l 268 989 l 263 989 l 219 681 z m 957 685 l 965 685 b 985 783 969 715 976 756 b 1196 967 1031 938 1101 961 l 1196 972 l 807 972 l 807 967 b 965 783 899 961 964 938 b 957 685 965 756 961 715 z m -67 0 l 322 0 l 322 6 b 164 189 231 11 165 35 b 172 288 164 217 168 257 l 164 288 b 144 189 160 257 153 217 b -67 6 97 35 28 11 z m 407 -315 b 556 -140 489 -274 546 -208 b 489 -58 561 -93 532 -58 b 399 -133 444 -58 404 -93 b 428 -203 394 -164 404 -182 b 451 -247 446 -218 454 -231 b 404 -311 449 -269 436 -285 z "},"Ŋ":{"ha":1089,"x_min":0,"x_max":0,"o":"m 779 -222 b 867 -22 826 -172 854 -106 l 910 292 l 263 994 l 219 681 b 743 118 385 506 549 331 b 824 -119 819 36 832 -62 b 776 -217 818 -156 801 -190 z m 957 685 l 965 685 b 985 783 969 715 976 756 b 1196 967 1031 938 1101 961 l 1196 972 l 807 972 l 807 967 b 965 783 899 961 964 938 b 957 685 965 756 961 715 z m -67 0 l 322 0 l 322 6 b 164 189 231 11 165 35 b 172 288 164 217 168 257 l 164 288 b 144 189 160 257 153 217 b -67 6 99 35 28 11 z m 535 -308 b 708 -275 604 -308 660 -297 l 704 -271 b 610 -293 676 -285 642 -293 b 564 -244 581 -293 561 -269 b 572 -217 565 -233 568 -229 b 583 -176 576 -206 581 -193 b 492 -76 589 -133 564 -76 b 376 -172 426 -76 383 -122 b 535 -308 364 -262 449 -308 z "},"Ñ":{"ha":1089,"x_min":0,"x_max":0,"o":"m 790 1125 b 931 1261 878 1125 921 1188 l 926 1261 b 839 1176 921 1213 882 1176 b 744 1224 797 1176 774 1197 b 625 1275 713 1251 676 1275 b 483 1139 538 1275 494 1213 l 488 1139 b 576 1224 494 1188 533 1224 b 671 1176 618 1224 642 1203 b 790 1125 701 1149 739 1125 z m 861 -17 l 867 -17 l 910 292 l 268 989 l 263 989 l 219 681 z m 957 685 l 965 685 b 985 783 969 715 976 756 b 1196 967 1031 938 1101 961 l 1196 972 l 807 972 l 807 967 b 965 783 899 961 964 938 b 957 685 965 756 961 715 z m -67 0 l 322 0 l 322 6 b 164 189 231 11 165 35 b 172 288 164 217 168 257 l 164 288 b 144 189 160 257 153 217 b -67 6 97 35 28 11 z "},"O":{"ha":1096,"x_min":0,"x_max":0,"o":"m 607 0 b 1085 488 847 47 1051 247 b 651 982 1122 756 926 976 l 651 976 b 801 356 821 936 839 625 b 607 7 778 192 722 50 z m 486 -10 l 488 -3 b 333 618 313 35 296 343 b 529 967 360 801 418 931 l 528 972 b 50 488 286 924 83 724 b 486 -10 13 215 207 -4 z "},"Ó":{"ha":1096,"x_min":0,"x_max":0,"o":"m 557 1125 l 572 1125 l 788 1317 l 706 1317 z m 607 0 b 1085 488 847 47 1051 247 b 651 982 1122 756 926 976 l 651 976 b 801 356 821 936 839 625 b 607 7 778 192 722 50 z m 486 -10 l 488 -3 b 333 618 313 35 296 343 b 529 967 360 801 418 931 l 528 972 b 50 488 286 924 83 724 b 486 -10 13 215 207 -4 z "},"Ô":{"ha":1096,"x_min":0,"x_max":0,"o":"m 468 1125 l 483 1125 l 681 1281 l 835 1125 l 850 1125 l 726 1317 l 644 1317 z m 607 0 b 1085 488 847 47 1051 247 b 651 982 1122 756 926 976 l 651 976 b 801 356 821 936 839 625 b 607 7 778 192 722 50 z m 486 -10 l 488 -3 b 333 618 313 35 296 343 b 529 967 360 801 418 931 l 528 972 b 50 488 286 924 83 724 b 486 -10 13 215 207 -4 z "},"Ö":{"ha":1096,"x_min":0,"x_max":0,"o":"m 558 1154 b 638 1225 597 1154 632 1185 b 578 1294 643 1264 617 1294 b 497 1225 538 1294 503 1264 b 558 1154 492 1185 518 1154 z m 769 1154 b 849 1225 808 1154 843 1185 b 789 1294 854 1264 828 1294 b 708 1225 749 1294 714 1264 b 769 1154 703 1185 729 1154 z m 607 0 b 1085 488 847 47 1051 247 b 651 982 1122 756 926 976 l 651 976 b 801 356 821 936 839 625 b 607 7 778 192 722 50 z m 486 -10 l 488 -3 b 333 618 313 35 296 343 b 529 967 360 801 418 931 l 528 972 b 50 488 286 924 83 724 b 486 -10 13 215 207 -4 z "},"Ò":{"ha":1096,"x_min":0,"x_max":0,"o":"m 746 1125 l 761 1125 l 665 1317 l 583 1317 z m 607 0 b 1085 488 847 47 1051 247 b 651 982 1122 756 926 976 l 651 976 b 801 356 821 936 839 625 b 607 7 778 192 722 50 z m 486 -10 l 488 -3 b 333 618 313 35 296 343 b 529 967 360 801 418 931 l 528 972 b 50 488 286 924 83 724 b 486 -10 13 215 207 -4 z "},"Ő":{"ha":1096,"x_min":0,"x_max":0,"o":"m 467 1125 l 482 1125 l 697 1317 l 615 1317 z m 647 1125 l 663 1125 l 878 1317 l 796 1317 z m 607 0 b 1085 488 847 47 1051 247 b 651 982 1122 756 926 976 l 651 976 b 801 356 821 936 839 625 b 607 7 778 192 722 50 z m 486 -10 l 488 -3 b 333 618 313 35 296 343 b 529 967 360 801 418 931 l 528 972 b 50 488 286 924 83 724 b 486 -10 13 215 207 -4 z "},"Ō":{"ha":1096,"x_min":0,"x_max":0,"o":"m 513 1211 l 829 1211 l 833 1235 l 517 1235 z m 607 0 b 1085 488 847 47 1051 247 b 651 982 1122 756 926 976 l 651 976 b 801 356 821 936 839 625 b 607 7 778 192 722 50 z m 486 -10 l 488 -3 b 333 618 313 35 296 343 b 529 967 360 801 418 931 l 528 972 b 50 488 286 924 83 724 b 486 -10 13 215 207 -4 z "},"Ø":{"ha":1096,"x_min":0,"x_max":0,"o":"m 861 929 l 971 1103 l 935 1103 l 833 943 b 651 982 779 967 718 981 l 651 976 b 776 851 708 963 750 917 l 343 168 b 333 618 308 290 311 460 b 529 967 360 801 418 931 l 528 972 b 50 488 286 924 83 724 b 267 47 24 296 113 129 l 193 -68 l 229 -68 l 293 33 b 486 -10 351 7 415 -8 l 488 -3 b 354 131 424 11 382 60 l 789 815 b 801 356 826 690 824 515 b 607 7 778 192 722 50 l 607 0 b 1085 488 847 47 1051 247 b 861 929 1113 681 1018 849 z "},"Õ":{"ha":1096,"x_min":0,"x_max":0,"o":"m 753 1125 b 893 1261 840 1125 883 1188 l 889 1261 b 801 1176 883 1213 844 1176 b 707 1224 760 1176 736 1197 b 588 1275 675 1251 639 1275 b 446 1139 500 1275 457 1213 l 450 1139 b 539 1224 457 1188 496 1224 b 633 1176 581 1224 604 1203 b 753 1125 664 1149 701 1125 z m 607 0 b 1085 488 847 47 1051 247 b 651 982 1122 756 926 976 l 651 976 b 801 356 821 936 839 625 b 607 7 778 192 722 50 z m 486 -10 l 488 -3 b 333 618 313 35 296 343 b 529 967 360 801 418 931 l 528 972 b 50 488 286 924 83 724 b 486 -10 13 215 207 -4 z "},"Œ":{"ha":1419,"x_min":0,"x_max":0,"o":"m 504 -3 l 504 4 b 333 618 315 28 294 335 b 529 961 360 801 419 925 l 528 972 b 50 488 286 924 83 724 b 504 -3 11 210 218 -7 z m 553 0 l 944 0 l 1081 972 l 689 972 l 689 967 b 814 839 776 963 828 938 l 714 133 b 553 6 700 35 643 10 z m 1382 782 l 1388 782 l 1381 972 l 1110 972 l 1110 967 l 1150 967 b 1382 782 1308 967 1358 882 z m 1235 360 l 1240 360 l 1285 675 l 1279 675 b 1049 518 1256 572 1193 518 l 1046 518 l 1046 513 l 1049 513 b 1235 360 1193 513 1240 463 z m 974 0 l 1286 0 l 1350 218 l 1344 218 b 1056 6 1293 118 1214 6 l 974 6 z "},"P":{"ha":869,"x_min":0,"x_max":0,"o":"m 758 1271 l 476 1271 l 476 1268 l 758 1268 z m 739 1132 l 457 1132 l 457 1129 l 739 1129 z m 719 993 l 438 993 l 438 990 l 719 990 z m 544 514 b 901 744 763 514 883 615 b 593 972 919 874 826 972 l 551 972 l 550 963 l 564 963 b 661 854 617 963 651 928 l 472 854 l 489 972 l 97 972 l 97 967 b 222 839 185 963 236 938 l 122 133 b -39 6 108 35 51 10 l -39 0 l 496 0 l 496 6 b 424 18 468 7 443 11 l 583 18 l 583 21 l 417 21 b 371 133 381 38 363 71 l 375 157 l 603 157 l 603 160 l 375 160 l 394 296 l 622 296 l 622 299 l 394 299 l 414 435 l 642 435 l 642 438 l 414 438 l 433 574 l 614 574 b 486 524 585 538 543 524 l 489 524 l 488 514 z m 661 851 b 660 715 667 815 667 769 l 453 715 l 472 851 z m 433 576 l 453 713 l 660 713 l 657 690 b 617 576 650 639 636 603 z m 282 -121 l 564 -121 l 564 -118 l 282 -118 z m 263 -260 l 544 -260 l 544 -257 l 263 -257 z "},"Þ":{"ha":869,"x_min":0,"x_max":0,"o":"m -39 0 l 496 0 l 496 6 b 371 133 408 10 357 35 l 471 839 b 632 967 485 938 542 963 l 632 972 l 97 972 l 97 967 b 222 839 185 963 236 938 l 122 133 b -39 6 108 35 51 10 z m 461 333 l 519 333 b 876 564 738 333 858 435 b 568 792 894 693 801 792 l 525 792 l 524 782 l 539 782 b 631 510 622 782 657 694 b 461 343 614 385 560 343 l 463 343 z "},"Q":{"ha":1096,"x_min":0,"x_max":0,"o":"m 818 1271 l 536 1271 l 536 1268 l 818 1268 z m 799 1132 l 517 1132 l 517 1129 l 799 1129 z m 779 993 l 497 993 l 497 990 l 779 990 z m 1085 488 b 651 982 1122 756 926 976 l 651 976 b 801 356 821 936 839 625 b 683 57 783 233 747 124 b 590 157 658 103 626 135 l 663 157 l 663 160 l 585 160 b 411 196 538 186 481 196 l 410 190 b 458 160 428 190 443 179 l 381 160 l 381 157 l 460 157 b 525 21 481 128 499 81 l 432 21 b 333 618 310 106 300 375 b 529 967 360 801 418 931 l 528 972 b 50 488 286 924 83 724 b 486 -10 13 215 207 -4 l 488 -3 b 438 18 468 1 451 8 l 526 18 b 533 0 528 13 529 6 b 618 -118 557 -53 585 -92 l 342 -118 l 342 -121 l 622 -121 b 819 -174 674 -160 738 -174 l 821 -168 b 700 22 772 -168 749 -93 l 699 26 b 1085 488 897 100 1056 279 z m 760 854 l 478 854 l 478 851 l 760 851 z m 740 715 l 458 715 l 458 713 l 740 713 z m 721 576 l 439 576 l 439 574 l 721 574 z m 701 438 l 419 438 l 419 435 l 701 435 z m 400 296 l 682 296 l 682 299 l 400 299 z m 322 -260 l 604 -260 l 604 -257 l 322 -257 z "},"R":{"ha":1007,"x_min":0,"x_max":0,"o":"m -39 0 l 478 0 l 478 6 b 371 133 408 10 357 35 l 489 972 l 97 972 l 97 967 b 222 839 185 963 236 938 l 122 133 b -39 6 108 35 51 10 z m 918 0 l 978 0 l 978 6 b 858 157 914 6 885 54 l 822 290 b 579 515 790 419 740 494 b 901 744 775 525 885 622 b 593 972 919 874 826 972 l 547 972 l 546 963 l 564 963 b 657 690 647 963 682 875 b 486 524 639 565 585 524 l 478 524 l 476 514 b 579 364 536 514 554 483 l 611 215 b 918 0 643 60 733 0 z "},"Ŕ":{"ha":1007,"x_min":0,"x_max":0,"o":"m 503 1125 l 518 1125 l 733 1317 l 651 1317 z m -39 0 l 478 0 l 478 6 b 371 133 408 10 357 35 l 489 972 l 97 972 l 97 967 b 222 839 185 963 236 938 l 122 133 b -39 6 108 35 51 10 z m 918 0 l 978 0 l 978 6 b 858 157 914 6 885 54 l 822 290 b 579 515 790 419 740 494 b 901 744 775 525 885 622 b 593 972 919 874 826 972 l 547 972 l 546 963 l 564 963 b 657 690 647 963 682 875 b 486 524 639 565 585 524 l 478 524 l 476 514 b 579 364 536 514 554 483 l 611 215 b 918 0 643 60 733 0 z "},"Ř":{"ha":1007,"x_min":0,"x_max":0,"o":"m 564 1125 l 646 1125 l 822 1317 l 807 1317 l 610 1161 l 456 1317 l 440 1317 z m -39 0 l 478 0 l 478 6 b 371 133 408 10 357 35 l 489 972 l 97 972 l 97 967 b 222 839 185 963 236 938 l 122 133 b -39 6 108 35 51 10 z m 918 0 l 978 0 l 978 6 b 858 157 914 6 885 54 l 822 290 b 579 515 790 419 740 494 b 901 744 775 525 885 622 b 593 972 919 874 826 972 l 547 972 l 546 963 l 564 963 b 657 690 647 963 682 875 b 486 524 639 565 585 524 l 478 524 l 476 514 b 579 364 536 514 554 483 l 611 215 b 918 0 643 60 733 0 z "},"Ŗ":{"ha":1007,"x_min":0,"x_max":0,"o":"m -39 0 l 478 0 l 478 6 b 371 133 408 10 357 35 l 489 972 l 97 972 l 97 967 b 222 839 185 963 236 938 l 122 133 b -39 6 108 35 51 10 z m 918 0 l 978 0 l 978 6 b 858 157 914 6 885 54 l 822 290 b 579 515 790 419 740 494 b 901 744 775 525 885 622 b 593 972 919 874 826 972 l 547 972 l 546 963 l 564 963 b 657 690 647 963 682 875 b 486 524 639 565 585 524 l 478 524 l 476 514 b 579 364 536 514 554 483 l 611 215 b 918 0 643 60 733 0 z m 357 -315 b 506 -140 439 -274 496 -208 b 439 -58 511 -93 482 -58 b 349 -133 394 -58 354 -93 b 378 -203 344 -164 354 -182 b 401 -247 396 -218 404 -231 b 354 -311 399 -269 386 -285 z "},"S":{"ha":800,"x_min":0,"x_max":0,"o":"m 450 -6 b 746 269 604 17 724 111 b 489 610 767 417 683 500 b 226 853 283 725 218 790 b 396 972 235 913 314 957 l 396 982 b 103 707 246 958 124 853 b 346 364 88 593 129 488 b 578 129 540 256 589 206 b 449 4 568 65 518 22 z m 743 708 l 749 708 l 760 972 l 754 972 b 696 938 747 954 729 938 b 615 954 676 938 654 940 b 526 979 585 964 554 972 l 524 969 b 743 708 640 939 713 835 z m 299 -8 l 301 3 b 42 283 157 29 63 139 l 36 283 l -4 0 l 1 0 b 75 60 7 25 36 60 b 147 40 99 60 115 56 b 299 -8 203 11 250 -3 z "},"Ś":{"ha":800,"x_min":0,"x_max":0,"o":"m 408 1125 l 424 1125 l 639 1317 l 557 1317 z m 450 -6 b 746 269 604 17 724 111 b 489 610 767 417 683 500 b 226 853 283 725 218 790 b 396 972 235 913 314 957 l 396 982 b 103 707 246 958 124 853 b 346 364 88 593 129 488 b 578 129 540 256 589 206 b 449 4 568 65 518 22 z m 743 708 l 749 708 l 760 972 l 754 972 b 696 938 747 954 729 938 b 615 954 676 938 654 940 b 526 979 585 964 554 972 l 524 969 b 743 708 640 939 713 835 z m 299 -8 l 301 3 b 42 283 157 29 63 139 l 36 283 l -4 0 l 1 0 b 75 60 7 25 36 60 b 147 40 99 60 115 56 b 299 -8 203 11 250 -3 z "},"Š":{"ha":800,"x_min":0,"x_max":0,"o":"m 469 1125 l 551 1125 l 728 1317 l 713 1317 l 515 1161 l 361 1317 l 346 1317 z m 450 -6 b 746 269 604 17 724 111 b 489 610 767 417 683 500 b 226 853 283 725 218 790 b 396 972 235 913 314 957 l 396 982 b 103 707 246 958 124 853 b 346 364 88 593 129 488 b 578 129 540 256 589 206 b 449 4 568 65 518 22 z m 743 708 l 749 708 l 760 972 l 754 972 b 696 938 747 954 729 938 b 615 954 676 938 654 940 b 526 979 585 964 554 972 l 524 969 b 743 708 640 939 713 835 z m 299 -8 l 301 3 b 42 283 157 29 63 139 l 36 283 l -4 0 l 1 0 b 75 60 7 25 36 60 b 147 40 99 60 115 56 b 299 -8 203 11 250 -3 z "},"Ş":{"ha":800,"x_min":0,"x_max":0,"o":"m 450 -6 b 746 269 604 17 724 111 b 489 610 767 417 683 500 b 226 853 283 725 218 790 b 396 972 235 913 314 957 l 396 982 b 103 707 246 958 124 853 b 346 364 88 593 129 488 b 578 129 540 256 589 206 b 449 4 568 65 518 22 z m 743 708 l 749 708 l 760 972 l 754 972 b 696 938 747 954 729 938 b 615 954 676 938 654 940 b 526 979 585 964 554 972 l 524 969 b 743 708 640 939 713 835 z m 299 -8 l 301 3 b 42 283 157 29 63 139 l 36 283 l -4 0 l 1 0 b 75 60 7 25 36 60 b 147 40 99 60 115 56 b 299 -8 203 11 250 -3 z m 285 -71 l 289 -71 b 358 -51 308 -57 333 -51 l 393 -3 b 335 -1 375 -3 353 -3 z m 322 -243 b 483 -140 411 -243 474 -204 b 381 -49 492 -79 449 -49 l 379 -53 b 408 -121 411 -58 413 -83 b 288 -232 397 -193 353 -232 b 204 -206 263 -232 236 -226 l 201 -210 b 322 -243 225 -225 261 -243 z "},"Ș":{"ha":800,"x_min":0,"x_max":0,"o":"m 450 -6 b 746 269 604 17 724 111 b 489 610 767 417 683 500 b 226 853 283 725 218 790 b 396 972 235 913 314 957 l 396 982 b 103 707 246 958 124 853 b 346 364 88 593 129 488 b 578 129 540 256 589 206 b 449 4 568 65 518 22 z m 743 708 l 749 708 l 760 972 l 754 972 b 696 938 747 954 729 938 b 615 954 676 938 654 940 b 526 979 585 964 554 972 l 524 969 b 743 708 640 939 713 835 z m 299 -8 l 301 3 b 42 283 157 29 63 139 l 36 283 l -4 0 l 1 0 b 75 60 7 25 36 60 b 147 40 99 60 115 56 b 299 -8 203 11 250 -3 z m 263 -314 b 411 -139 344 -272 401 -207 b 344 -57 418 -92 388 -57 b 256 -132 300 -57 261 -92 b 283 -201 250 -162 261 -181 b 307 -246 301 -217 310 -229 b 261 -310 304 -268 292 -283 z "},"ẞ":{"ha":961,"x_min":0,"x_max":0,"o":"m 503 0 b 926 271 767 0 907 128 b 714 544 946 407 882 510 l 947 972 l 628 972 l 626 964 b 672 906 661 957 678 939 b 647 839 671 889 663 868 l 492 546 l 519 546 b 675 232 672 546 699 397 b 488 8 651 63 582 8 b 385 31 458 8 424 10 l 382 26 b 503 0 421 7 446 0 z m -39 0 l 353 0 l 478 888 b 544 963 483 928 504 953 l 546 971 b 206 718 367 958 225 863 l 122 133 b -39 6 108 35 51 10 z "},"T":{"ha":849,"x_min":0,"x_max":0,"o":"m 699 1271 l 417 1271 l 417 1268 l 699 1268 z m 679 1132 l 397 1132 l 397 1129 l 679 1129 z m 660 993 l 378 993 l 378 990 l 660 990 z m 339 972 l 144 972 l 75 713 l 81 713 b 339 967 150 874 218 951 z m 518 133 l 522 157 l 543 157 l 543 160 l 522 160 l 542 296 l 563 296 l 563 299 l 542 299 l 561 435 l 582 435 l 582 438 l 561 438 l 581 574 l 601 574 l 601 576 l 581 576 l 600 713 l 621 713 l 621 715 l 600 715 l 619 851 l 640 851 l 640 854 l 619 854 l 636 972 l 389 972 l 372 854 l 358 854 l 358 851 l 372 851 l 353 715 l 339 715 l 339 713 l 353 713 l 333 576 l 319 576 l 319 574 l 333 574 l 314 438 l 300 438 l 300 435 l 314 435 l 294 299 l 281 299 l 281 296 l 294 296 l 275 160 l 261 160 l 261 157 l 275 157 l 271 133 b 108 6 257 35 200 10 l 108 0 l 644 0 l 644 6 b 518 133 556 10 504 35 z m 881 972 l 685 972 l 685 967 b 872 713 801 951 847 874 l 878 713 z m 222 -121 l 504 -121 l 504 -118 l 222 -118 z m 203 -260 l 485 -260 l 485 -257 l 203 -257 z "},"Ŧ":{"ha":849,"x_min":0,"x_max":0,"o":"m 699 1271 l 417 1271 l 417 1268 l 699 1268 z m 679 1132 l 397 1132 l 397 1129 l 679 1129 z m 660 993 l 378 993 l 378 990 l 660 990 z m 339 972 l 144 972 l 75 713 l 81 713 b 339 967 150 874 218 951 z m 518 133 l 522 157 l 543 157 l 543 160 l 522 160 l 542 296 l 563 296 l 563 299 l 542 299 l 561 435 l 582 435 l 582 438 l 561 438 l 581 574 l 601 574 l 601 576 l 581 576 l 585 607 l 689 607 l 690 615 l 586 615 l 600 713 l 621 713 l 621 715 l 600 715 l 619 851 l 640 851 l 640 854 l 619 854 l 636 972 l 389 972 l 372 854 l 358 854 l 358 851 l 372 851 l 353 715 l 339 715 l 339 713 l 353 713 l 339 615 l 235 615 l 233 607 l 338 607 l 333 576 l 319 576 l 319 574 l 333 574 l 314 438 l 300 438 l 300 435 l 314 435 l 294 299 l 281 299 l 281 296 l 294 296 l 275 160 l 261 160 l 261 157 l 275 157 l 271 133 b 108 6 257 35 200 10 l 108 0 l 644 0 l 644 6 b 518 133 556 10 504 35 z m 881 972 l 685 972 l 685 967 b 872 713 801 951 847 874 l 878 713 z m 222 -121 l 504 -121 l 504 -118 l 222 -118 z m 203 -260 l 485 -260 l 485 -257 l 203 -257 z "},"Ť":{"ha":849,"x_min":0,"x_max":0,"o":"m 397 1132 l 397 1129 l 490 1129 l 493 1125 l 575 1125 l 578 1129 l 679 1129 l 679 1132 l 581 1132 l 751 1317 l 736 1317 l 678 1271 l 429 1271 l 385 1317 l 369 1317 l 488 1132 z m 675 1268 l 539 1161 l 433 1268 z m 378 990 l 660 990 l 660 993 l 378 993 z m 339 972 l 144 972 l 75 713 l 81 713 b 339 967 150 874 218 951 z m 518 133 l 522 157 l 543 157 l 543 160 l 522 160 l 542 296 l 563 296 l 563 299 l 542 299 l 561 435 l 582 435 l 582 438 l 561 438 l 581 574 l 601 574 l 601 576 l 581 576 l 600 713 l 621 713 l 621 715 l 600 715 l 619 851 l 640 851 l 640 854 l 619 854 l 636 972 l 389 972 l 372 854 l 358 854 l 358 851 l 372 851 l 353 715 l 339 715 l 339 713 l 353 713 l 333 576 l 319 576 l 319 574 l 333 574 l 314 438 l 300 438 l 300 435 l 314 435 l 294 299 l 281 299 l 281 296 l 294 296 l 275 160 l 261 160 l 261 157 l 275 157 l 271 133 b 108 6 257 35 200 10 l 108 0 l 644 0 l 644 6 b 518 133 556 10 504 35 z m 881 972 l 685 972 l 685 967 b 872 713 801 951 847 874 l 878 713 z m 222 -121 l 504 -121 l 504 -118 l 222 -118 z m 203 -260 l 485 -260 l 485 -257 l 203 -257 z "},"Ţ":{"ha":849,"x_min":0,"x_max":0,"o":"m 699 1271 l 417 1271 l 417 1268 l 699 1268 z m 679 1132 l 397 1132 l 397 1129 l 679 1129 z m 660 993 l 378 993 l 378 990 l 660 990 z m 339 972 l 144 972 l 75 713 l 81 713 b 339 967 150 874 218 951 z m 518 133 l 522 157 l 543 157 l 543 160 l 522 160 l 542 296 l 563 296 l 563 299 l 542 299 l 561 435 l 582 435 l 582 438 l 561 438 l 581 574 l 601 574 l 601 576 l 581 576 l 600 713 l 621 713 l 621 715 l 600 715 l 619 851 l 640 851 l 640 854 l 619 854 l 636 972 l 389 972 l 372 854 l 358 854 l 358 851 l 372 851 l 353 715 l 339 715 l 339 713 l 353 713 l 333 576 l 319 576 l 319 574 l 333 574 l 314 438 l 300 438 l 300 435 l 314 435 l 294 299 l 281 299 l 281 296 l 294 296 l 275 160 l 261 160 l 261 157 l 275 157 l 271 133 b 108 6 257 35 200 10 l 108 0 l 356 0 l 308 -64 l 313 -64 b 382 -44 333 -50 357 -44 l 414 0 l 644 0 l 644 6 b 518 133 556 10 504 35 z m 881 972 l 685 972 l 685 967 b 872 713 801 951 847 874 l 878 713 z m 406 -42 l 403 -46 b 432 -114 436 -51 438 -76 l 432 -118 l 222 -118 l 222 -121 l 432 -121 b 313 -225 419 -189 375 -225 b 229 -199 288 -225 261 -219 l 225 -203 b 347 -236 250 -218 286 -236 b 507 -133 436 -236 499 -197 b 406 -42 517 -72 474 -42 z m 203 -260 l 485 -260 l 485 -257 l 203 -257 z "},"Ț":{"ha":849,"x_min":0,"x_max":0,"o":"m 699 1271 l 417 1271 l 417 1268 l 699 1268 z m 679 1132 l 397 1132 l 397 1129 l 679 1129 z m 660 993 l 378 993 l 378 990 l 660 990 z m 339 972 l 144 972 l 75 713 l 81 713 b 339 967 150 874 218 951 z m 518 133 l 522 157 l 543 157 l 543 160 l 522 160 l 542 296 l 563 296 l 563 299 l 542 299 l 561 435 l 582 435 l 582 438 l 561 438 l 581 574 l 601 574 l 601 576 l 581 576 l 600 713 l 621 713 l 621 715 l 600 715 l 619 851 l 640 851 l 640 854 l 619 854 l 636 972 l 389 972 l 372 854 l 358 854 l 358 851 l 372 851 l 353 715 l 339 715 l 339 713 l 353 713 l 333 576 l 319 576 l 319 574 l 333 574 l 314 438 l 300 438 l 300 435 l 314 435 l 294 299 l 281 299 l 281 296 l 294 296 l 275 160 l 261 160 l 261 157 l 275 157 l 271 133 b 108 6 257 35 200 10 l 108 0 l 644 0 l 644 6 b 518 133 556 10 504 35 z m 881 972 l 685 972 l 685 967 b 872 713 801 951 847 874 l 878 713 z m 369 -50 b 281 -118 328 -50 290 -81 l 222 -118 l 222 -121 l 281 -121 l 279 -125 b 308 -194 275 -156 285 -174 b 332 -239 326 -210 333 -222 b 326 -257 331 -246 328 -251 l 203 -257 l 203 -260 l 325 -260 b 285 -303 318 -272 306 -285 l 288 -307 b 358 -260 314 -293 338 -278 l 485 -260 l 485 -257 l 361 -257 b 436 -132 403 -221 429 -176 l 438 -121 l 504 -121 l 504 -118 l 436 -118 b 369 -50 436 -78 408 -50 z "},"U":{"ha":1140,"x_min":0,"x_max":0,"o":"m 521 -8 b 778 71 618 -8 706 18 l 774 78 b 536 4 708 29 625 4 b 385 233 388 4 365 94 l 471 839 b 632 967 485 938 542 963 l 632 972 l 97 972 l 97 967 b 222 839 185 963 236 938 l 157 379 b 521 -8 119 108 288 -8 z m 981 685 l 989 685 b 1008 783 993 715 1000 756 b 1218 967 1054 938 1124 961 l 1218 972 l 832 972 l 832 967 b 989 783 924 961 988 938 b 981 685 989 756 985 715 z "},"Ú":{"ha":1140,"x_min":0,"x_max":0,"o":"m 600 1125 l 615 1125 l 831 1317 l 749 1317 z m 521 -8 b 778 71 618 -8 706 18 l 774 78 b 536 4 708 29 625 4 b 385 233 388 4 365 94 l 471 839 b 632 967 485 938 542 963 l 632 972 l 97 972 l 97 967 b 222 839 185 963 236 938 l 157 379 b 521 -8 119 108 288 -8 z m 981 685 l 989 685 b 1008 783 993 715 1000 756 b 1218 967 1054 938 1124 961 l 1218 972 l 832 972 l 832 967 b 989 783 924 961 988 938 b 981 685 989 756 985 715 z "},"Û":{"ha":1140,"x_min":0,"x_max":0,"o":"m 511 1125 l 526 1125 l 724 1281 l 878 1125 l 893 1125 l 769 1317 l 688 1317 z m 521 -8 b 778 71 618 -8 706 18 l 774 78 b 536 4 708 29 625 4 b 385 233 388 4 365 94 l 471 839 b 632 967 485 938 542 963 l 632 972 l 97 972 l 97 967 b 222 839 185 963 236 938 l 157 379 b 521 -8 119 108 288 -8 z m 981 685 l 989 685 b 1008 783 993 715 1000 756 b 1218 967 1054 938 1124 961 l 1218 972 l 832 972 l 832 967 b 989 783 924 961 988 938 b 981 685 989 756 985 715 z "},"Ü":{"ha":1140,"x_min":0,"x_max":0,"o":"m 601 1154 b 681 1225 640 1154 675 1185 b 621 1294 686 1264 660 1294 b 540 1225 581 1294 546 1264 b 601 1154 535 1185 561 1154 z m 813 1154 b 892 1225 851 1154 886 1185 b 832 1294 897 1264 871 1294 b 751 1225 792 1294 757 1264 b 813 1154 746 1185 772 1154 z m 521 -8 b 778 71 618 -8 706 18 l 774 78 b 536 4 708 29 625 4 b 385 233 388 4 365 94 l 471 839 b 632 967 485 938 542 963 l 632 972 l 97 972 l 97 967 b 222 839 185 963 236 938 l 157 379 b 521 -8 119 108 288 -8 z m 981 685 l 989 685 b 1008 783 993 715 1000 756 b 1218 967 1054 938 1124 961 l 1218 972 l 832 972 l 832 967 b 989 783 924 961 988 938 b 981 685 989 756 985 715 z "},"Ù":{"ha":1140,"x_min":0,"x_max":0,"o":"m 789 1125 l 804 1125 l 708 1317 l 626 1317 z m 521 -8 b 778 71 618 -8 706 18 l 774 78 b 536 4 708 29 625 4 b 385 233 388 4 365 94 l 471 839 b 632 967 485 938 542 963 l 632 972 l 97 972 l 97 967 b 222 839 185 963 236 938 l 157 379 b 521 -8 119 108 288 -8 z m 981 685 l 989 685 b 1008 783 993 715 1000 756 b 1218 967 1054 938 1124 961 l 1218 972 l 832 972 l 832 967 b 989 783 924 961 988 938 b 981 685 989 756 985 715 z "},"Ű":{"ha":1140,"x_min":0,"x_max":0,"o":"m 510 1125 l 525 1125 l 740 1317 l 658 1317 z m 690 1125 l 706 1125 l 921 1317 l 839 1317 z m 521 -8 b 778 71 618 -8 706 18 l 774 78 b 536 4 708 29 625 4 b 385 233 388 4 365 94 l 471 839 b 632 967 485 938 542 963 l 632 972 l 97 972 l 97 967 b 222 839 185 963 236 938 l 157 379 b 521 -8 119 108 288 -8 z m 981 685 l 989 685 b 1008 783 993 715 1000 756 b 1218 967 1054 938 1124 961 l 1218 972 l 832 972 l 832 967 b 989 783 924 961 988 938 b 981 685 989 756 985 715 z "},"Ū":{"ha":1140,"x_min":0,"x_max":0,"o":"m 556 1211 l 872 1211 l 876 1235 l 560 1235 z m 521 -8 b 778 71 618 -8 706 18 l 774 78 b 536 4 708 29 625 4 b 385 233 388 4 365 94 l 471 839 b 632 967 485 938 542 963 l 632 972 l 97 972 l 97 967 b 222 839 185 963 236 938 l 157 379 b 521 -8 119 108 288 -8 z m 981 685 l 989 685 b 1008 783 993 715 1000 756 b 1218 967 1054 938 1124 961 l 1218 972 l 832 972 l 832 967 b 989 783 924 961 988 938 b 981 685 989 756 985 715 z "},"Ų":{"ha":1140,"x_min":0,"x_max":0,"o":"m 521 -8 b 778 71 618 -8 706 18 l 774 78 b 536 4 708 29 625 4 b 385 233 388 4 365 94 l 471 839 b 632 967 485 938 542 963 l 632 972 l 97 972 l 97 967 b 222 839 185 963 236 938 l 157 379 b 521 -8 119 108 288 -8 z m 981 685 l 989 685 b 1008 783 993 715 1000 756 b 1218 967 1054 938 1124 961 l 1218 972 l 832 972 l 832 967 b 989 783 924 961 988 938 b 981 685 989 756 985 715 z m 883 -258 b 990 -143 944 -258 982 -211 l 988 -142 b 914 -181 976 -175 951 -181 b 825 -76 842 -181 817 -142 b 864 11 829 -51 838 -24 l 851 14 b 800 -112 833 -12 810 -51 b 883 -258 788 -201 819 -258 z "},"Ů":{"ha":1140,"x_min":0,"x_max":0,"o":"m 707 1146 b 854 1253 779 1146 846 1193 b 736 1358 863 1311 808 1358 b 588 1253 661 1358 596 1311 b 707 1146 579 1193 632 1146 z m 715 1151 b 664 1272 668 1151 654 1207 b 726 1353 671 1324 696 1353 b 779 1232 774 1353 788 1297 b 715 1151 771 1181 746 1151 z m 521 -8 b 778 71 618 -8 706 18 l 774 78 b 536 4 708 29 625 4 b 385 233 388 4 365 94 l 471 839 b 632 967 485 938 542 963 l 632 972 l 97 972 l 97 967 b 222 839 185 963 236 938 l 157 379 b 521 -8 119 108 288 -8 z m 981 685 l 989 685 b 1008 783 993 715 1000 756 b 1218 967 1054 938 1124 961 l 1218 972 l 832 972 l 832 967 b 989 783 924 961 988 938 b 981 685 989 756 985 715 z "},"V":{"ha":1021,"x_min":0,"x_max":0,"o":"m 433 -28 l 439 -28 l 601 297 l 482 839 b 479 896 478 860 476 882 b 599 967 486 949 529 964 l 599 972 l 69 972 l 69 967 b 240 839 158 963 218 938 z m 800 708 l 808 708 b 1126 967 935 940 1019 960 l 1126 972 l 739 972 l 739 967 b 854 860 811 961 867 951 b 800 708 849 824 832 775 z "},"W":{"ha":1576,"x_min":0,"x_max":0,"o":"m 433 -28 l 439 -28 l 601 297 l 482 839 b 479 896 478 860 476 882 b 599 967 486 949 529 964 l 599 972 l 69 972 l 69 967 b 240 839 158 963 218 938 z m 989 -28 l 994 -28 l 1157 297 l 1038 839 b 1035 896 1033 860 1032 882 b 1154 967 1042 949 1085 964 l 1154 972 l 625 972 l 625 967 b 796 839 714 963 774 938 z m 1356 708 l 1364 708 b 1682 967 1490 940 1575 960 l 1682 972 l 1294 972 l 1294 967 b 1410 860 1367 961 1422 951 b 1356 708 1404 824 1388 775 z "},"Ẃ":{"ha":1576,"x_min":0,"x_max":0,"o":"m 844 1125 l 860 1125 l 1075 1317 l 993 1317 z m 433 -28 l 439 -28 l 601 297 l 482 839 b 479 896 478 860 476 882 b 599 967 486 949 529 964 l 599 972 l 69 972 l 69 967 b 240 839 158 963 218 938 z m 989 -28 l 994 -28 l 1157 297 l 1038 839 b 1035 896 1033 860 1032 882 b 1154 967 1042 949 1085 964 l 1154 972 l 625 972 l 625 967 b 796 839 714 963 774 938 z m 1356 708 l 1364 708 b 1682 967 1490 940 1575 960 l 1682 972 l 1294 972 l 1294 967 b 1410 860 1367 961 1422 951 b 1356 708 1404 824 1388 775 z "},"Ŵ":{"ha":1576,"x_min":0,"x_max":0,"o":"m 756 1125 l 771 1125 l 968 1281 l 1122 1125 l 1138 1125 l 1014 1317 l 932 1317 z m 433 -28 l 439 -28 l 601 297 l 482 839 b 479 896 478 860 476 882 b 599 967 486 949 529 964 l 599 972 l 69 972 l 69 967 b 240 839 158 963 218 938 z m 989 -28 l 994 -28 l 1157 297 l 1038 839 b 1035 896 1033 860 1032 882 b 1154 967 1042 949 1085 964 l 1154 972 l 625 972 l 625 967 b 796 839 714 963 774 938 z m 1356 708 l 1364 708 b 1682 967 1490 940 1575 960 l 1682 972 l 1294 972 l 1294 967 b 1410 860 1367 961 1422 951 b 1356 708 1404 824 1388 775 z "},"Ẅ":{"ha":1576,"x_min":0,"x_max":0,"o":"m 846 1154 b 925 1225 885 1154 919 1185 b 865 1294 931 1264 904 1294 b 785 1225 825 1294 790 1264 b 846 1154 779 1185 806 1154 z m 1057 1154 b 1136 1225 1096 1154 1131 1185 b 1076 1294 1142 1264 1115 1294 b 996 1225 1036 1294 1001 1264 b 1057 1154 990 1185 1017 1154 z m 433 -28 l 439 -28 l 601 297 l 482 839 b 479 896 478 860 476 882 b 599 967 486 949 529 964 l 599 972 l 69 972 l 69 967 b 240 839 158 963 218 938 z m 989 -28 l 994 -28 l 1157 297 l 1038 839 b 1035 896 1033 860 1032 882 b 1154 967 1042 949 1085 964 l 1154 972 l 625 972 l 625 967 b 796 839 714 963 774 938 z m 1356 708 l 1364 708 b 1682 967 1490 940 1575 960 l 1682 972 l 1294 972 l 1294 967 b 1410 860 1367 961 1422 951 b 1356 708 1404 824 1388 775 z "},"Ẁ":{"ha":1576,"x_min":0,"x_max":0,"o":"m 1033 1125 l 1049 1125 l 953 1317 l 871 1317 z m 433 -28 l 439 -28 l 601 297 l 482 839 b 479 896 478 860 476 882 b 599 967 486 949 529 964 l 599 972 l 69 972 l 69 967 b 240 839 158 963 218 938 z m 989 -28 l 994 -28 l 1157 297 l 1038 839 b 1035 896 1033 860 1032 882 b 1154 967 1042 949 1085 964 l 1154 972 l 625 972 l 625 967 b 796 839 714 963 774 938 z m 1356 708 l 1364 708 b 1682 967 1490 940 1575 960 l 1682 972 l 1294 972 l 1294 967 b 1410 860 1367 961 1422 951 b 1356 708 1404 824 1388 775 z "},"X":{"ha":942,"x_min":0,"x_max":0,"o":"m 539 0 l 913 0 l 913 6 b 746 157 842 6 783 51 l 451 972 l 78 972 l 78 967 b 244 815 149 967 207 921 z m 660 708 b 1021 967 825 940 913 960 l 1021 972 l 633 972 l 633 967 b 738 889 699 963 746 953 b 651 711 731 839 690 767 z m -67 0 l 321 0 l 321 6 b 217 83 256 10 208 19 b 303 261 224 133 264 206 l 296 264 b -67 6 129 32 42 13 z "},"Y":{"ha":976,"x_min":0,"x_max":0,"o":"m 168 0 l 704 0 l 704 6 b 578 133 615 10 564 35 l 621 432 l 506 839 b 497 903 497 856 494 882 b 618 967 504 947 547 964 l 618 972 l 69 972 l 69 967 b 244 839 158 963 207 938 l 369 407 l 331 133 b 168 6 317 35 260 10 z m 750 708 l 758 708 b 1082 967 875 944 974 960 l 1082 972 l 694 972 l 694 967 b 806 868 761 961 817 953 b 750 708 800 836 776 764 z "},"Ý":{"ha":976,"x_min":0,"x_max":0,"o":"m 511 1125 l 526 1125 l 742 1317 l 660 1317 z m 168 0 l 704 0 l 704 6 b 578 133 615 10 564 35 l 621 432 l 506 839 b 497 903 497 856 494 882 b 618 967 504 947 547 964 l 618 972 l 69 972 l 69 967 b 244 839 158 963 207 938 l 369 407 l 331 133 b 168 6 317 35 260 10 z m 750 708 l 758 708 b 1082 967 875 944 974 960 l 1082 972 l 694 972 l 694 967 b 806 868 761 961 817 953 b 750 708 800 836 776 764 z "},"Ŷ":{"ha":976,"x_min":0,"x_max":0,"o":"m 422 1125 l 438 1125 l 635 1281 l 789 1125 l 804 1125 l 681 1317 l 599 1317 z m 168 0 l 704 0 l 704 6 b 578 133 615 10 564 35 l 621 432 l 506 839 b 497 903 497 856 494 882 b 618 967 504 947 547 964 l 618 972 l 69 972 l 69 967 b 244 839 158 963 207 938 l 369 407 l 331 133 b 168 6 317 35 260 10 z m 750 708 l 758 708 b 1082 967 875 944 974 960 l 1082 972 l 694 972 l 694 967 b 806 868 761 961 817 953 b 750 708 800 836 776 764 z "},"Ÿ":{"ha":976,"x_min":0,"x_max":0,"o":"m 513 1154 b 592 1225 551 1154 586 1185 b 532 1294 597 1264 571 1294 b 451 1225 492 1294 457 1264 b 513 1154 446 1185 472 1154 z m 724 1154 b 803 1225 763 1154 797 1185 b 743 1294 808 1264 782 1294 b 663 1225 703 1294 668 1264 b 724 1154 657 1185 683 1154 z m 168 0 l 704 0 l 704 6 b 578 133 615 10 564 35 l 621 432 l 506 839 b 497 903 497 856 494 882 b 618 967 504 947 547 964 l 618 972 l 69 972 l 69 967 b 244 839 158 963 207 938 l 369 407 l 331 133 b 168 6 317 35 260 10 z m 750 708 l 758 708 b 1082 967 875 944 974 960 l 1082 972 l 694 972 l 694 967 b 806 868 761 961 817 953 b 750 708 800 836 776 764 z "},"Ỳ":{"ha":976,"x_min":0,"x_max":0,"o":"m 700 1125 l 715 1125 l 619 1317 l 538 1317 z m 168 0 l 704 0 l 704 6 b 578 133 615 10 564 35 l 621 432 l 506 839 b 497 903 497 856 494 882 b 618 967 504 947 547 964 l 618 972 l 69 972 l 69 967 b 244 839 158 963 207 938 l 369 407 l 331 133 b 168 6 317 35 260 10 z m 750 708 l 758 708 b 1082 967 875 944 974 960 l 1082 972 l 694 972 l 694 967 b 806 868 761 961 817 953 b 750 708 800 836 776 764 z "},"Z":{"ha":808,"x_min":0,"x_max":0,"o":"m 713 1271 l 431 1271 l 431 1268 l 713 1268 z m 693 1132 l 411 1132 l 411 1129 l 693 1129 z m 674 993 l 392 993 l 392 990 l 674 990 z m 532 21 l 288 21 l 369 157 l 557 157 l 557 160 l 371 160 l 454 296 l 576 296 l 576 299 l 456 299 l 538 435 l 596 435 l 596 438 l 539 438 l 861 972 l 575 972 l 504 854 l 372 854 l 372 851 l 503 851 l 419 715 l 353 715 l 353 713 l 418 713 l 336 576 l 333 576 l 333 574 l 335 574 l -11 0 l 275 0 l 286 18 l 518 18 b 376 8 476 11 431 8 l 396 8 l 394 0 l 714 0 l 743 213 l 738 213 b 532 21 697 94 633 42 z m 501 964 l 490 964 l 492 972 l 176 972 l 117 782 l 122 782 b 501 964 208 950 304 964 z m 236 -121 l 518 -121 l 518 -118 l 236 -118 z m 217 -260 l 499 -260 l 499 -257 l 217 -257 z "},"Ź":{"ha":808,"x_min":0,"x_max":0,"o":"m 422 1125 l 426 1129 l 693 1129 l 693 1132 l 429 1132 l 583 1268 l 713 1268 l 713 1271 l 585 1271 l 638 1317 l 556 1317 l 519 1271 l 431 1271 l 431 1268 l 518 1268 l 411 1132 l 407 1125 z m 392 990 l 674 990 l 674 993 l 392 993 z m 532 21 l 288 21 l 369 157 l 557 157 l 557 160 l 371 160 l 454 296 l 576 296 l 576 299 l 456 299 l 538 435 l 596 435 l 596 438 l 539 438 l 861 972 l 575 972 l 504 854 l 372 854 l 372 851 l 503 851 l 419 715 l 353 715 l 353 713 l 418 713 l 336 576 l 333 576 l 333 574 l 335 574 l -11 0 l 275 0 l 286 18 l 518 18 b 376 8 476 11 431 8 l 396 8 l 394 0 l 714 0 l 743 213 l 738 213 b 532 21 697 94 633 42 z m 501 964 l 490 964 l 492 972 l 176 972 l 117 782 l 122 782 b 501 964 208 950 304 964 z m 236 -121 l 518 -121 l 518 -118 l 236 -118 z m 217 -260 l 499 -260 l 499 -257 l 217 -257 z "},"Ž":{"ha":808,"x_min":0,"x_max":0,"o":"m 411 1132 l 411 1129 l 465 1129 l 468 1125 l 550 1125 l 553 1129 l 693 1129 l 693 1132 l 556 1132 l 682 1268 l 713 1268 l 713 1271 l 683 1271 l 726 1317 l 711 1317 l 653 1271 l 431 1271 l 431 1268 l 650 1268 l 514 1161 l 360 1317 l 344 1317 l 463 1132 z m 392 990 l 674 990 l 674 993 l 392 993 z m 532 21 l 288 21 l 369 157 l 557 157 l 557 160 l 371 160 l 454 296 l 576 296 l 576 299 l 456 299 l 538 435 l 596 435 l 596 438 l 539 438 l 861 972 l 575 972 l 504 854 l 372 854 l 372 851 l 503 851 l 419 715 l 353 715 l 353 713 l 418 713 l 336 576 l 333 576 l 333 574 l 335 574 l -11 0 l 275 0 l 286 18 l 518 18 b 376 8 476 11 431 8 l 396 8 l 394 0 l 714 0 l 743 213 l 738 213 b 532 21 697 94 633 42 z m 501 964 l 490 964 l 492 972 l 176 972 l 117 782 l 122 782 b 501 964 208 950 304 964 z m 236 -121 l 518 -121 l 518 -118 l 236 -118 z m 217 -260 l 499 -260 l 499 -257 l 217 -257 z "},"Ż":{"ha":808,"x_min":0,"x_max":0,"o":"m 511 1142 b 629 1244 568 1142 621 1188 b 629 1268 631 1253 629 1261 l 713 1268 l 713 1271 l 629 1271 b 540 1349 624 1315 588 1349 b 421 1244 481 1349 429 1301 b 511 1142 413 1188 451 1142 z m 693 1132 l 411 1132 l 411 1129 l 693 1129 z m 392 990 l 674 990 l 674 993 l 392 993 z m 532 21 l 288 21 l 369 157 l 557 157 l 557 160 l 371 160 l 454 296 l 576 296 l 576 299 l 456 299 l 538 435 l 596 435 l 596 438 l 539 438 l 861 972 l 575 972 l 504 854 l 372 854 l 372 851 l 503 851 l 419 715 l 353 715 l 353 713 l 418 713 l 336 576 l 333 576 l 333 574 l 335 574 l -11 0 l 275 0 l 286 18 l 518 18 b 376 8 476 11 431 8 l 396 8 l 394 0 l 714 0 l 743 213 l 738 213 b 532 21 697 94 633 42 z m 501 964 l 490 964 l 492 972 l 176 972 l 117 782 l 122 782 b 501 964 208 950 304 964 z m 236 -121 l 518 -121 l 518 -118 l 236 -118 z m 217 -260 l 499 -260 l 499 -257 l 217 -257 z "},"a":{"ha":844,"x_min":0,"x_max":0,"o":"m 526 0 l 800 0 l 800 6 b 674 133 711 10 660 35 l 722 471 b 478 699 743 621 644 689 l 475 693 b 490 589 500 681 499 639 l 425 119 b 526 0 414 42 450 0 z m 210 433 b 328 529 283 433 321 479 b 321 589 332 556 331 572 b 308 644 313 610 306 626 b 347 689 310 656 311 675 l 347 693 b 125 529 207 671 135 596 b 210 433 118 472 153 433 z m 226 -6 b 374 22 289 -6 336 6 l 372 29 b 328 17 354 22 340 17 b 263 221 279 17 246 96 b 404 396 279 335 344 396 l 413 396 l 413 401 l 365 401 b 1 188 151 401 17 296 b 226 -6 -17 61 71 -6 z "},"á":{"ha":844,"x_min":0,"x_max":0,"o":"m 378 778 l 393 778 l 608 969 l 526 969 z m 526 0 l 800 0 l 800 6 b 674 133 711 10 660 35 l 722 471 b 478 699 743 621 644 689 l 475 693 b 490 589 500 681 499 639 l 425 119 b 526 0 414 42 450 0 z m 210 433 b 328 529 283 433 321 479 b 321 589 332 556 331 572 b 308 644 313 610 306 626 b 347 689 310 656 311 675 l 347 693 b 125 529 207 671 135 596 b 210 433 118 472 153 433 z m 226 -6 b 374 22 289 -6 336 6 l 372 29 b 328 17 354 22 340 17 b 263 221 279 17 246 96 b 404 396 279 335 344 396 l 413 396 l 413 401 l 365 401 b 1 188 151 401 17 296 b 226 -6 -17 61 71 -6 z "},"ă":{"ha":844,"x_min":0,"x_max":0,"o":"m 485 807 b 657 943 590 807 647 869 l 653 943 b 493 874 647 903 596 874 b 353 943 390 874 347 903 l 349 943 b 485 807 339 869 379 807 z m 526 0 l 800 0 l 800 6 b 674 133 711 10 660 35 l 722 471 b 478 699 743 621 644 689 l 475 693 b 490 589 500 681 499 639 l 425 119 b 526 0 414 42 450 0 z m 210 433 b 328 529 283 433 321 479 b 321 589 332 556 331 572 b 308 644 313 610 306 626 b 347 689 310 656 311 675 l 347 693 b 125 529 207 671 135 596 b 210 433 118 472 153 433 z m 226 -6 b 374 22 289 -6 336 6 l 372 29 b 328 17 354 22 340 17 b 263 221 279 17 246 96 b 404 396 279 335 344 396 l 413 396 l 413 401 l 365 401 b 1 188 151 401 17 296 b 226 -6 -17 61 71 -6 z "},"â":{"ha":844,"x_min":0,"x_max":0,"o":"m 289 778 l 304 778 l 501 933 l 656 778 l 671 778 l 547 969 l 465 969 z m 526 0 l 800 0 l 800 6 b 674 133 711 10 660 35 l 722 471 b 478 699 743 621 644 689 l 475 693 b 490 589 500 681 499 639 l 425 119 b 526 0 414 42 450 0 z m 210 433 b 328 529 283 433 321 479 b 321 589 332 556 331 572 b 308 644 313 610 306 626 b 347 689 310 656 311 675 l 347 693 b 125 529 207 671 135 596 b 210 433 118 472 153 433 z m 226 -6 b 374 22 289 -6 336 6 l 372 29 b 328 17 354 22 340 17 b 263 221 279 17 246 96 b 404 396 279 335 344 396 l 413 396 l 413 401 l 365 401 b 1 188 151 401 17 296 b 226 -6 -17 61 71 -6 z "},"ä":{"ha":844,"x_min":0,"x_max":0,"o":"m 379 807 b 458 878 418 807 453 838 b 399 947 464 917 438 947 b 318 878 358 947 324 917 b 379 807 313 838 339 807 z m 590 807 b 669 878 629 807 664 838 b 610 947 675 917 649 947 b 529 878 569 947 535 917 b 590 807 524 838 550 807 z m 526 0 l 800 0 l 800 6 b 674 133 711 10 660 35 l 722 471 b 478 699 743 621 644 689 l 475 693 b 490 589 500 681 499 639 l 425 119 b 526 0 414 42 450 0 z m 210 433 b 328 529 283 433 321 479 b 321 589 332 556 331 572 b 308 644 313 610 306 626 b 347 689 310 656 311 675 l 347 693 b 125 529 207 671 135 596 b 210 433 118 472 153 433 z m 226 -6 b 374 22 289 -6 336 6 l 372 29 b 328 17 354 22 340 17 b 263 221 279 17 246 96 b 404 396 279 335 344 396 l 413 396 l 413 401 l 365 401 b 1 188 151 401 17 296 b 226 -6 -17 61 71 -6 z "},"à":{"ha":844,"x_min":0,"x_max":0,"o":"m 567 778 l 582 778 l 486 969 l 404 969 z m 526 0 l 800 0 l 800 6 b 674 133 711 10 660 35 l 722 471 b 478 699 743 621 644 689 l 475 693 b 490 589 500 681 499 639 l 425 119 b 526 0 414 42 450 0 z m 210 433 b 328 529 283 433 321 479 b 321 589 332 556 331 572 b 308 644 313 610 306 626 b 347 689 310 656 311 675 l 347 693 b 125 529 207 671 135 596 b 210 433 118 472 153 433 z m 226 -6 b 374 22 289 -6 336 6 l 372 29 b 328 17 354 22 340 17 b 263 221 279 17 246 96 b 404 396 279 335 344 396 l 413 396 l 413 401 l 365 401 b 1 188 151 401 17 296 b 226 -6 -17 61 71 -6 z "},"ā":{"ha":844,"x_min":0,"x_max":0,"o":"m 333 864 l 650 864 l 654 888 l 338 888 z m 526 0 l 800 0 l 800 6 b 674 133 711 10 660 35 l 722 471 b 478 699 743 621 644 689 l 475 693 b 490 589 500 681 499 639 l 425 119 b 526 0 414 42 450 0 z m 210 433 b 328 529 283 433 321 479 b 321 589 332 556 331 572 b 308 644 313 610 306 626 b 347 689 310 656 311 675 l 347 693 b 125 529 207 671 135 596 b 210 433 118 472 153 433 z m 226 -6 b 374 22 289 -6 336 6 l 372 29 b 328 17 354 22 340 17 b 263 221 279 17 246 96 b 404 396 279 335 344 396 l 413 396 l 413 401 l 365 401 b 1 188 151 401 17 296 b 226 -6 -17 61 71 -6 z "},"ą":{"ha":844,"x_min":0,"x_max":0,"o":"m 800 0 l 800 6 b 674 133 711 10 660 35 l 722 471 b 478 699 743 621 644 689 l 475 693 b 490 589 500 681 499 639 l 425 119 b 522 0 414 43 449 1 b 479 -112 504 -25 488 -61 b 563 -258 467 -201 499 -258 b 669 -143 624 -258 661 -211 l 667 -142 b 593 -181 656 -175 631 -181 b 504 -76 521 -181 496 -142 b 535 0 507 -54 515 -29 z m 210 433 b 328 529 283 433 321 479 b 321 589 332 556 331 572 b 308 644 313 610 306 626 b 347 689 310 656 311 675 l 347 693 b 125 529 207 671 135 596 b 210 433 118 472 153 433 z m 328 17 b 263 221 279 17 246 96 b 404 396 279 335 344 396 l 413 396 l 413 401 l 365 401 b 1 188 151 401 17 296 b 226 -6 -17 61 71 -6 b 374 22 289 -6 336 6 l 372 29 b 328 17 354 22 340 17 z "},"å":{"ha":844,"x_min":0,"x_max":0,"o":"m 485 799 b 631 906 557 799 622 846 b 514 1011 639 964 586 1011 b 364 906 439 1011 372 964 b 485 799 356 846 410 799 z m 493 804 b 440 925 446 804 432 860 b 504 1006 449 976 474 1006 b 556 885 551 1006 565 950 b 493 804 549 833 524 804 z m 526 0 l 800 0 l 800 6 b 674 133 711 10 660 35 l 722 471 b 478 699 743 621 644 689 l 475 693 b 490 589 500 681 499 639 l 425 119 b 526 0 414 42 450 0 z m 210 433 b 328 529 283 433 321 479 b 321 589 332 556 331 572 b 308 644 313 610 306 626 b 347 689 310 656 311 675 l 347 693 b 125 529 207 671 135 596 b 210 433 118 472 153 433 z m 226 -6 b 374 22 289 -6 336 6 l 372 29 b 328 17 354 22 340 17 b 263 221 279 17 246 96 b 404 396 279 335 344 396 l 413 396 l 413 401 l 365 401 b 1 188 151 401 17 296 b 226 -6 -17 61 71 -6 z "},"ã":{"ha":844,"x_min":0,"x_max":0,"o":"m 574 778 b 714 914 661 778 704 840 l 710 914 b 622 829 703 865 665 829 b 528 876 581 829 557 850 b 408 928 496 904 460 928 b 267 792 321 928 276 865 l 271 792 b 360 876 278 840 317 876 b 454 829 401 876 424 856 b 574 778 485 801 522 778 z m 526 0 l 800 0 l 800 6 b 674 133 711 10 660 35 l 722 471 b 478 699 743 621 644 689 l 475 693 b 490 589 500 681 499 639 l 425 119 b 526 0 414 42 450 0 z m 210 433 b 328 529 283 433 321 479 b 321 589 332 556 331 572 b 308 644 313 610 306 626 b 347 689 310 656 311 675 l 347 693 b 125 529 207 671 135 596 b 210 433 118 472 153 433 z m 226 -6 b 374 22 289 -6 336 6 l 372 29 b 328 17 354 22 340 17 b 263 221 279 17 246 96 b 404 396 279 335 344 396 l 413 396 l 413 401 l 365 401 b 1 188 151 401 17 296 b 226 -6 -17 61 71 -6 z "},"æ":{"ha":1196,"x_min":0,"x_max":0,"o":"m 813 -14 b 1028 61 885 -14 957 10 l 1024 67 b 843 0 950 14 890 0 b 715 426 696 0 685 213 b 813 689 733 550 765 651 l 810 696 b 663 646 757 689 708 672 b 478 699 619 678 554 694 l 474 686 b 490 589 499 672 499 639 l 457 347 b 813 -14 428 140 567 -14 z m 753 321 l 1168 321 b 1174 361 1171 332 1171 338 b 933 694 1199 533 1086 664 l 931 686 b 957 374 971 626 971 474 b 942 328 951 339 947 328 l 754 328 z m 210 433 b 328 529 283 433 321 479 b 321 589 332 556 331 572 b 314 639 313 610 311 621 b 350 683 315 650 315 669 l 347 693 b 125 529 207 671 135 596 b 210 433 118 472 153 433 z m 226 -6 b 374 22 289 -6 336 6 l 372 29 b 328 17 354 22 340 17 b 263 221 279 17 246 96 b 404 396 279 335 344 396 l 413 396 l 413 401 l 365 401 b 1 188 151 401 17 296 b 226 -6 -17 61 71 -6 z "},"b":{"ha":874,"x_min":0,"x_max":0,"o":"m 763 1271 l 481 1271 l 481 1268 l 763 1268 z m 743 1132 l 461 1132 l 461 1129 l 743 1129 z m 850 347 b 490 694 878 542 715 693 l 490 689 l 492 689 b 603 576 543 689 582 657 l 419 576 l 439 713 l 685 713 l 685 715 l 439 715 l 458 851 l 704 851 l 704 854 l 458 854 l 478 990 l 724 990 l 724 993 l 478 993 l 485 1042 l 93 1042 l 93 1036 b 218 908 181 1032 232 1007 l 108 133 b -53 6 94 35 38 10 l -53 0 l 339 0 l 342 18 l 511 18 b 457 8 494 11 478 8 b 408 14 440 8 425 11 l 407 6 b 456 0 421 3 438 0 b 558 18 489 0 524 7 l 588 18 l 588 21 l 565 21 b 850 347 699 68 829 194 z m 486 694 l 490 694 z m 604 574 b 617 438 613 538 618 493 l 400 438 l 419 574 z m 381 299 l 400 435 l 618 435 b 608 299 618 394 614 350 z m 601 235 b 588 160 597 207 593 182 l 361 160 l 381 296 l 608 296 b 601 235 607 276 604 256 z m 342 21 l 361 157 l 588 157 b 515 21 571 79 550 39 z m 286 -121 l 568 -121 l 568 -118 l 286 -118 z m 267 -260 l 549 -260 l 549 -257 l 267 -257 z "},"c":{"ha":731,"x_min":0,"x_max":0,"o":"m 679 1271 l 397 1271 l 397 1268 l 679 1268 z m 660 1132 l 378 1132 l 378 1129 l 660 1129 z m 640 993 l 358 993 l 358 990 l 640 990 z m 621 854 l 339 854 l 339 851 l 621 851 z m 601 715 l 319 715 l 319 713 l 601 713 z m 490 21 l 361 21 b 279 157 317 42 292 93 l 524 157 l 524 160 l 279 160 b 271 296 271 201 269 247 l 543 296 l 543 299 l 271 299 b 282 426 271 340 276 385 l 283 435 l 563 435 l 563 438 l 283 438 b 314 574 290 489 300 535 l 582 574 l 582 576 l 314 576 b 404 689 333 632 361 672 l 403 696 b 24 349 219 671 49 525 b 222 21 3 199 86 75 l 222 18 l 228 18 b 383 -10 275 0 328 -10 b 639 89 496 -10 578 35 l 633 94 b 490 21 589 58 538 33 z m 522 693 l 519 686 b 683 419 604 653 656 546 l 689 419 l 704 694 l 699 694 b 644 657 694 676 679 657 b 589 672 632 657 617 661 b 522 693 564 682 543 689 z m 368 18 l 479 18 b 413 10 456 13 433 10 b 368 18 396 10 381 13 z m 203 -121 l 485 -121 l 485 -118 l 203 -118 z m 183 -260 l 465 -260 l 465 -257 l 183 -257 z "},"ć":{"ha":731,"x_min":0,"x_max":0,"o":"m 679 1271 l 397 1271 l 397 1268 l 679 1268 z m 660 1132 l 378 1132 l 378 1129 l 660 1129 z m 346 847 l 361 847 l 365 851 l 621 851 l 621 854 l 368 854 l 522 990 l 640 990 l 640 993 l 524 993 l 576 1039 l 494 1039 l 458 993 l 358 993 l 358 990 l 457 990 l 350 854 l 339 854 l 339 851 l 349 851 z m 601 715 l 319 715 l 319 713 l 601 713 z m 490 21 l 361 21 b 279 157 317 42 292 93 l 524 157 l 524 160 l 279 160 b 271 296 271 201 269 247 l 543 296 l 543 299 l 271 299 b 282 426 271 340 276 385 l 283 435 l 563 435 l 563 438 l 283 438 b 314 574 290 489 300 535 l 582 574 l 582 576 l 314 576 b 404 689 333 632 361 672 l 403 696 b 24 349 219 671 49 525 b 222 21 3 199 86 75 l 222 18 l 228 18 b 383 -10 275 0 328 -10 b 639 89 496 -10 578 35 l 633 94 b 490 21 589 58 538 33 z m 522 693 l 519 686 b 683 419 604 653 656 546 l 689 419 l 704 694 l 699 694 b 644 657 694 676 679 657 b 589 672 632 657 617 661 b 522 693 564 682 543 689 z m 368 18 l 479 18 b 413 10 456 13 433 10 b 368 18 396 10 381 13 z m 203 -121 l 485 -121 l 485 -118 l 203 -118 z m 183 -260 l 465 -260 l 465 -257 l 183 -257 z "},"č":{"ha":731,"x_min":0,"x_max":0,"o":"m 679 1271 l 397 1271 l 397 1268 l 679 1268 z m 660 1132 l 378 1132 l 378 1129 l 660 1129 z m 339 854 l 339 851 l 404 851 l 407 847 l 489 847 l 492 851 l 621 851 l 621 854 l 494 854 l 621 990 l 640 990 l 640 993 l 622 993 l 665 1039 l 650 1039 l 592 993 l 358 993 l 358 990 l 589 990 l 453 883 l 299 1039 l 283 1039 l 401 854 z m 601 715 l 319 715 l 319 713 l 601 713 z m 490 21 l 361 21 b 279 157 317 42 292 93 l 524 157 l 524 160 l 279 160 b 271 296 271 201 269 247 l 543 296 l 543 299 l 271 299 b 282 426 271 340 276 385 l 283 435 l 563 435 l 563 438 l 283 438 b 314 574 290 489 300 535 l 582 574 l 582 576 l 314 576 b 404 689 333 632 361 672 l 403 696 b 24 349 219 671 49 525 b 222 21 3 199 86 75 l 222 18 l 228 18 b 383 -10 275 0 328 -10 b 639 89 496 -10 578 35 l 633 94 b 490 21 589 58 538 33 z m 522 693 l 519 686 b 683 419 604 653 656 546 l 689 419 l 704 694 l 699 694 b 644 657 694 676 679 657 b 589 672 632 657 617 661 b 522 693 564 682 543 689 z m 368 18 l 479 18 b 413 10 456 13 433 10 b 368 18 396 10 381 13 z m 203 -121 l 485 -121 l 485 -118 l 203 -118 z m 183 -260 l 465 -260 l 465 -257 l 183 -257 z "},"ç":{"ha":731,"x_min":0,"x_max":0,"o":"m 679 1271 l 397 1271 l 397 1268 l 679 1268 z m 660 1132 l 378 1132 l 378 1129 l 660 1129 z m 640 993 l 358 993 l 358 990 l 640 990 z m 621 854 l 339 854 l 339 851 l 621 851 z m 601 715 l 319 715 l 319 713 l 601 713 z m 490 21 l 361 21 b 279 157 317 42 292 93 l 524 157 l 524 160 l 279 160 b 271 296 271 201 269 247 l 543 296 l 543 299 l 271 299 b 282 426 271 340 276 385 l 283 435 l 563 435 l 563 438 l 283 438 b 314 574 290 489 300 535 l 582 574 l 582 576 l 314 576 b 404 689 333 632 361 672 l 403 696 b 24 349 219 671 49 525 b 222 21 3 199 86 75 l 222 18 l 228 18 b 310 -4 254 8 281 1 l 261 -72 l 265 -72 b 335 -53 285 -58 310 -53 l 365 -10 l 383 -10 b 639 89 496 -10 578 35 l 633 94 b 490 21 589 58 538 33 z m 522 693 l 519 686 b 683 419 604 653 656 546 l 689 419 l 704 694 l 699 694 b 644 657 694 676 679 657 b 589 672 632 657 617 661 b 522 693 564 682 543 689 z m 368 18 l 479 18 b 413 10 456 13 433 10 b 368 18 396 10 381 13 z m 357 -50 l 354 -54 b 385 -118 386 -60 389 -83 l 203 -118 l 203 -121 l 385 -121 l 383 -122 b 264 -233 374 -194 329 -233 b 181 -207 239 -233 213 -228 l 178 -211 b 299 -244 201 -226 238 -244 b 460 -142 388 -244 450 -206 b 461 -121 460 -135 461 -128 l 485 -121 l 485 -118 l 460 -118 b 357 -50 456 -72 415 -50 z m 183 -260 l 465 -260 l 465 -257 l 183 -257 z "},"ċ":{"ha":731,"x_min":0,"x_max":0,"o":"m 679 1271 l 397 1271 l 397 1268 l 679 1268 z m 660 1132 l 378 1132 l 378 1129 l 660 1129 z m 360 967 b 450 864 351 910 390 864 b 568 967 507 864 560 910 b 568 990 569 975 568 983 l 640 990 l 640 993 l 568 993 b 479 1071 563 1038 526 1071 b 365 993 429 1071 385 1038 l 358 993 l 358 990 l 365 990 b 360 967 363 983 361 975 z m 621 854 l 339 854 l 339 851 l 621 851 z m 601 715 l 319 715 l 319 713 l 601 713 z m 490 21 l 361 21 b 279 157 317 42 292 93 l 524 157 l 524 160 l 279 160 b 271 296 271 201 269 247 l 543 296 l 543 299 l 271 299 b 282 426 271 340 276 385 l 283 435 l 563 435 l 563 438 l 283 438 b 314 574 290 489 300 535 l 582 574 l 582 576 l 314 576 b 404 689 333 632 361 672 l 403 696 b 24 349 219 671 49 525 b 222 21 3 199 86 75 l 222 18 l 228 18 b 383 -10 275 0 328 -10 b 639 89 496 -10 578 35 l 633 94 b 490 21 589 58 538 33 z m 522 693 l 519 686 b 683 419 604 653 656 546 l 689 419 l 704 694 l 699 694 b 644 657 694 676 679 657 b 589 672 632 657 617 661 b 522 693 564 682 543 689 z m 368 18 l 479 18 b 413 10 456 13 433 10 b 368 18 396 10 381 13 z m 203 -121 l 485 -121 l 485 -118 l 203 -118 z m 183 -260 l 465 -260 l 465 -257 l 183 -257 z "},"d":{"ha":874,"x_min":0,"x_max":0,"o":"m 438 0 l 829 0 l 829 6 b 703 133 744 10 689 35 l 831 1042 l 439 1042 l 439 1036 b 565 908 528 1032 579 1007 z m 351 0 b 374 1 358 0 367 0 l 374 10 b 360 8 369 8 365 8 b 267 396 288 8 231 140 b 471 689 297 617 349 689 l 482 689 l 482 694 l 471 694 b 24 347 251 694 51 542 b 351 0 -4 153 161 0 z "},"ð":{"ha":857,"x_min":0,"x_max":0,"o":"m 458 -4 b 843 406 663 22 808 157 b 792 904 871 607 856 786 l 864 929 l 863 938 l 788 913 b 561 1042 739 993 664 1042 l 358 1042 l 358 1035 b 571 838 467 1031 532 951 l 453 796 l 456 788 l 574 828 b 589 356 613 699 613 522 b 460 1 567 194 543 44 z m 350 -7 l 353 -1 b 283 428 275 47 257 242 b 486 696 307 594 371 696 b 539 692 504 696 524 694 l 538 697 b 478 703 522 701 500 703 b 24 347 253 703 51 543 b 350 -7 -3 158 140 4 z "},"ď":{"ha":874,"x_min":0,"x_max":0,"o":"m 501 1111 l 583 1111 l 761 1303 l 746 1303 l 549 1147 l 394 1303 l 379 1303 z m 438 0 l 829 0 l 829 6 b 703 133 744 10 689 35 l 831 1042 l 439 1042 l 439 1036 b 565 908 528 1032 579 1007 z m 351 0 b 374 1 358 0 367 0 l 374 10 b 360 8 369 8 365 8 b 267 396 288 8 231 140 b 471 689 297 617 349 689 l 482 689 l 482 694 l 471 694 b 24 347 251 694 51 542 b 351 0 -4 153 161 0 z "},"đ":{"ha":874,"x_min":0,"x_max":0,"o":"m 703 133 l 799 815 l 906 815 l 907 824 l 800 824 l 831 1042 l 439 1042 l 439 1036 b 565 908 528 1032 579 1007 l 553 824 l 382 824 l 381 815 l 551 815 l 438 0 l 829 0 l 829 6 b 703 133 744 10 689 35 z m 24 347 b 351 0 -4 153 161 0 b 374 1 358 0 367 0 l 374 10 b 360 8 369 8 365 8 b 267 396 288 8 231 140 b 471 689 297 617 349 689 l 482 689 l 482 694 l 471 694 b 24 347 251 694 51 542 z "},"e":{"ha":763,"x_min":0,"x_max":0,"o":"m 379 -14 b 594 61 451 -14 524 10 l 590 67 b 408 0 515 14 456 0 b 282 426 261 0 251 213 b 379 689 300 550 332 651 l 376 696 b 24 347 197 672 49 524 b 379 -14 -6 140 133 -14 z m 319 321 l 735 321 l 740 361 b 500 694 765 533 651 664 l 497 686 b 522 374 538 626 536 474 b 507 328 517 339 513 328 l 321 328 z "},"é":{"ha":763,"x_min":0,"x_max":0,"o":"m 353 778 l 368 778 l 583 969 l 501 969 z m 379 -14 b 594 61 451 -14 524 10 l 590 67 b 408 0 515 14 456 0 b 282 426 261 0 251 213 b 379 689 300 550 332 651 l 376 696 b 24 347 197 672 49 524 b 379 -14 -6 140 133 -14 z m 319 321 l 735 321 l 740 361 b 500 694 765 533 651 664 l 497 686 b 522 374 538 626 536 474 b 507 328 517 339 513 328 l 321 328 z "},"ě":{"ha":763,"x_min":0,"x_max":0,"o":"m 414 778 l 496 778 l 672 969 l 657 969 l 460 814 l 306 969 l 290 969 z m 379 -14 b 594 61 451 -14 524 10 l 590 67 b 408 0 515 14 456 0 b 282 426 261 0 251 213 b 379 689 300 550 332 651 l 376 696 b 24 347 197 672 49 524 b 379 -14 -6 140 133 -14 z m 319 321 l 735 321 l 740 361 b 500 694 765 533 651 664 l 497 686 b 522 374 538 626 536 474 b 507 328 517 339 513 328 l 321 328 z "},"ê":{"ha":763,"x_min":0,"x_max":0,"o":"m 265 778 l 281 778 l 478 933 l 632 778 l 647 778 l 524 969 l 442 969 z m 379 -14 b 594 61 451 -14 524 10 l 590 67 b 408 0 515 14 456 0 b 282 426 261 0 251 213 b 379 689 300 550 332 651 l 376 696 b 24 347 197 672 49 524 b 379 -14 -6 140 133 -14 z m 319 321 l 735 321 l 740 361 b 500 694 765 533 651 664 l 497 686 b 522 374 538 626 536 474 b 507 328 517 339 513 328 l 321 328 z "},"ë":{"ha":763,"x_min":0,"x_max":0,"o":"m 354 807 b 433 878 393 807 428 838 b 374 947 439 917 413 947 b 293 878 333 947 299 917 b 354 807 288 838 314 807 z m 565 807 b 644 878 604 807 639 838 b 585 947 650 917 624 947 b 504 878 544 947 510 917 b 565 807 499 838 525 807 z m 379 -14 b 594 61 451 -14 524 10 l 590 67 b 408 0 515 14 456 0 b 282 426 261 0 251 213 b 379 689 300 550 332 651 l 376 696 b 24 347 197 672 49 524 b 379 -14 -6 140 133 -14 z m 319 321 l 735 321 l 740 361 b 500 694 765 533 651 664 l 497 686 b 522 374 538 626 536 474 b 507 328 517 339 513 328 l 321 328 z "},"ė":{"ha":763,"x_min":0,"x_max":0,"o":"m 458 794 b 576 897 515 794 568 840 b 488 1001 583 954 544 1001 b 368 897 428 1001 375 954 b 458 794 360 840 399 794 z m 379 -14 b 594 61 451 -14 524 10 l 590 67 b 408 0 515 14 456 0 b 282 426 261 0 251 213 b 379 689 300 550 332 651 l 376 696 b 24 347 197 672 49 524 b 379 -14 -6 140 133 -14 z m 319 321 l 735 321 l 740 361 b 500 694 765 533 651 664 l 497 686 b 522 374 538 626 536 474 b 507 328 517 339 513 328 l 321 328 z "},"è":{"ha":763,"x_min":0,"x_max":0,"o":"m 542 778 l 557 778 l 461 969 l 379 969 z m 379 -14 b 594 61 451 -14 524 10 l 590 67 b 408 0 515 14 456 0 b 282 426 261 0 251 213 b 379 689 300 550 332 651 l 376 696 b 24 347 197 672 49 524 b 379 -14 -6 140 133 -14 z m 319 321 l 735 321 l 740 361 b 500 694 765 533 651 664 l 497 686 b 522 374 538 626 536 474 b 507 328 517 339 513 328 l 321 328 z "},"ē":{"ha":763,"x_min":0,"x_max":0,"o":"m 310 864 l 626 864 l 631 888 l 314 888 z m 379 -14 b 594 61 451 -14 524 10 l 590 67 b 408 0 515 14 456 0 b 282 426 261 0 251 213 b 379 689 300 550 332 651 l 376 696 b 24 347 197 672 49 524 b 379 -14 -6 140 133 -14 z m 319 321 l 735 321 l 740 361 b 500 694 765 533 651 664 l 497 686 b 522 374 538 626 536 474 b 507 328 517 339 513 328 l 321 328 z "},"ę":{"ha":763,"x_min":0,"x_max":0,"o":"m 582 -169 b 493 -65 510 -169 485 -131 b 532 22 497 -40 507 -12 l 531 22 b 594 61 551 33 574 46 l 590 67 b 408 0 515 14 456 0 b 282 426 261 0 251 213 b 379 689 300 550 332 651 l 376 696 b 24 347 197 672 49 524 b 379 -14 -6 140 133 -14 b 513 14 424 -14 468 -6 b 469 -101 496 -12 476 -49 b 551 -247 457 -190 488 -247 b 660 -132 613 -247 650 -200 l 656 -131 b 582 -169 644 -164 619 -169 z m 500 694 l 497 686 b 522 374 538 626 536 474 b 507 328 517 339 513 328 l 321 328 l 319 321 l 735 321 l 740 361 b 500 694 765 533 651 664 z "},"f":{"ha":526,"x_min":0,"x_max":0,"o":"m 615 792 b 728 889 674 792 719 833 b 532 1047 742 989 636 1047 l 531 1042 b 575 994 557 1042 581 1032 b 553 953 574 982 567 974 b 524 889 540 936 528 917 b 615 792 517 839 540 792 z m -53 0 l 482 0 l 482 6 b 357 133 394 10 343 35 l 435 688 l 546 688 l 547 694 l 436 694 l 486 1046 b 197 761 342 1029 221 931 l 188 694 l 76 694 l 75 688 l 186 688 l 108 133 b -53 6 94 35 38 10 z "},"g":{"ha":874,"x_min":0,"x_max":0,"o":"m 351 0 b 400 6 369 0 385 1 l 399 14 b 360 8 388 10 374 8 b 267 396 288 8 231 140 b 471 689 297 617 349 689 l 482 689 l 482 694 l 471 694 b 24 347 251 694 51 542 b 351 0 -4 153 161 0 z m 281 -329 b 679 -39 494 -329 650 -247 l 764 561 b 926 689 778 660 835 685 l 926 694 l 535 694 l 403 -247 b 281 -324 394 -304 357 -324 b 176 -268 242 -324 169 -317 b 197 -224 178 -254 183 -242 b 224 -161 213 -206 219 -189 b 132 -65 231 -111 207 -65 b 18 -162 74 -65 26 -104 b 281 -329 3 -275 161 -329 z "},"ğ":{"ha":874,"x_min":0,"x_max":0,"o":"m 517 876 b 689 1013 622 876 679 939 l 685 1013 b 525 943 679 972 628 943 b 385 1013 422 943 379 972 l 381 1013 b 517 876 371 939 411 876 z m 351 0 b 400 6 369 0 385 1 l 399 14 b 360 8 388 10 374 8 b 267 396 288 8 231 140 b 471 689 297 617 349 689 l 482 689 l 482 694 l 471 694 b 24 347 251 694 51 542 b 351 0 -4 153 161 0 z m 281 -329 b 679 -39 494 -329 650 -247 l 764 561 b 926 689 778 660 835 685 l 926 694 l 535 694 l 403 -247 b 281 -324 394 -304 357 -324 b 176 -268 242 -324 169 -317 b 197 -224 178 -254 183 -242 b 224 -161 213 -206 219 -189 b 132 -65 231 -111 207 -65 b 18 -162 74 -65 26 -104 b 281 -329 3 -275 161 -329 z "},"ģ":{"ha":874,"x_min":0,"x_max":0,"o":"m 510 838 b 599 913 554 838 593 872 b 569 982 603 943 593 961 b 547 1026 553 997 544 1010 b 593 1090 550 1049 563 1064 l 592 1094 b 443 919 508 1053 453 988 b 510 838 436 872 467 838 z m 351 0 b 400 6 369 0 385 1 l 399 14 b 360 8 388 10 374 8 b 267 396 288 8 231 140 b 471 689 297 617 349 689 l 482 689 l 482 694 l 471 694 b 24 347 251 694 51 542 b 351 0 -4 153 161 0 z m 281 -329 b 679 -39 494 -329 650 -247 l 764 561 b 926 689 778 660 835 685 l 926 694 l 535 694 l 403 -247 b 281 -324 394 -304 357 -324 b 176 -268 242 -324 169 -317 b 197 -224 178 -254 183 -242 b 224 -161 213 -206 219 -189 b 132 -65 231 -111 207 -65 b 18 -162 74 -65 26 -104 b 281 -329 3 -275 161 -329 z "},"ġ":{"ha":874,"x_min":0,"x_max":0,"o":"m 514 864 b 632 967 571 864 624 910 b 543 1071 639 1024 600 1071 b 424 967 483 1071 431 1024 b 514 864 415 910 454 864 z m 351 0 b 400 6 369 0 385 1 l 399 14 b 360 8 388 10 374 8 b 267 396 288 8 231 140 b 471 689 297 617 349 689 l 482 689 l 482 694 l 471 694 b 24 347 251 694 51 542 b 351 0 -4 153 161 0 z m 281 -329 b 679 -39 494 -329 650 -247 l 764 561 b 926 689 778 660 835 685 l 926 694 l 535 694 l 403 -247 b 281 -324 394 -304 357 -324 b 176 -268 242 -324 169 -317 b 197 -224 178 -254 183 -242 b 224 -161 213 -206 219 -189 b 132 -65 231 -111 207 -65 b 18 -162 74 -65 26 -104 b 281 -329 3 -275 161 -329 z "},"h":{"ha":1015,"x_min":0,"x_max":0,"o":"m -53 0 l 436 0 l 436 6 b 357 133 394 10 343 35 l 485 1042 l 93 1042 l 93 1036 b 218 908 181 1032 232 1007 l 108 133 b -53 6 94 35 38 10 z m 482 0 l 972 0 l 972 6 b 846 133 883 10 832 35 l 894 476 b 661 707 914 611 814 707 b 499 657 603 707 547 689 l 504 649 b 625 690 544 676 590 690 b 669 632 665 690 675 671 l 599 133 b 482 6 585 35 528 10 z "},"ħ":{"ha":1013,"x_min":0,"x_max":0,"o":"m 357 133 l 464 890 l 594 890 l 596 899 l 465 899 l 485 1042 l 93 1042 l 93 1036 b 218 908 181 1032 232 1007 l 217 899 l 86 899 l 85 890 l 215 890 l 108 133 b -53 6 94 35 38 10 l -53 0 l 436 0 l 436 6 b 357 133 394 10 343 35 z m 842 133 l 890 476 b 657 707 910 611 811 707 b 494 657 599 707 544 689 l 501 649 b 621 690 542 676 588 690 b 665 632 663 690 671 671 l 594 133 b 479 6 581 35 524 10 l 479 0 l 968 0 l 968 6 b 842 133 879 10 828 35 z "},"i":{"ha":526,"x_min":0,"x_max":0,"o":"m 322 772 b 439 875 379 772 432 818 b 351 979 447 932 408 979 b 231 875 292 979 239 932 b 322 772 224 818 263 772 z m -53 0 l 482 0 l 482 6 b 357 133 394 10 343 35 l 436 694 l 86 694 l 86 689 b 169 561 132 685 183 660 l 108 133 b -53 6 94 35 38 10 z "},"ı":{"ha":526,"x_min":0,"x_max":0,"o":"m -53 0 l 482 0 l 482 6 b 357 133 394 10 343 35 l 436 694 l 86 694 l 86 689 b 169 561 132 685 183 660 l 108 133 b -53 6 94 35 38 10 z "},"í":{"ha":526,"x_min":0,"x_max":0,"o":"m 217 756 l 232 756 l 449 947 l 367 947 z m -53 0 l 482 0 l 482 6 b 357 133 394 10 343 35 l 436 694 l 86 694 l 86 689 b 169 561 132 685 183 660 l 108 133 b -53 6 94 35 38 10 z "},"î":{"ha":526,"x_min":0,"x_max":0,"o":"m 128 756 l 143 756 l 342 911 l 494 756 l 510 756 l 388 947 l 306 947 z m -53 0 l 482 0 l 482 6 b 357 133 394 10 343 35 l 436 694 l 86 694 l 86 689 b 169 561 132 685 183 660 l 108 133 b -53 6 94 35 38 10 z "},"ï":{"ha":526,"x_min":0,"x_max":0,"o":"m 218 785 b 297 856 257 785 292 815 b 238 925 303 894 276 925 b 157 856 197 925 163 894 b 218 785 151 815 178 785 z m 429 785 b 508 856 468 785 503 815 b 449 925 514 894 488 925 b 368 856 408 925 374 894 b 429 785 363 815 389 785 z m -53 0 l 482 0 l 482 6 b 357 133 394 10 343 35 l 436 694 l 86 694 l 86 689 b 169 561 132 685 183 660 l 108 133 b -53 6 94 35 38 10 z "},"ì":{"ha":526,"x_min":0,"x_max":0,"o":"m 406 756 l 421 756 l 326 947 l 244 947 z m -53 0 l 482 0 l 482 6 b 357 133 394 10 343 35 l 436 694 l 86 694 l 86 689 b 169 561 132 685 183 660 l 108 133 b -53 6 94 35 38 10 z "},"ī":{"ha":526,"x_min":0,"x_max":0,"o":"m 174 842 l 490 842 l 493 865 l 176 865 z m -53 0 l 482 0 l 482 6 b 357 133 394 10 343 35 l 436 694 l 86 694 l 86 689 b 169 561 132 685 183 660 l 108 133 b -53 6 94 35 38 10 z "},"į":{"ha":526,"x_min":0,"x_max":0,"o":"m 322 772 b 439 875 379 772 432 818 b 351 979 447 932 408 979 b 231 875 292 979 239 932 b 322 772 224 818 263 772 z m 482 0 l 482 6 b 357 133 394 10 343 35 l 436 694 l 86 694 l 86 689 b 169 561 132 685 183 660 l 108 133 b -53 6 94 35 38 10 l -53 0 l 239 0 b 196 -112 221 -26 204 -61 b 279 -258 183 -201 215 -258 b 386 -143 340 -258 378 -211 l 383 -142 b 310 -181 372 -175 347 -181 b 221 -76 238 -181 213 -142 b 251 0 224 -54 232 -29 z "},"j":{"ha":603,"x_min":0,"x_max":0,"o":"m 393 772 b 511 875 451 772 504 818 b 422 979 519 932 481 979 b 303 875 364 979 311 932 b 393 772 296 818 335 772 z m 115 -310 b 404 -21 269 -294 378 -207 l 504 694 l 113 694 l 113 689 b 238 561 200 685 251 660 z m 61 -311 l 63 -306 b -1 -254 -7 -306 -3 -269 b 21 -210 1 -240 7 -228 b 47 -147 35 -192 43 -175 b -44 -44 54 -97 31 -44 b -156 -142 -103 -44 -149 -85 b 61 -311 -172 -251 -54 -311 z "},"ȷ":{"ha":603,"x_min":0,"x_max":0,"o":"m 115 -310 b 404 -21 269 -294 378 -207 l 504 694 l 113 694 l 113 689 b 238 561 200 685 251 660 z m 61 -311 l 63 -306 b -1 -254 -7 -306 -3 -269 b 21 -210 1 -240 7 -228 b 47 -147 35 -192 43 -175 b -44 -44 54 -97 31 -44 b -156 -142 -103 -44 -149 -85 b 61 -311 -172 -251 -54 -311 z "},"k":{"ha":944,"x_min":0,"x_max":0,"o":"m -53 0 l 464 0 l 464 6 b 357 133 394 10 343 35 l 485 1042 l 93 1042 l 93 1036 b 218 908 181 1032 232 1007 l 108 133 b -53 6 94 35 38 10 z m 551 0 l 915 0 l 915 6 b 738 157 861 6 789 51 l 572 488 b 931 689 742 665 826 682 l 931 694 l 543 694 l 543 689 b 635 617 599 685 643 678 b 393 313 628 561 599 522 z "},"ķ":{"ha":944,"x_min":0,"x_max":0,"o":"m -53 0 l 464 0 l 464 6 b 357 133 394 10 343 35 l 485 1042 l 93 1042 l 93 1036 b 218 908 181 1032 232 1007 l 108 133 b -53 6 94 35 38 10 z m 551 0 l 915 0 l 915 6 b 738 157 861 6 789 51 l 572 488 b 931 689 742 665 826 682 l 931 694 l 543 694 l 543 689 b 635 617 599 685 643 678 b 393 313 628 561 599 522 z m 357 -315 b 506 -140 439 -274 496 -208 b 439 -58 511 -93 482 -58 b 349 -133 394 -58 354 -93 b 378 -203 344 -164 354 -182 b 401 -247 396 -218 404 -231 b 354 -311 399 -269 386 -285 z "},"l":{"ha":526,"x_min":0,"x_max":0,"o":"m -53 0 l 482 0 l 482 6 b 357 133 397 10 343 35 l 485 1042 l 93 1042 l 93 1036 b 218 908 181 1032 232 1007 l 108 133 b -53 6 94 35 38 10 z "},"ĺ":{"ha":526,"x_min":0,"x_max":0,"o":"m 260 1111 l 275 1111 l 492 1303 l 410 1303 z m -53 0 l 482 0 l 482 6 b 357 133 397 10 343 35 l 485 1042 l 93 1042 l 93 1036 b 218 908 181 1032 232 1007 l 108 133 b -53 6 94 35 38 10 z "},"ľ":{"ha":526,"x_min":0,"x_max":0,"o":"m 321 1111 l 403 1111 l 581 1303 l 565 1303 l 368 1147 l 214 1303 l 199 1303 z m -53 0 l 482 0 l 482 6 b 357 133 397 10 343 35 l 485 1042 l 93 1042 l 93 1036 b 218 908 181 1032 232 1007 l 108 133 b -53 6 94 35 38 10 z "},"ļ":{"ha":526,"x_min":0,"x_max":0,"o":"m -53 0 l 482 0 l 482 6 b 357 133 397 10 343 35 l 485 1042 l 93 1042 l 93 1036 b 218 908 181 1032 232 1007 l 108 133 b -53 6 94 35 38 10 z m 126 -315 b 275 -140 208 -274 265 -208 b 208 -58 281 -93 251 -58 b 118 -133 164 -58 124 -93 b 147 -203 114 -164 124 -182 b 171 -247 165 -218 174 -231 b 124 -311 168 -269 156 -285 z "},"ł":{"ha":526,"x_min":0,"x_max":0,"o":"m 357 133 l 426 626 l 513 678 l 507 688 l 429 640 l 485 1042 l 93 1042 l 93 1036 b 218 908 181 1032 232 1007 l 157 481 l 69 428 l 75 418 l 156 465 l 108 133 b -53 6 94 35 38 10 l -53 0 l 482 0 l 482 6 b 357 133 397 10 343 35 z "},"m":{"ha":1450,"x_min":0,"x_max":0,"o":"m 474 0 l 879 0 l 879 6 b 818 133 856 10 804 35 l 867 476 b 633 707 886 611 786 707 b 482 664 578 707 526 692 l 486 656 b 597 690 525 679 565 690 b 642 632 638 690 647 671 l 571 133 b 474 6 557 35 500 10 z m 917 0 l 1406 0 l 1406 6 b 1279 133 1317 10 1265 35 l 1328 476 b 1094 707 1347 611 1249 707 b 911 640 1026 707 961 681 l 915 632 b 1058 690 964 672 1018 690 b 1103 632 1100 690 1108 671 l 1032 133 b 917 6 1018 35 961 10 z m -53 0 l 436 0 l 436 6 b 357 133 394 10 343 35 l 436 694 l 44 694 l 44 689 b 169 561 132 685 183 660 l 108 133 b -53 6 94 35 38 10 z "},"n":{"ha":1015,"x_min":0,"x_max":0,"o":"m 776 1271 l 494 1271 l 494 1268 l 776 1268 z m 757 1132 l 475 1132 l 475 1129 l 757 1129 z m 738 993 l 456 993 l 456 990 l 738 990 z m 718 854 l 436 854 l 436 851 l 718 851 z m 699 715 l 417 715 l 417 713 l 699 713 z m 846 133 l 894 476 b 661 707 914 611 814 707 b 508 663 606 707 553 689 l 514 654 b 625 690 553 679 593 690 b 669 632 665 690 675 671 l 661 576 l 419 576 l 436 694 l 44 694 l 44 689 b 169 561 132 685 183 660 l 108 133 b -53 6 94 35 38 10 l -53 0 l 426 0 l 426 6 b 393 18 417 7 404 11 l 532 18 b 492 6 518 11 504 7 l 492 0 l 972 0 l 972 6 b 846 133 883 10 832 35 z m 661 574 l 642 438 l 400 438 l 419 574 z m 381 299 l 400 435 l 642 435 l 622 299 z m 622 296 l 603 160 l 361 160 l 381 296 z m 389 21 b 357 133 367 38 349 71 l 361 157 l 603 157 l 599 133 b 536 21 590 71 564 38 z m 300 -121 l 582 -121 l 582 -118 l 300 -118 z m 281 -260 l 563 -260 l 563 -257 l 281 -257 z "},"ń":{"ha":1015,"x_min":0,"x_max":0,"o":"m 776 1271 l 494 1271 l 494 1268 l 776 1268 z m 757 1132 l 475 1132 l 475 1129 l 757 1129 z m 474 847 l 489 847 l 493 851 l 718 851 l 718 854 l 496 854 l 650 990 l 738 990 l 738 993 l 651 993 l 704 1039 l 622 1039 l 586 993 l 456 993 l 456 990 l 585 990 l 478 854 l 436 854 l 436 851 l 476 851 z m 699 715 l 417 715 l 417 713 l 699 713 z m 846 133 l 894 476 b 661 707 914 611 814 707 b 508 663 606 707 553 689 l 514 654 b 625 690 553 679 593 690 b 669 632 665 690 675 671 l 661 576 l 419 576 l 436 694 l 44 694 l 44 689 b 169 561 132 685 183 660 l 108 133 b -53 6 94 35 38 10 l -53 0 l 426 0 l 426 6 b 393 18 417 7 404 11 l 532 18 b 492 6 518 11 504 7 l 492 0 l 972 0 l 972 6 b 846 133 883 10 832 35 z m 661 574 l 642 438 l 400 438 l 419 574 z m 381 299 l 400 435 l 642 435 l 622 299 z m 622 296 l 603 160 l 361 160 l 381 296 z m 389 21 b 357 133 367 38 349 71 l 361 157 l 603 157 l 599 133 b 536 21 590 71 564 38 z m 300 -121 l 582 -121 l 582 -118 l 300 -118 z m 281 -260 l 563 -260 l 563 -257 l 281 -257 z "},"ň":{"ha":1015,"x_min":0,"x_max":0,"o":"m 776 1271 l 494 1271 l 494 1268 l 776 1268 z m 757 1132 l 475 1132 l 475 1129 l 757 1129 z m 436 854 l 436 851 l 532 851 l 535 847 l 617 847 l 619 851 l 718 851 l 718 854 l 622 854 l 793 1039 l 778 1039 l 719 993 l 471 993 l 426 1039 l 411 1039 l 529 854 z m 717 990 l 581 883 l 475 990 z m 417 713 l 699 713 l 699 715 l 417 715 z m 846 133 l 894 476 b 661 707 914 611 814 707 b 508 663 606 707 553 689 l 514 654 b 625 690 553 679 593 690 b 669 632 665 690 675 671 l 661 576 l 419 576 l 436 694 l 44 694 l 44 689 b 169 561 132 685 183 660 l 108 133 b -53 6 94 35 38 10 l -53 0 l 426 0 l 426 6 b 393 18 417 7 404 11 l 532 18 b 492 6 518 11 504 7 l 492 0 l 972 0 l 972 6 b 846 133 883 10 832 35 z m 661 574 l 642 438 l 400 438 l 419 574 z m 381 299 l 400 435 l 642 435 l 622 299 z m 622 296 l 603 160 l 361 160 l 381 296 z m 389 21 b 357 133 367 38 349 71 l 361 157 l 603 157 l 599 133 b 536 21 590 71 564 38 z m 300 -121 l 582 -121 l 582 -118 l 300 -118 z m 281 -260 l 563 -260 l 563 -257 l 281 -257 z "},"ņ":{"ha":1015,"x_min":0,"x_max":0,"o":"m 776 1271 l 494 1271 l 494 1268 l 776 1268 z m 757 1132 l 475 1132 l 475 1129 l 757 1129 z m 738 993 l 456 993 l 456 990 l 738 990 z m 718 854 l 436 854 l 436 851 l 718 851 z m 699 715 l 417 715 l 417 713 l 699 713 z m 846 133 l 894 476 b 661 707 914 611 814 707 b 508 663 606 707 553 689 l 514 654 b 625 690 553 679 593 690 b 669 632 665 690 675 671 l 661 576 l 419 576 l 436 694 l 44 694 l 44 689 b 169 561 132 685 183 660 l 108 133 b -53 6 94 35 38 10 l -53 0 l 426 0 l 426 6 b 393 18 417 7 404 11 l 532 18 b 492 6 518 11 504 7 l 492 0 l 972 0 l 972 6 b 846 133 883 10 832 35 z m 661 574 l 642 438 l 400 438 l 419 574 z m 381 299 l 400 435 l 642 435 l 622 299 z m 622 296 l 603 160 l 361 160 l 381 296 z m 389 21 b 357 133 367 38 349 71 l 361 157 l 603 157 l 599 133 b 536 21 590 71 564 38 z m 449 -58 b 363 -118 410 -58 375 -85 l 300 -118 l 300 -121 l 363 -121 b 358 -133 360 -125 360 -129 b 388 -203 354 -164 364 -182 b 411 -247 406 -218 414 -231 b 408 -257 411 -250 410 -254 l 281 -257 l 281 -260 l 408 -260 b 364 -311 403 -276 389 -290 l 367 -315 b 447 -260 399 -300 424 -281 l 563 -260 l 563 -257 l 450 -257 b 515 -140 485 -222 508 -182 b 517 -121 515 -133 515 -126 l 582 -121 l 582 -118 l 515 -118 b 449 -58 513 -82 485 -58 z "},"ŋ":{"ha":956,"x_min":0,"x_max":0,"o":"m 429 -264 b 835 51 638 -264 800 -194 l 894 476 b 661 707 914 611 814 707 b 419 578 563 707 469 654 l 436 694 l 44 694 l 44 689 b 169 561 132 685 183 660 l 108 133 b -53 6 94 35 38 10 l -53 0 l 418 0 l 418 6 b 357 133 394 10 343 35 l 417 556 b 625 690 469 646 563 690 b 669 632 665 690 675 671 l 556 -179 b 461 -258 547 -235 526 -258 b 408 -172 410 -258 401 -226 b 310 -44 419 -96 379 -44 b 208 -132 263 -44 215 -78 b 429 -264 196 -217 293 -264 z "},"ñ":{"ha":1015,"x_min":0,"x_max":0,"o":"m 776 1271 l 494 1271 l 494 1268 l 776 1268 z m 757 1132 l 475 1132 l 475 1129 l 757 1129 z m 456 946 b 550 899 497 946 519 925 b 622 854 571 881 593 863 l 436 854 l 436 851 l 633 851 b 669 847 644 849 657 847 b 706 851 683 847 694 849 l 718 851 l 718 854 l 715 854 b 810 983 772 872 801 924 l 806 983 b 718 899 799 935 761 899 b 624 946 676 899 653 919 b 550 990 601 964 579 982 l 738 990 l 738 993 l 539 993 b 504 997 529 996 517 997 b 467 993 490 997 479 996 l 456 993 l 456 990 l 457 990 b 363 861 400 972 371 921 l 367 861 b 456 946 374 910 413 946 z m 417 713 l 699 713 l 699 715 l 417 715 z m 846 133 l 894 476 b 661 707 914 611 814 707 b 508 663 606 707 553 689 l 514 654 b 625 690 553 679 593 690 b 669 632 665 690 675 671 l 661 576 l 419 576 l 436 694 l 44 694 l 44 689 b 169 561 132 685 183 660 l 108 133 b -53 6 94 35 38 10 l -53 0 l 426 0 l 426 6 b 393 18 417 7 404 11 l 532 18 b 492 6 518 11 504 7 l 492 0 l 972 0 l 972 6 b 846 133 883 10 832 35 z m 661 574 l 642 438 l 400 438 l 419 574 z m 381 299 l 400 435 l 642 435 l 622 299 z m 622 296 l 603 160 l 361 160 l 381 296 z m 389 21 b 357 133 367 38 349 71 l 361 157 l 603 157 l 599 133 b 536 21 590 71 564 38 z m 300 -121 l 582 -121 l 582 -118 l 300 -118 z m 281 -260 l 563 -260 l 563 -257 l 281 -257 z "},"o":{"ha":853,"x_min":0,"x_max":0,"o":"m 675 1271 l 393 1271 l 393 1268 l 675 1268 z m 656 1132 l 374 1132 l 374 1129 l 656 1129 z m 636 993 l 354 993 l 354 990 l 636 990 z m 617 854 l 335 854 l 335 851 l 617 851 z m 597 715 l 315 715 l 315 713 l 597 713 z m 494 703 l 493 697 b 567 576 529 681 553 636 l 315 576 b 389 688 333 629 356 668 l 386 694 b 24 347 199 657 47 515 b 219 21 3 201 85 76 l 218 21 l 218 18 l 226 18 b 358 -8 267 3 310 -7 l 361 -3 b 335 18 351 3 343 10 l 483 18 l 465 6 l 467 0 b 831 347 651 35 807 176 b 494 703 857 539 707 696 z m 486 21 l 332 21 b 281 157 307 50 290 99 l 519 157 l 519 160 l 281 160 b 274 296 274 201 272 247 l 539 296 l 539 299 l 272 299 b 283 428 274 340 278 385 l 285 435 l 558 435 l 558 438 l 285 438 b 315 574 292 489 301 535 l 568 574 b 572 269 586 490 588 379 b 486 21 557 156 531 65 z m 199 -121 l 481 -121 l 481 -118 l 199 -118 z m 179 -260 l 461 -260 l 461 -257 l 179 -257 z "},"ó":{"ha":853,"x_min":0,"x_max":0,"o":"m 675 1271 l 393 1271 l 393 1268 l 675 1268 z m 656 1132 l 374 1132 l 374 1129 l 656 1129 z m 636 993 l 354 993 l 354 990 l 636 990 z m 385 778 l 400 778 l 482 851 l 617 851 l 617 854 l 485 854 l 615 969 l 533 969 l 443 854 l 335 854 l 335 851 l 442 851 z m 597 715 l 315 715 l 315 713 l 597 713 z m 494 703 l 493 697 b 567 576 529 681 553 636 l 315 576 b 389 688 333 629 356 668 l 386 694 b 24 347 199 657 47 515 b 219 21 3 201 85 76 l 218 21 l 218 18 l 226 18 b 358 -8 267 3 310 -7 l 361 -3 b 335 18 351 3 343 10 l 483 18 l 465 6 l 467 0 b 831 347 651 35 807 176 b 494 703 857 539 707 696 z m 486 21 l 332 21 b 281 157 307 50 290 99 l 519 157 l 519 160 l 281 160 b 274 296 274 201 272 247 l 539 296 l 539 299 l 272 299 b 283 428 274 340 278 385 l 285 435 l 558 435 l 558 438 l 285 438 b 315 574 292 489 301 535 l 568 574 b 572 269 586 490 588 379 b 486 21 557 156 531 65 z m 199 -121 l 481 -121 l 481 -118 l 199 -118 z m 179 -260 l 461 -260 l 461 -257 l 179 -257 z "},"ô":{"ha":853,"x_min":0,"x_max":0,"o":"m 675 1271 l 393 1271 l 393 1268 l 675 1268 z m 656 1132 l 374 1132 l 374 1129 l 656 1129 z m 636 993 l 354 993 l 354 990 l 636 990 z m 311 778 l 404 851 l 589 851 l 663 778 l 678 778 l 554 969 l 472 969 l 365 854 l 335 854 l 335 851 l 363 851 l 296 778 z m 508 933 l 586 854 l 407 854 z m 597 713 l 597 715 l 315 715 l 315 713 z m 494 703 l 493 697 b 567 576 529 681 553 636 l 315 576 b 389 688 333 629 356 668 l 386 694 b 24 347 199 657 47 515 b 219 21 3 201 85 76 l 218 21 l 218 18 l 226 18 b 358 -8 267 3 310 -7 l 361 -3 b 335 18 351 3 343 10 l 483 18 l 465 6 l 467 0 b 831 347 651 35 807 176 b 494 703 857 539 707 696 z m 486 21 l 332 21 b 281 157 307 50 290 99 l 519 157 l 519 160 l 281 160 b 274 296 274 201 272 247 l 539 296 l 539 299 l 272 299 b 283 428 274 340 278 385 l 285 435 l 558 435 l 558 438 l 285 438 b 315 574 292 489 301 535 l 568 574 b 572 269 586 490 588 379 b 486 21 557 156 531 65 z m 199 -121 l 481 -121 l 481 -118 l 199 -118 z m 179 -260 l 461 -260 l 461 -257 l 179 -257 z "},"ö":{"ha":853,"x_min":0,"x_max":0,"o":"m 675 1271 l 393 1271 l 393 1268 l 675 1268 z m 656 1132 l 374 1132 l 374 1129 l 656 1129 z m 636 993 l 354 993 l 354 990 l 636 990 z m 386 807 b 457 851 415 807 442 825 l 536 851 b 597 807 543 825 567 807 b 676 878 636 807 671 838 b 617 947 682 917 656 947 b 536 878 576 947 542 917 b 536 854 535 869 535 861 l 457 854 b 465 878 461 861 464 869 b 406 947 471 917 444 947 b 325 878 365 947 331 917 b 386 807 319 838 346 807 z m 315 713 l 597 713 l 597 715 l 315 715 z m 494 703 l 493 697 b 567 576 529 681 553 636 l 315 576 b 389 688 333 629 356 668 l 386 694 b 24 347 199 657 47 515 b 219 21 3 201 85 76 l 218 21 l 218 18 l 226 18 b 358 -8 267 3 310 -7 l 361 -3 b 335 18 351 3 343 10 l 483 18 l 465 6 l 467 0 b 831 347 651 35 807 176 b 494 703 857 539 707 696 z m 486 21 l 332 21 b 281 157 307 50 290 99 l 519 157 l 519 160 l 281 160 b 274 296 274 201 272 247 l 539 296 l 539 299 l 272 299 b 283 428 274 340 278 385 l 285 435 l 558 435 l 558 438 l 285 438 b 315 574 292 489 301 535 l 568 574 b 572 269 586 490 588 379 b 486 21 557 156 531 65 z m 199 -121 l 481 -121 l 481 -118 l 199 -118 z m 179 -260 l 461 -260 l 461 -257 l 179 -257 z "},"ò":{"ha":853,"x_min":0,"x_max":0,"o":"m 675 1271 l 393 1271 l 393 1268 l 675 1268 z m 656 1132 l 374 1132 l 374 1129 l 656 1129 z m 636 993 l 354 993 l 354 990 l 636 990 z m 574 778 l 589 778 l 551 851 l 617 851 l 617 854 l 550 854 l 493 969 l 411 969 l 508 854 l 335 854 l 335 851 l 511 851 z m 597 715 l 315 715 l 315 713 l 597 713 z m 494 703 l 493 697 b 567 576 529 681 553 636 l 315 576 b 389 688 333 629 356 668 l 386 694 b 24 347 199 657 47 515 b 219 21 3 201 85 76 l 218 21 l 218 18 l 226 18 b 358 -8 267 3 310 -7 l 361 -3 b 335 18 351 3 343 10 l 483 18 l 465 6 l 467 0 b 831 347 651 35 807 176 b 494 703 857 539 707 696 z m 486 21 l 332 21 b 281 157 307 50 290 99 l 519 157 l 519 160 l 281 160 b 274 296 274 201 272 247 l 539 296 l 539 299 l 272 299 b 283 428 274 340 278 385 l 285 435 l 558 435 l 558 438 l 285 438 b 315 574 292 489 301 535 l 568 574 b 572 269 586 490 588 379 b 486 21 557 156 531 65 z m 199 -121 l 481 -121 l 481 -118 l 199 -118 z m 179 -260 l 461 -260 l 461 -257 l 179 -257 z "},"ő":{"ha":853,"x_min":0,"x_max":0,"o":"m 675 1271 l 393 1271 l 393 1268 l 675 1268 z m 656 1132 l 374 1132 l 374 1129 l 656 1129 z m 636 993 l 354 993 l 354 990 l 636 990 z m 310 778 l 392 851 l 532 851 l 475 778 l 490 778 l 572 851 l 617 851 l 617 854 l 575 854 l 706 969 l 624 969 l 533 854 l 394 854 l 525 969 l 443 969 l 353 854 l 335 854 l 335 851 l 351 851 l 294 778 z m 315 713 l 597 713 l 597 715 l 315 715 z m 494 703 l 493 697 b 567 576 529 681 553 636 l 315 576 b 389 688 333 629 356 668 l 386 694 b 24 347 199 657 47 515 b 219 21 3 201 85 76 l 218 21 l 218 18 l 226 18 b 358 -8 267 3 310 -7 l 361 -3 b 335 18 351 3 343 10 l 483 18 l 465 6 l 467 0 b 831 347 651 35 807 176 b 494 703 857 539 707 696 z m 486 21 l 332 21 b 281 157 307 50 290 99 l 519 157 l 519 160 l 281 160 b 274 296 274 201 272 247 l 539 296 l 539 299 l 272 299 b 283 428 274 340 278 385 l 285 435 l 558 435 l 558 438 l 285 438 b 315 574 292 489 301 535 l 568 574 b 572 269 586 490 588 379 b 486 21 557 156 531 65 z m 199 -121 l 481 -121 l 481 -118 l 199 -118 z m 179 -260 l 461 -260 l 461 -257 l 179 -257 z "},"ō":{"ha":853,"x_min":0,"x_max":0,"o":"m 675 1271 l 393 1271 l 393 1268 l 675 1268 z m 656 1132 l 374 1132 l 374 1129 l 656 1129 z m 636 993 l 354 993 l 354 990 l 636 990 z m 340 864 l 657 864 l 661 888 l 344 888 z m 617 854 l 335 854 l 335 851 l 617 851 z m 597 715 l 315 715 l 315 713 l 597 713 z m 494 703 l 493 697 b 567 576 529 681 553 636 l 315 576 b 389 688 333 629 356 668 l 386 694 b 24 347 199 657 47 515 b 219 21 3 201 85 76 l 218 21 l 218 18 l 226 18 b 358 -8 267 3 310 -7 l 361 -3 b 335 18 351 3 343 10 l 483 18 l 465 6 l 467 0 b 831 347 651 35 807 176 b 494 703 857 539 707 696 z m 486 21 l 332 21 b 281 157 307 50 290 99 l 519 157 l 519 160 l 281 160 b 274 296 274 201 272 247 l 539 296 l 539 299 l 272 299 b 283 428 274 340 278 385 l 285 435 l 558 435 l 558 438 l 285 438 b 315 574 292 489 301 535 l 568 574 b 572 269 586 490 588 379 b 486 21 557 156 531 65 z m 199 -121 l 481 -121 l 481 -118 l 199 -118 z m 179 -260 l 461 -260 l 461 -257 l 179 -257 z "},"ø":{"ha":853,"x_min":0,"x_max":0,"o":"m 675 1271 l 393 1271 l 393 1268 l 675 1268 z m 656 1132 l 374 1132 l 374 1129 l 656 1129 z m 636 993 l 354 993 l 354 990 l 636 990 z m 617 854 l 335 854 l 335 851 l 617 851 z m 640 671 l 679 721 l 657 721 l 622 678 b 494 703 583 693 540 701 l 493 697 b 560 599 524 682 546 647 l 543 576 l 315 576 b 389 688 333 629 356 668 l 386 694 b 24 347 199 657 47 515 b 140 65 7 233 54 131 l 68 -26 l 90 -26 l 154 56 b 219 21 175 42 196 31 l 218 21 l 218 18 l 226 18 b 358 -8 267 3 310 -7 l 361 -3 b 335 18 351 3 343 10 l 483 18 l 465 6 l 467 0 b 831 347 651 35 807 176 b 640 671 851 492 771 615 z m 597 715 l 315 715 l 315 713 l 597 713 z m 567 578 l 567 576 l 565 576 z m 540 574 l 433 438 l 285 438 b 315 574 292 489 301 535 z m 486 21 l 332 21 b 281 157 307 50 290 99 l 519 157 l 519 160 l 281 160 l 275 208 l 344 296 l 539 296 l 539 299 l 346 299 l 454 435 l 558 435 l 558 438 l 456 438 l 563 574 l 568 574 b 572 269 586 490 588 379 b 486 21 557 156 531 65 z m 283 428 l 285 435 l 432 435 l 324 299 l 272 299 b 283 428 274 340 278 385 z m 274 296 l 322 296 l 274 235 b 274 296 274 254 272 275 z m 199 -121 l 481 -121 l 481 -118 l 199 -118 z m 179 -260 l 461 -260 l 461 -257 l 179 -257 z "},"õ":{"ha":853,"x_min":0,"x_max":0,"o":"m 675 1271 l 393 1271 l 393 1268 l 675 1268 z m 656 1132 l 374 1132 l 374 1129 l 656 1129 z m 636 993 l 354 993 l 354 990 l 636 990 z m 367 876 b 431 854 394 876 413 868 l 335 854 l 335 851 l 435 851 b 461 829 443 844 453 838 b 581 778 492 801 529 778 b 721 914 668 778 711 840 l 717 914 b 629 829 710 865 672 829 b 564 851 601 829 583 838 l 617 851 l 617 854 l 560 854 b 535 876 551 861 543 868 b 415 928 503 904 467 928 b 274 792 328 928 283 865 l 278 792 b 367 876 285 840 324 876 z m 315 713 l 597 713 l 597 715 l 315 715 z m 494 703 l 493 697 b 567 576 529 681 553 636 l 315 576 b 389 688 333 629 356 668 l 386 694 b 24 347 199 657 47 515 b 219 21 3 201 85 76 l 218 21 l 218 18 l 226 18 b 358 -8 267 3 310 -7 l 361 -3 b 335 18 351 3 343 10 l 483 18 l 465 6 l 467 0 b 831 347 651 35 807 176 b 494 703 857 539 707 696 z m 486 21 l 332 21 b 281 157 307 50 290 99 l 519 157 l 519 160 l 281 160 b 274 296 274 201 272 247 l 539 296 l 539 299 l 272 299 b 283 428 274 340 278 385 l 285 435 l 558 435 l 558 438 l 285 438 b 315 574 292 489 301 535 l 568 574 b 572 269 586 490 588 379 b 486 21 557 156 531 65 z m 199 -121 l 481 -121 l 481 -118 l 199 -118 z m 179 -260 l 461 -260 l 461 -257 l 179 -257 z "},"œ":{"ha":1321,"x_min":0,"x_max":0,"o":"m 938 -14 b 1153 61 1010 -14 1082 10 l 1149 67 b 967 0 1074 14 1014 0 b 840 426 819 0 810 213 b 938 689 858 550 890 651 l 935 696 b 738 613 861 688 793 657 b 494 703 675 667 593 700 l 493 697 b 572 269 578 656 599 458 b 465 6 554 140 525 42 l 467 0 b 661 82 538 14 604 42 b 938 -14 724 22 818 -14 z m 358 -8 l 361 -3 b 283 428 278 40 257 236 b 389 688 301 554 331 651 l 386 694 b 24 347 199 657 47 515 b 358 -8 -3 157 144 0 z m 878 321 l 1293 321 l 1299 361 b 1058 694 1324 533 1210 664 l 1056 686 b 1081 374 1096 626 1094 474 b 1065 328 1075 339 1071 328 l 879 328 z "},"p":{"ha":874,"x_min":0,"x_max":0,"o":"m 758 1271 l 476 1271 l 476 1268 l 758 1268 z m 739 1132 l 457 1132 l 457 1129 l 739 1129 z m 719 993 l 438 993 l 438 990 l 719 990 z m 700 854 l 418 854 l 418 851 l 700 851 z m 681 715 l 399 715 l 399 713 l 681 713 z m 850 347 b 489 694 878 542 714 693 l 489 689 l 492 689 b 603 576 543 689 582 657 l 419 576 l 436 694 l 44 694 l 44 689 b 169 561 132 685 183 660 l 65 -172 b -94 -300 51 -271 -6 -296 l -96 -306 l 439 -306 l 440 -300 b 329 -260 388 -297 349 -287 l 544 -260 l 544 -257 l 326 -257 b 314 -172 314 -237 310 -211 l 322 -121 l 564 -121 l 564 -118 l 322 -118 l 342 18 l 511 18 b 457 8 494 11 478 8 b 404 15 440 8 422 11 l 403 7 b 456 0 418 3 436 0 b 558 18 489 0 524 7 l 583 18 l 583 21 l 565 21 b 850 347 699 68 829 194 z m 486 694 l 489 694 z m 604 574 b 617 438 613 538 618 493 l 400 438 l 419 574 z m 381 299 l 400 435 l 618 435 b 608 299 618 394 614 350 z m 601 235 b 588 160 597 207 593 182 l 361 160 l 381 296 l 608 296 b 601 235 607 276 604 256 z m 342 21 l 361 157 l 588 157 b 515 21 571 79 550 39 z "},"þ":{"ha":874,"x_min":0,"x_max":0,"o":"m 308 -214 l 485 1042 l 93 1042 l 93 1036 b 218 908 181 1032 232 1007 l 60 -214 b -101 -342 46 -312 -11 -337 l -101 -347 l 433 -347 l 433 -342 b 308 -214 346 -337 294 -312 z m 486 694 l 489 694 z m 489 694 l 489 689 l 492 689 b 601 235 588 689 649 575 b 457 8 575 56 542 8 b 404 15 440 8 422 11 l 403 7 b 456 0 418 3 436 0 b 850 347 617 0 822 151 b 489 694 878 542 714 693 z "},"q":{"ha":874,"x_min":0,"x_max":0,"o":"m 351 0 b 401 6 369 0 385 1 l 399 13 b 360 8 388 10 375 8 b 267 396 288 8 231 140 b 471 689 297 617 349 689 l 475 689 l 475 694 l 471 694 b 24 347 251 694 51 542 b 351 0 -4 153 161 0 z m 250 -306 l 786 -306 l 788 -300 b 660 -172 697 -296 646 -271 l 764 561 b 926 689 778 660 835 685 l 926 694 l 535 694 l 413 -172 b 251 -300 399 -271 342 -296 z "},"r":{"ha":650,"x_min":0,"x_max":0,"o":"m 599 528 b 707 622 654 528 699 567 b 624 719 715 679 679 719 b 446 624 561 719 493 678 l 450 619 b 461 622 453 622 456 622 b 519 574 482 622 499 608 b 599 528 540 540 564 528 z m -53 0 l 482 0 l 482 6 b 357 133 394 10 343 35 l 436 694 l 72 694 l 72 689 b 169 561 132 685 183 660 l 108 133 b -53 6 94 35 38 10 z "},"ŕ":{"ha":650,"x_min":0,"x_max":0,"o":"m 304 847 l 319 847 l 535 1039 l 453 1039 z m 599 528 b 707 622 654 528 699 567 b 624 719 715 679 679 719 b 446 624 561 719 493 678 l 450 619 b 461 622 453 622 456 622 b 519 574 482 622 499 608 b 599 528 540 540 564 528 z m -53 0 l 482 0 l 482 6 b 357 133 394 10 343 35 l 436 694 l 72 694 l 72 689 b 169 561 132 685 183 660 l 108 133 b -53 6 94 35 38 10 z "},"ř":{"ha":650,"x_min":0,"x_max":0,"o":"m 365 847 l 447 847 l 624 1039 l 608 1039 l 411 883 l 257 1039 l 242 1039 z m 599 528 b 707 622 654 528 699 567 b 624 719 715 679 679 719 b 446 624 561 719 493 678 l 450 619 b 461 622 453 622 456 622 b 519 574 482 622 499 608 b 599 528 540 540 564 528 z m -53 0 l 482 0 l 482 6 b 357 133 394 10 343 35 l 436 694 l 72 694 l 72 689 b 169 561 132 685 183 660 l 108 133 b -53 6 94 35 38 10 z "},"ŗ":{"ha":650,"x_min":0,"x_max":0,"o":"m 599 528 b 707 622 654 528 699 567 b 624 719 715 679 679 719 b 446 624 561 719 493 678 l 450 619 b 461 622 453 622 456 622 b 519 574 482 622 499 608 b 599 528 540 540 564 528 z m -53 0 l 482 0 l 482 6 b 357 133 394 10 343 35 l 436 694 l 72 694 l 72 689 b 169 561 132 685 183 660 l 108 133 b -53 6 94 35 38 10 z m 197 -315 b 346 -140 279 -274 336 -208 b 279 -58 351 -93 322 -58 b 189 -133 235 -58 194 -93 b 218 -203 185 -164 194 -182 b 242 -247 236 -218 244 -231 b 194 -311 239 -269 226 -285 z "},"s":{"ha":725,"x_min":0,"x_max":0,"o":"m 601 1271 l 319 1271 l 319 1268 l 601 1268 z m 582 1132 l 300 1132 l 300 1129 l 582 1129 z m 563 993 l 281 993 l 281 990 l 563 990 z m 543 854 l 261 854 l 261 851 l 543 851 z m 524 715 l 242 715 l 242 713 l 524 713 z m 433 693 l 431 688 b 636 447 514 660 597 576 l 642 447 l 657 713 l 651 713 b 575 664 642 683 618 664 b 485 679 543 664 531 664 b 433 693 469 685 454 689 z m 465 435 l 485 435 l 485 438 l 460 438 b 364 492 432 454 400 472 b 246 574 299 526 264 551 l 504 574 l 504 576 l 243 576 b 231 624 231 593 228 608 b 310 690 235 657 267 681 l 308 693 b 88 506 196 678 103 618 b 194 299 78 435 110 360 l 183 299 l 183 296 l 199 296 b 239 271 211 288 225 279 b 415 160 332 219 386 186 l 164 160 l 164 157 l 419 157 b 449 75 453 125 453 104 b 421 21 446 56 436 35 l 228 21 b 60 272 133 65 72 164 l 54 272 l 15 -7 l 21 -7 b 85 39 24 4 47 39 b 161 26 107 39 124 38 l 178 21 l 144 21 l 144 18 l 188 18 b 268 0 215 10 240 4 l 269 6 b 235 18 258 8 244 13 l 418 18 b 388 3 410 11 399 6 l 389 -3 b 638 185 518 8 621 67 b 465 435 650 276 617 342 z m 125 -121 l 407 -121 l 407 -118 l 125 -118 z m 106 -260 l 388 -260 l 388 -257 l 106 -257 z "},"ś":{"ha":725,"x_min":0,"x_max":0,"o":"m 601 1271 l 319 1271 l 319 1268 l 601 1268 z m 582 1132 l 300 1132 l 300 1129 l 582 1129 z m 306 847 l 321 847 l 325 851 l 543 851 l 543 854 l 328 854 l 482 990 l 563 990 l 563 993 l 483 993 l 536 1039 l 454 1039 l 418 993 l 281 993 l 281 990 l 417 990 l 310 854 l 261 854 l 261 851 l 308 851 z m 524 715 l 242 715 l 242 713 l 524 713 z m 433 693 l 431 688 b 636 447 514 660 597 576 l 642 447 l 657 713 l 651 713 b 575 664 642 683 618 664 b 485 679 543 664 531 664 b 433 693 469 685 454 689 z m 465 435 l 485 435 l 485 438 l 460 438 b 364 492 432 454 400 472 b 246 574 299 526 264 551 l 504 574 l 504 576 l 243 576 b 231 624 231 593 228 608 b 310 690 235 657 267 681 l 308 693 b 88 506 196 678 103 618 b 194 299 78 435 110 360 l 183 299 l 183 296 l 199 296 b 239 271 211 288 225 279 b 415 160 332 219 386 186 l 164 160 l 164 157 l 419 157 b 449 75 453 125 453 104 b 421 21 446 56 436 35 l 228 21 b 60 272 133 65 72 164 l 54 272 l 15 -7 l 21 -7 b 85 39 24 4 47 39 b 161 26 107 39 124 38 l 178 21 l 144 21 l 144 18 l 188 18 b 268 0 215 10 240 4 l 269 6 b 235 18 258 8 244 13 l 418 18 b 388 3 410 11 399 6 l 389 -3 b 638 185 518 8 621 67 b 465 435 650 276 617 342 z m 125 -121 l 407 -121 l 407 -118 l 125 -118 z m 106 -260 l 388 -260 l 388 -257 l 106 -257 z "},"š":{"ha":725,"x_min":0,"x_max":0,"o":"m 601 1271 l 319 1271 l 319 1268 l 601 1268 z m 582 1132 l 300 1132 l 300 1129 l 582 1129 z m 261 854 l 261 851 l 364 851 l 367 847 l 449 847 l 451 851 l 543 851 l 543 854 l 454 854 l 625 1039 l 610 1039 l 551 993 l 303 993 l 258 1039 l 243 1039 l 361 854 z m 549 990 l 413 883 l 307 990 z m 524 715 l 242 715 l 242 713 l 524 713 z m 433 693 l 431 688 b 636 447 514 660 597 576 l 642 447 l 657 713 l 651 713 b 575 664 642 683 618 664 b 485 679 543 664 531 664 b 433 693 469 685 454 689 z m 465 435 l 485 435 l 485 438 l 460 438 b 364 492 432 454 400 472 b 246 574 299 526 264 551 l 504 574 l 504 576 l 243 576 b 231 624 231 593 228 608 b 310 690 235 657 267 681 l 308 693 b 88 506 196 678 103 618 b 194 299 78 435 110 360 l 183 299 l 183 296 l 199 296 b 239 271 211 288 225 279 b 415 160 332 219 386 186 l 164 160 l 164 157 l 419 157 b 449 75 453 125 453 104 b 421 21 446 56 436 35 l 228 21 b 60 272 133 65 72 164 l 54 272 l 15 -7 l 21 -7 b 85 39 24 4 47 39 b 161 26 107 39 124 38 l 178 21 l 144 21 l 144 18 l 188 18 b 268 0 215 10 240 4 l 269 6 b 235 18 258 8 244 13 l 418 18 b 388 3 410 11 399 6 l 389 -3 b 638 185 518 8 621 67 b 465 435 650 276 617 342 z m 125 -121 l 407 -121 l 407 -118 l 125 -118 z m 106 -260 l 388 -260 l 388 -257 l 106 -257 z "},"ş":{"ha":725,"x_min":0,"x_max":0,"o":"m 601 1271 l 319 1271 l 319 1268 l 601 1268 z m 582 1132 l 300 1132 l 300 1129 l 582 1129 z m 563 993 l 281 993 l 281 990 l 563 990 z m 543 854 l 261 854 l 261 851 l 543 851 z m 524 715 l 242 715 l 242 713 l 524 713 z m 433 693 l 431 688 b 636 447 514 660 597 576 l 642 447 l 657 713 l 651 713 b 575 664 642 683 618 664 b 485 679 543 664 531 664 b 433 693 469 685 454 689 z m 465 435 l 485 435 l 485 438 l 460 438 b 364 492 432 454 400 472 b 246 574 299 526 264 551 l 504 574 l 504 576 l 243 576 b 231 624 231 593 228 608 b 310 690 235 657 267 681 l 308 693 b 88 506 196 678 103 618 b 194 299 78 435 110 360 l 183 299 l 183 296 l 199 296 b 239 271 211 288 225 279 b 415 160 332 219 386 186 l 164 160 l 164 157 l 419 157 b 449 75 453 125 453 104 b 421 21 446 56 436 35 l 228 21 b 60 272 133 65 72 164 l 54 272 l 15 -7 l 21 -7 b 85 39 24 4 47 39 b 161 26 107 39 124 38 l 178 21 l 144 21 l 144 18 l 188 18 b 268 0 215 10 240 4 l 269 6 b 235 18 258 8 244 13 l 418 18 b 388 3 410 11 399 6 l 389 -3 b 638 185 518 8 621 67 b 465 435 650 276 617 342 z m 343 4 b 285 6 325 4 303 4 l 235 -64 l 239 -64 b 308 -44 260 -50 283 -44 z m 332 -42 l 329 -46 b 358 -114 363 -51 364 -76 l 358 -118 l 125 -118 l 125 -121 l 358 -121 b 239 -225 346 -189 301 -225 b 156 -199 214 -225 188 -219 l 151 -203 b 274 -236 176 -218 213 -236 b 433 -133 363 -236 425 -197 b 332 -42 443 -72 400 -42 z m 106 -260 l 388 -260 l 388 -257 l 106 -257 z "},"ș":{"ha":725,"x_min":0,"x_max":0,"o":"m 601 1271 l 319 1271 l 319 1268 l 601 1268 z m 582 1132 l 300 1132 l 300 1129 l 582 1129 z m 563 993 l 281 993 l 281 990 l 563 990 z m 543 854 l 261 854 l 261 851 l 543 851 z m 524 715 l 242 715 l 242 713 l 524 713 z m 433 693 l 431 688 b 636 447 514 660 597 576 l 642 447 l 657 713 l 651 713 b 575 664 642 683 618 664 b 485 679 543 664 531 664 b 433 693 469 685 454 689 z m 465 435 l 485 435 l 485 438 l 460 438 b 364 492 432 454 400 472 b 246 574 299 526 264 551 l 504 574 l 504 576 l 243 576 b 231 624 231 593 228 608 b 310 690 235 657 267 681 l 308 693 b 88 506 196 678 103 618 b 194 299 78 435 110 360 l 183 299 l 183 296 l 199 296 b 239 271 211 288 225 279 b 415 160 332 219 386 186 l 164 160 l 164 157 l 419 157 b 449 75 453 125 453 104 b 421 21 446 56 436 35 l 228 21 b 60 272 133 65 72 164 l 54 272 l 15 -7 l 21 -7 b 85 39 24 4 47 39 b 161 26 107 39 124 38 l 178 21 l 144 21 l 144 18 l 188 18 b 268 0 215 10 240 4 l 269 6 b 235 18 258 8 244 13 l 418 18 b 388 3 410 11 399 6 l 389 -3 b 638 185 518 8 621 67 b 465 435 650 276 617 342 z m 296 -50 b 207 -118 254 -50 217 -81 l 125 -118 l 125 -121 l 207 -121 l 206 -125 b 235 -194 201 -156 211 -174 b 258 -239 253 -210 260 -222 b 253 -257 257 -246 254 -251 l 106 -257 l 106 -260 l 251 -260 b 211 -303 244 -272 232 -285 l 214 -307 b 285 -260 240 -293 264 -278 l 388 -260 l 388 -257 l 288 -257 b 363 -132 329 -221 356 -176 l 364 -121 l 407 -121 l 407 -118 l 363 -118 b 296 -50 363 -78 335 -50 z "},"ß":{"ha":885,"x_min":0,"x_max":0,"o":"m 493 0 b 847 253 672 0 825 86 b 626 544 869 407 794 469 b 575 582 594 558 572 568 b 639 626 576 596 608 611 b 835 833 768 689 821 731 b 543 1047 851 949 767 1047 l 542 1042 b 615 810 606 1042 632 926 b 582 653 606 742 601 708 b 567 590 579 646 569 615 b 585 492 563 561 564 539 b 615 214 628 385 629 322 b 485 8 593 61 540 8 b 386 31 460 8 422 14 l 383 26 b 493 0 422 8 453 0 z m -53 0 l 339 0 l 486 1044 b 200 786 332 1021 219 918 l 108 133 b -53 6 94 35 38 10 z "},"t":{"ha":511,"x_min":0,"x_max":0,"o":"m 350 -4 b 460 11 397 -4 435 1 l 454 17 b 414 14 435 14 425 14 b 357 108 378 14 347 42 l 438 688 l 535 688 l 536 694 l 439 694 l 464 867 l 458 867 b 100 694 422 763 303 694 l 99 688 l 190 688 l 126 226 b 350 -4 103 64 213 -4 z "},"ŧ":{"ha":511,"x_min":0,"x_max":0,"o":"m 454 17 b 414 14 435 14 425 14 b 357 108 378 14 347 42 l 410 482 l 521 482 l 521 488 l 410 488 l 438 688 l 535 688 l 536 694 l 439 694 l 464 867 l 458 867 b 100 694 422 763 303 694 l 99 688 l 190 688 l 163 488 l 71 488 l 71 482 l 163 482 l 126 226 b 350 -4 103 64 213 -4 b 460 11 397 -4 435 1 z "},"ť":{"ha":511,"x_min":0,"x_max":0,"o":"m 368 944 l 450 944 l 628 1136 l 613 1136 l 415 981 l 261 1136 l 246 1136 z m 350 -4 b 460 11 397 -4 435 1 l 454 17 b 414 14 435 14 425 14 b 357 108 378 14 347 42 l 438 688 l 535 688 l 536 694 l 439 694 l 464 867 l 458 867 b 100 694 422 763 303 694 l 99 688 l 190 688 l 126 226 b 350 -4 103 64 213 -4 z "},"ţ":{"ha":511,"x_min":0,"x_max":0,"o":"m 260 -65 l 264 -65 b 333 -46 285 -51 308 -46 l 363 -4 b 460 11 406 -3 438 3 l 454 17 b 414 14 435 14 425 14 b 357 108 378 14 347 42 l 438 688 l 535 688 l 536 694 l 439 694 l 464 867 l 458 867 b 100 694 422 763 303 694 l 99 688 l 190 688 l 126 226 b 307 -1 106 82 190 13 z m 357 -43 l 354 -47 b 383 -115 388 -53 389 -78 b 264 -226 374 -187 329 -226 b 181 -200 239 -226 213 -221 l 176 -204 b 299 -237 201 -219 238 -237 b 458 -135 388 -237 450 -199 b 357 -43 467 -74 425 -43 z "},"ț":{"ha":511,"x_min":0,"x_max":0,"o":"m 350 -4 b 460 11 397 -4 435 1 l 454 17 b 414 14 435 14 425 14 b 357 108 378 14 347 42 l 438 688 l 535 688 l 536 694 l 439 694 l 464 867 l 458 867 b 100 694 422 763 303 694 l 99 688 l 190 688 l 126 226 b 350 -4 103 64 213 -4 z m 239 -308 b 386 -133 321 -267 376 -201 b 321 -51 393 -86 364 -51 b 231 -126 276 -51 236 -86 b 260 -196 226 -157 236 -175 b 283 -240 278 -211 285 -224 b 236 -304 279 -262 268 -278 z "},"u":{"ha":1015,"x_min":0,"x_max":0,"o":"m 374 -12 b 522 39 424 -12 476 8 l 517 47 b 392 0 472 17 426 0 b 347 63 350 0 342 24 l 436 694 l 44 694 l 44 689 b 169 561 132 685 183 660 l 121 218 b 374 -12 101 83 201 -12 z m 581 0 l 972 0 l 972 6 b 846 133 883 10 832 35 l 925 694 l 589 694 l 589 689 b 660 561 622 685 674 660 z "},"ú":{"ha":1015,"x_min":0,"x_max":0,"o":"m 465 778 l 481 778 l 696 969 l 614 969 z m 374 -12 b 522 39 424 -12 476 8 l 517 47 b 392 0 472 17 426 0 b 347 63 350 0 342 24 l 436 694 l 44 694 l 44 689 b 169 561 132 685 183 660 l 121 218 b 374 -12 101 83 201 -12 z m 581 0 l 972 0 l 972 6 b 846 133 883 10 832 35 l 925 694 l 589 694 l 589 689 b 660 561 622 685 674 660 z "},"û":{"ha":1015,"x_min":0,"x_max":0,"o":"m 376 778 l 392 778 l 589 933 l 743 778 l 758 778 l 635 969 l 553 969 z m 374 -12 b 522 39 424 -12 476 8 l 517 47 b 392 0 472 17 426 0 b 347 63 350 0 342 24 l 436 694 l 44 694 l 44 689 b 169 561 132 685 183 660 l 121 218 b 374 -12 101 83 201 -12 z m 581 0 l 972 0 l 972 6 b 846 133 883 10 832 35 l 925 694 l 589 694 l 589 689 b 660 561 622 685 674 660 z "},"ü":{"ha":1015,"x_min":0,"x_max":0,"o":"m 467 807 b 546 878 506 807 540 838 b 486 947 551 917 525 947 b 406 878 446 947 411 917 b 467 807 400 838 426 807 z m 678 807 b 757 878 717 807 751 838 b 697 947 763 917 736 947 b 617 878 657 947 622 917 b 678 807 611 838 638 807 z m 374 -12 b 522 39 424 -12 476 8 l 517 47 b 392 0 472 17 426 0 b 347 63 350 0 342 24 l 436 694 l 44 694 l 44 689 b 169 561 132 685 183 660 l 121 218 b 374 -12 101 83 201 -12 z m 581 0 l 972 0 l 972 6 b 846 133 883 10 832 35 l 925 694 l 589 694 l 589 689 b 660 561 622 685 674 660 z "},"ù":{"ha":1015,"x_min":0,"x_max":0,"o":"m 654 778 l 669 778 l 574 969 l 492 969 z m 374 -12 b 522 39 424 -12 476 8 l 517 47 b 392 0 472 17 426 0 b 347 63 350 0 342 24 l 436 694 l 44 694 l 44 689 b 169 561 132 685 183 660 l 121 218 b 374 -12 101 83 201 -12 z m 581 0 l 972 0 l 972 6 b 846 133 883 10 832 35 l 925 694 l 589 694 l 589 689 b 660 561 622 685 674 660 z "},"ű":{"ha":1015,"x_min":0,"x_max":0,"o":"m 375 778 l 390 778 l 606 969 l 524 969 z m 556 778 l 571 778 l 786 969 l 704 969 z m 374 -12 b 522 39 424 -12 476 8 l 517 47 b 392 0 472 17 426 0 b 347 63 350 0 342 24 l 436 694 l 44 694 l 44 689 b 169 561 132 685 183 660 l 121 218 b 374 -12 101 83 201 -12 z m 581 0 l 972 0 l 972 6 b 846 133 883 10 832 35 l 925 694 l 589 694 l 589 689 b 660 561 622 685 674 660 z "},"ū":{"ha":1015,"x_min":0,"x_max":0,"o":"m 421 864 l 738 864 l 742 888 l 425 888 z m 374 -12 b 522 39 424 -12 476 8 l 517 47 b 392 0 472 17 426 0 b 347 63 350 0 342 24 l 436 694 l 44 694 l 44 689 b 169 561 132 685 183 660 l 121 218 b 374 -12 101 83 201 -12 z m 581 0 l 972 0 l 972 6 b 846 133 883 10 832 35 l 925 694 l 589 694 l 589 689 b 660 561 622 685 674 660 z "},"ų":{"ha":1015,"x_min":0,"x_max":0,"o":"m 392 0 b 347 63 350 0 342 24 l 436 694 l 44 694 l 44 689 b 169 561 132 685 183 660 l 121 218 b 374 -12 101 83 201 -12 b 522 39 424 -12 476 8 l 517 47 b 392 0 472 17 426 0 z m 972 0 l 972 6 b 846 133 883 10 832 35 l 925 694 l 589 694 l 589 689 b 660 561 622 685 674 660 l 581 0 l 675 0 b 632 -112 657 -26 640 -61 b 715 -258 619 -201 651 -258 b 822 -143 776 -258 814 -211 l 819 -142 b 746 -181 808 -175 783 -181 b 657 -76 674 -181 649 -142 b 688 0 660 -54 668 -29 z "},"ů":{"ha":1015,"x_min":0,"x_max":0,"o":"m 572 799 b 718 906 644 799 710 846 b 601 1011 726 964 674 1011 b 451 906 526 1011 460 964 b 572 799 443 846 497 799 z m 581 804 b 528 925 533 804 519 860 b 592 1006 536 976 561 1006 b 643 885 639 1006 653 950 b 581 804 636 833 611 804 z m 374 -12 b 522 39 424 -12 476 8 l 517 47 b 392 0 472 17 426 0 b 347 63 350 0 342 24 l 436 694 l 44 694 l 44 689 b 169 561 132 685 183 660 l 121 218 b 374 -12 101 83 201 -12 z m 581 0 l 972 0 l 972 6 b 846 133 883 10 832 35 l 925 694 l 589 694 l 589 689 b 660 561 622 685 674 660 z "},"v":{"ha":878,"x_min":0,"x_max":0,"o":"m 744 1271 l 463 1271 l 463 1268 l 744 1268 z m 725 1132 l 443 1132 l 443 1129 l 725 1129 z m 706 993 l 424 993 l 424 990 l 706 990 z m 686 854 l 404 854 l 404 851 l 686 851 z m 667 715 l 385 715 l 385 713 l 667 713 z m 571 694 l 571 689 b 672 582 629 683 685 674 b 625 438 667 547 656 499 l 479 438 l 447 561 l 444 574 l 647 574 l 647 576 l 443 576 b 443 618 442 592 442 606 b 532 689 451 671 494 686 l 532 694 l 31 694 l 31 689 b 204 561 119 685 185 660 l 310 160 l 307 160 l 307 157 l 310 157 l 346 21 l 288 21 l 288 18 l 347 18 l 363 -44 l 368 -44 l 403 18 l 569 18 l 569 21 l 404 21 l 478 157 l 589 157 l 589 160 l 479 160 l 529 253 l 518 296 l 608 296 l 608 299 l 517 299 l 481 435 l 624 435 b 622 432 624 433 622 433 l 629 432 b 944 689 754 661 838 682 l 944 694 z m 268 -121 l 550 -121 l 550 -118 l 268 -118 z m 249 -260 l 531 -260 l 531 -257 l 249 -257 z "},"w":{"ha":1294,"x_min":0,"x_max":0,"o":"m 363 -44 l 368 -44 l 529 253 l 447 561 b 443 618 443 582 442 601 b 490 689 451 671 476 686 l 490 694 l 31 694 l 31 689 b 204 561 119 685 183 660 z m 779 -44 l 785 -44 l 946 253 l 864 561 b 860 618 858 582 858 601 b 949 689 868 671 911 686 l 949 694 l 521 694 l 521 689 b 621 561 536 685 593 658 z m 1035 426 l 1042 426 b 1361 689 1171 660 1254 682 l 1361 694 l 988 694 l 988 689 b 1089 582 1046 683 1101 674 b 1035 426 1083 546 1069 490 z "},"ẃ":{"ha":1294,"x_min":0,"x_max":0,"o":"m 642 778 l 657 778 l 872 969 l 790 969 z m 363 -44 l 368 -44 l 529 253 l 447 561 b 443 618 443 582 442 601 b 490 689 451 671 476 686 l 490 694 l 31 694 l 31 689 b 204 561 119 685 183 660 z m 779 -44 l 785 -44 l 946 253 l 864 561 b 860 618 858 582 858 601 b 949 689 868 671 911 686 l 949 694 l 521 694 l 521 689 b 621 561 536 685 593 658 z m 1035 426 l 1042 426 b 1361 689 1171 660 1254 682 l 1361 694 l 988 694 l 988 689 b 1089 582 1046 683 1101 674 b 1035 426 1083 546 1069 490 z "},"ŵ":{"ha":1294,"x_min":0,"x_max":0,"o":"m 553 778 l 568 778 l 765 933 l 919 778 l 935 778 l 811 969 l 729 969 z m 363 -44 l 368 -44 l 529 253 l 447 561 b 443 618 443 582 442 601 b 490 689 451 671 476 686 l 490 694 l 31 694 l 31 689 b 204 561 119 685 183 660 z m 779 -44 l 785 -44 l 946 253 l 864 561 b 860 618 858 582 858 601 b 949 689 868 671 911 686 l 949 694 l 521 694 l 521 689 b 621 561 536 685 593 658 z m 1035 426 l 1042 426 b 1361 689 1171 660 1254 682 l 1361 694 l 988 694 l 988 689 b 1089 582 1046 683 1101 674 b 1035 426 1083 546 1069 490 z "},"ẅ":{"ha":1294,"x_min":0,"x_max":0,"o":"m 643 807 b 722 878 682 807 717 838 b 663 947 728 917 701 947 b 582 878 622 947 588 917 b 643 807 576 838 603 807 z m 854 807 b 933 878 893 807 928 838 b 874 947 939 917 913 947 b 793 878 833 947 799 917 b 854 807 788 838 814 807 z m 363 -44 l 368 -44 l 529 253 l 447 561 b 443 618 443 582 442 601 b 490 689 451 671 476 686 l 490 694 l 31 694 l 31 689 b 204 561 119 685 183 660 z m 779 -44 l 785 -44 l 946 253 l 864 561 b 860 618 858 582 858 601 b 949 689 868 671 911 686 l 949 694 l 521 694 l 521 689 b 621 561 536 685 593 658 z m 1035 426 l 1042 426 b 1361 689 1171 660 1254 682 l 1361 694 l 988 694 l 988 689 b 1089 582 1046 683 1101 674 b 1035 426 1083 546 1069 490 z "},"ẁ":{"ha":1294,"x_min":0,"x_max":0,"o":"m 831 778 l 846 778 l 750 969 l 668 969 z m 363 -44 l 368 -44 l 529 253 l 447 561 b 443 618 443 582 442 601 b 490 689 451 671 476 686 l 490 694 l 31 694 l 31 689 b 204 561 119 685 183 660 z m 779 -44 l 785 -44 l 946 253 l 864 561 b 860 618 858 582 858 601 b 949 689 868 671 911 686 l 949 694 l 521 694 l 521 689 b 621 561 536 685 593 658 z m 1035 426 l 1042 426 b 1361 689 1171 660 1254 682 l 1361 694 l 988 694 l 988 689 b 1089 582 1046 683 1101 674 b 1035 426 1083 546 1069 490 z "},"x":{"ha":792,"x_min":0,"x_max":0,"o":"m 593 156 l 382 694 l 21 694 l 21 689 b 188 538 92 689 147 642 l 296 261 b -67 6 138 26 42 13 l -67 0 l 321 0 l 321 6 b 217 83 256 10 208 19 b 300 254 224 131 264 199 l 400 0 l 761 0 l 761 6 b 593 156 690 6 632 53 z m 471 694 l 471 689 b 575 611 536 685 583 675 b 488 433 568 561 524 490 l 493 431 b 858 689 654 668 750 682 l 858 694 z "},"y":{"ha":900,"x_min":0,"x_max":0,"o":"m 363 -160 l 526 171 l 447 561 b 443 618 443 582 442 601 b 532 689 451 671 494 686 l 532 694 l 31 694 l 31 689 b 204 561 119 685 182 660 z m 649 431 l 656 431 b 967 689 760 668 860 682 l 967 694 l 593 694 l 593 689 b 701 582 651 683 714 674 b 649 431 696 546 678 494 z m 171 -306 b 285 -269 213 -306 250 -296 l 281 -264 b 200 -292 261 -278 233 -292 b 174 -264 172 -292 171 -281 b 196 -217 175 -253 182 -236 b 221 -154 208 -199 217 -182 b 143 -62 226 -114 206 -62 b 33 -161 83 -62 40 -107 b 171 -306 21 -244 81 -306 z "},"ý":{"ha":900,"x_min":0,"x_max":0,"o":"m 429 778 l 444 778 l 660 969 l 578 969 z m 363 -160 l 526 171 l 447 561 b 443 618 443 582 442 601 b 532 689 451 671 494 686 l 532 694 l 31 694 l 31 689 b 204 561 119 685 182 660 z m 649 431 l 656 431 b 967 689 760 668 860 682 l 967 694 l 593 694 l 593 689 b 701 582 651 683 714 674 b 649 431 696 546 678 494 z m 171 -306 b 285 -269 213 -306 250 -296 l 281 -264 b 200 -292 261 -278 233 -292 b 174 -264 172 -292 171 -281 b 196 -217 175 -253 182 -236 b 221 -154 208 -199 217 -182 b 143 -62 226 -114 206 -62 b 33 -161 83 -62 40 -107 b 171 -306 21 -244 81 -306 z "},"ŷ":{"ha":900,"x_min":0,"x_max":0,"o":"m 340 778 l 356 778 l 553 933 l 707 778 l 722 778 l 599 969 l 517 969 z m 363 -160 l 526 171 l 447 561 b 443 618 443 582 442 601 b 532 689 451 671 494 686 l 532 694 l 31 694 l 31 689 b 204 561 119 685 182 660 z m 649 431 l 656 431 b 967 689 760 668 860 682 l 967 694 l 593 694 l 593 689 b 701 582 651 683 714 674 b 649 431 696 546 678 494 z m 171 -306 b 285 -269 213 -306 250 -296 l 281 -264 b 200 -292 261 -278 233 -292 b 174 -264 172 -292 171 -281 b 196 -217 175 -253 182 -236 b 221 -154 208 -199 217 -182 b 143 -62 226 -114 206 -62 b 33 -161 83 -62 40 -107 b 171 -306 21 -244 81 -306 z "},"ÿ":{"ha":900,"x_min":0,"x_max":0,"o":"m 431 807 b 510 878 469 807 504 838 b 450 947 515 917 489 947 b 369 878 410 947 375 917 b 431 807 364 838 390 807 z m 642 807 b 721 878 681 807 715 838 b 661 947 726 917 700 947 b 581 878 621 947 586 917 b 642 807 575 838 601 807 z m 363 -160 l 526 171 l 447 561 b 443 618 443 582 442 601 b 532 689 451 671 494 686 l 532 694 l 31 694 l 31 689 b 204 561 119 685 182 660 z m 649 431 l 656 431 b 967 689 760 668 860 682 l 967 694 l 593 694 l 593 689 b 701 582 651 683 714 674 b 649 431 696 546 678 494 z m 171 -306 b 285 -269 213 -306 250 -296 l 281 -264 b 200 -292 261 -278 233 -292 b 174 -264 172 -292 171 -281 b 196 -217 175 -253 182 -236 b 221 -154 208 -199 217 -182 b 143 -62 226 -114 206 -62 b 33 -161 83 -62 40 -107 b 171 -306 21 -244 81 -306 z "},"ỳ":{"ha":900,"x_min":0,"x_max":0,"o":"m 618 778 l 633 778 l 538 969 l 456 969 z m 363 -160 l 526 171 l 447 561 b 443 618 443 582 442 601 b 532 689 451 671 494 686 l 532 694 l 31 694 l 31 689 b 204 561 119 685 182 660 z m 649 431 l 656 431 b 967 689 760 668 860 682 l 967 694 l 593 694 l 593 689 b 701 582 651 683 714 674 b 649 431 696 546 678 494 z m 171 -306 b 285 -269 213 -306 250 -296 l 281 -264 b 200 -292 261 -278 233 -292 b 174 -264 172 -292 171 -281 b 196 -217 175 -253 182 -236 b 221 -154 208 -199 217 -182 b 143 -62 226 -114 206 -62 b 33 -161 83 -62 40 -107 b 171 -306 21 -244 81 -306 z "},"z":{"ha":690,"x_min":0,"x_max":0,"o":"m -11 0 l 240 0 l 701 694 l 450 694 z m 78 504 l 83 504 b 379 688 157 650 235 682 l 381 694 l 138 694 z m 317 0 l 583 0 l 610 190 l 604 190 b 318 7 558 47 490 13 z "},"ź":{"ha":690,"x_min":0,"x_max":0,"o":"m 285 778 l 300 778 l 515 969 l 433 969 z m -11 0 l 240 0 l 701 694 l 450 694 z m 78 504 l 83 504 b 379 688 157 650 235 682 l 381 694 l 138 694 z m 317 0 l 583 0 l 610 190 l 604 190 b 318 7 558 47 490 13 z "},"ž":{"ha":690,"x_min":0,"x_max":0,"o":"m 346 778 l 428 778 l 604 969 l 589 969 l 392 814 l 238 969 l 222 969 z m -11 0 l 240 0 l 701 694 l 450 694 z m 78 504 l 83 504 b 379 688 157 650 235 682 l 381 694 l 138 694 z m 317 0 l 583 0 l 610 190 l 604 190 b 318 7 558 47 490 13 z "},"ż":{"ha":690,"x_min":0,"x_max":0,"o":"m 390 794 b 508 897 447 794 500 840 b 419 1001 515 954 476 1001 b 300 897 360 1001 307 954 b 390 794 292 840 331 794 z m -11 0 l 240 0 l 701 694 l 450 694 z m 78 504 l 83 504 b 379 688 157 650 235 682 l 381 694 l 138 694 z m 317 0 l 583 0 l 610 190 l 604 190 b 318 7 558 47 490 13 z "},"⁄":{"ha":197,"x_min":0,"x_max":0,"o":"m -326 0 l -290 0 l 563 972 l 526 972 z "},"⅟":{"ha":600,"x_min":0,"x_max":0,"o":"m 11 389 l 333 389 l 333 392 b 258 469 281 394 250 410 l 333 1000 l 329 1000 b 83 897 308 938 232 897 l 82 892 l 168 892 l 108 469 b 11 392 100 410 67 394 z m 76 0 l 113 0 l 965 972 l 929 972 z "},"½":{"ha":976,"x_min":0,"x_max":0,"o":"m 11 389 l 333 389 l 333 392 b 258 469 281 394 250 410 l 333 1000 l 329 1000 b 83 897 308 938 232 897 l 82 892 l 168 892 l 108 469 b 11 392 100 410 67 394 z m 76 0 l 113 0 l 965 972 l 929 972 z m 681 126 b 868 269 783 201 790 206 b 979 436 935 321 969 371 b 832 589 992 528 933 585 l 833 585 b 843 426 851 554 856 511 b 676 129 828 322 778 242 z m 694 401 b 769 463 733 401 764 429 b 758 513 772 482 765 490 b 751 550 753 522 749 535 b 764 578 753 568 758 574 l 761 581 b 638 467 693 561 644 513 b 694 401 632 428 657 401 z m 557 0 l 894 0 l 943 153 l 938 153 b 847 115 919 121 899 115 l 664 115 l 557 3 z "},"↉":{"ha":1243,"x_min":0,"x_max":0,"o":"m 368 390 b 635 682 500 419 614 536 b 408 978 657 840 554 972 l 407 974 b 467 613 485 935 483 729 b 368 393 454 522 429 425 z m 294 385 l 294 389 b 232 749 213 422 214 622 b 333 969 244 842 269 940 l 332 974 b 61 682 197 947 81 826 b 294 385 39 521 143 389 z m 275 0 l 311 0 l 1164 972 l 1128 972 z m 971 -4 b 1203 157 1114 0 1190 72 b 1038 310 1214 239 1158 301 b 1208 447 1146 321 1199 375 b 1046 590 1219 524 1164 592 l 1044 586 b 1081 425 1092 569 1090 492 b 1008 311 1069 350 1040 319 l 1008 308 b 1051 132 1046 308 1064 219 b 971 0 1040 56 1031 7 z m 918 436 b 982 492 956 436 978 463 b 976 526 983 507 981 517 b 972 558 972 539 971 546 b 976 576 974 561 972 571 l 976 581 b 872 486 918 565 879 532 b 918 436 868 458 888 436 z m 904 0 l 906 4 b 868 44 876 14 867 33 b 883 79 871 57 876 67 b 899 115 890 88 896 100 b 846 181 903 150 888 181 b 781 121 813 181 786 156 b 904 0 771 50 833 13 z "},"⅓":{"ha":1044,"x_min":0,"x_max":0,"o":"m 11 389 l 333 389 l 333 392 b 258 469 281 394 250 410 l 333 1000 l 329 1000 b 83 897 308 938 232 897 l 82 892 l 168 892 l 108 469 b 11 392 100 410 67 394 z m 76 0 l 113 0 l 965 972 l 929 972 z m 772 -4 b 1004 157 915 0 992 72 b 839 310 1015 239 960 301 b 1010 447 947 321 1000 375 b 847 590 1021 524 965 592 l 846 586 b 882 425 893 569 892 492 b 810 311 871 350 842 319 l 810 308 b 853 132 847 308 865 219 b 772 0 842 56 832 7 z m 719 436 b 783 492 757 436 779 463 b 778 526 785 507 782 517 b 774 558 774 539 772 546 b 778 576 775 561 774 571 l 778 581 b 674 486 719 565 681 532 b 719 436 669 458 689 436 z m 706 0 l 707 4 b 669 44 678 14 668 33 b 685 79 672 57 678 67 b 700 115 692 88 697 100 b 647 181 704 150 689 181 b 582 121 614 181 588 156 b 706 0 572 50 635 13 z "},"⅔":{"ha":1060,"x_min":0,"x_max":0,"o":"m 135 515 b 322 658 239 590 244 594 b 433 825 390 710 425 760 b 288 978 447 917 388 974 l 288 974 b 297 815 306 943 310 900 b 131 518 283 711 233 631 z m 92 0 l 128 0 l 981 972 l 944 972 z m 150 790 b 224 851 189 790 219 818 b 213 901 226 871 221 879 b 206 939 207 911 203 924 b 219 967 208 957 213 963 l 215 969 b 92 856 147 950 99 901 b 150 790 88 817 113 790 z m 788 -4 b 1019 157 931 0 1007 72 b 854 310 1031 239 975 301 b 1025 447 963 321 1015 375 b 863 590 1036 524 981 592 l 861 586 b 897 425 908 569 907 492 b 825 311 886 350 857 319 l 825 308 b 868 132 863 308 881 219 b 788 0 857 56 847 7 z m 735 436 b 799 492 772 436 794 463 b 793 526 800 507 797 517 b 789 558 789 539 788 546 b 793 576 790 561 789 571 l 793 581 b 689 486 735 565 696 532 b 735 436 685 458 704 436 z m 11 389 l 349 389 l 399 542 l 393 542 b 301 504 374 510 353 504 l 118 504 l 11 392 z m 721 0 l 722 4 b 685 44 693 14 683 33 b 700 79 688 57 693 67 b 715 115 707 88 713 100 b 663 181 719 150 704 181 b 597 121 629 181 603 156 b 721 0 588 50 650 13 z "},"¼":{"ha":994,"x_min":0,"x_max":0,"o":"m 11 389 l 333 389 l 333 392 b 258 469 281 394 250 410 l 333 1000 l 329 1000 b 83 897 308 938 232 897 l 82 892 l 168 892 l 108 469 b 11 392 100 410 67 394 z m 76 0 l 113 0 l 965 972 l 929 972 z m 618 0 l 940 0 l 940 3 b 865 81 886 6 857 21 l 874 136 l 949 136 l 949 142 l 874 142 l 942 621 l 938 621 b 785 565 906 568 797 565 l 725 142 l 596 142 b 567 185 572 142 563 156 b 617 299 569 211 583 249 l 744 492 l 739 494 l 507 142 l 507 136 l 725 136 l 717 81 b 618 3 708 21 672 6 z "},"¾":{"ha":1036,"x_min":0,"x_max":0,"o":"m 228 385 b 458 546 369 389 447 461 b 294 699 469 628 415 690 b 464 836 403 710 454 764 b 301 979 475 913 419 981 l 301 975 b 336 814 349 958 346 881 b 265 700 326 739 297 708 l 264 697 b 308 521 301 697 319 608 b 226 389 297 444 286 396 z m 118 0 l 154 0 l 1007 972 l 971 972 z m 174 825 b 238 881 211 825 233 851 b 232 915 240 896 236 906 b 229 947 229 928 226 935 b 233 965 229 950 228 960 l 232 969 b 128 875 174 954 135 921 b 174 825 125 847 143 825 z m 660 0 l 982 0 l 982 3 b 907 81 928 6 899 21 l 915 136 l 990 136 l 990 142 l 915 142 l 983 621 l 979 621 b 826 565 947 568 839 565 l 767 142 l 638 142 b 608 185 614 142 604 156 b 658 299 611 211 625 249 l 786 492 l 781 494 l 549 142 l 549 136 l 767 136 l 758 81 b 660 3 750 21 714 6 z m 160 389 l 163 393 b 125 433 133 403 124 422 b 139 468 126 446 132 456 b 154 504 146 476 151 489 b 101 569 158 539 143 569 b 36 510 68 569 42 544 b 160 389 26 439 89 401 z "},"⅕":{"ha":1044,"x_min":0,"x_max":0,"o":"m 11 389 l 333 389 l 333 392 b 258 469 281 394 250 410 l 333 1000 l 329 1000 b 83 897 308 938 232 897 l 82 892 l 168 892 l 108 469 b 11 392 100 410 67 394 z m 76 0 l 113 0 l 965 972 l 929 972 z m 721 468 l 983 468 l 1028 621 l 1025 621 b 933 583 1007 590 985 583 l 753 583 z m 778 -3 b 1004 161 915 3 992 72 b 813 332 1019 264 947 332 b 683 308 747 332 710 319 l 722 446 l 717 446 l 678 304 l 683 304 b 767 322 713 315 740 322 b 854 136 853 322 868 239 b 776 0 843 57 832 10 z m 710 -1 l 711 3 b 669 44 678 11 668 33 b 685 79 672 57 678 67 b 700 115 692 88 697 100 b 647 181 704 150 689 181 b 582 121 614 181 588 156 b 710 -1 572 49 636 10 z "},"⅖":{"ha":1060,"x_min":0,"x_max":0,"o":"m 135 515 b 322 658 239 590 244 594 b 433 825 390 710 425 760 b 288 978 447 917 388 974 l 288 974 b 297 815 306 943 310 900 b 131 518 283 711 233 631 z m 92 0 l 128 0 l 981 972 l 944 972 z m 150 790 b 224 851 189 790 219 818 b 213 901 226 871 221 879 b 206 939 207 911 203 924 b 219 967 208 957 213 963 l 215 969 b 92 856 147 950 99 901 b 150 790 88 817 113 790 z m 736 468 l 999 468 l 1043 621 l 1040 621 b 949 583 1022 590 1000 583 l 768 583 z m 11 389 l 349 389 l 399 542 l 393 542 b 301 504 374 510 353 504 l 118 504 l 11 392 z m 793 -3 b 1019 161 931 3 1007 72 b 828 332 1035 264 963 332 b 699 308 763 332 725 319 l 738 446 l 732 446 l 693 304 l 699 304 b 782 322 728 315 756 322 b 869 136 868 322 883 239 b 792 0 858 57 847 10 z m 725 -1 l 726 3 b 685 44 693 11 683 33 b 700 79 688 57 693 67 b 715 115 707 88 713 100 b 663 181 719 150 704 181 b 597 121 629 181 603 156 b 725 -1 588 49 651 10 z "},"⅗":{"ha":1086,"x_min":0,"x_max":0,"o":"m 228 385 b 458 546 369 389 447 461 b 294 699 469 628 415 690 b 464 836 403 710 454 764 b 301 979 475 913 419 981 l 301 975 b 336 814 349 958 346 881 b 265 700 326 739 297 708 l 264 697 b 308 521 301 697 319 608 b 226 389 297 444 286 396 z m 118 0 l 154 0 l 1007 972 l 971 972 z m 174 825 b 238 881 211 825 233 851 b 232 915 240 896 236 906 b 229 947 229 928 226 935 b 233 965 229 950 228 960 l 232 969 b 128 875 174 954 135 921 b 174 825 125 847 143 825 z m 763 468 l 1025 468 l 1069 621 l 1067 621 b 975 583 1049 590 1026 583 l 794 583 z m 160 389 l 163 393 b 125 433 133 403 124 422 b 139 468 126 446 132 456 b 154 504 146 476 151 489 b 101 569 158 539 143 569 b 36 510 68 569 42 544 b 160 389 26 439 89 401 z m 819 -3 b 1046 161 957 3 1033 72 b 854 332 1061 264 989 332 b 725 308 789 332 751 319 l 764 446 l 758 446 l 719 304 l 725 304 b 808 322 754 315 782 322 b 896 136 894 322 910 239 b 818 0 885 57 874 10 z m 751 -1 l 753 3 b 711 44 719 11 710 33 b 726 79 714 57 719 67 b 742 115 733 88 739 100 b 689 181 746 150 731 181 b 624 121 656 181 629 156 b 751 -1 614 49 678 10 z "},"⅘":{"ha":1147,"x_min":0,"x_max":0,"o":"m 142 389 l 464 389 l 464 392 b 389 469 411 394 381 410 l 397 525 l 472 525 l 474 531 l 399 531 l 465 1010 l 461 1010 b 308 954 431 957 321 954 l 250 531 l 121 531 b 90 574 97 531 86 544 b 140 688 94 600 107 638 l 268 881 l 263 883 l 32 531 l 31 525 l 249 525 l 240 469 b 142 392 232 410 197 394 z m 179 0 l 215 0 l 1068 972 l 1032 972 z m 824 468 l 1086 468 l 1131 621 l 1128 621 b 1036 583 1110 590 1088 583 l 856 583 z m 881 -3 b 1107 161 1018 3 1094 72 b 915 332 1122 264 1050 332 b 786 308 850 332 813 319 l 825 446 l 819 446 l 781 304 l 786 304 b 869 322 815 315 843 322 b 957 136 956 322 971 239 b 879 0 946 57 935 10 z m 813 -1 l 814 3 b 772 44 781 11 771 33 b 788 79 775 57 781 67 b 803 115 794 88 800 100 b 750 181 807 150 792 181 b 685 121 717 181 690 156 b 813 -1 675 49 739 10 z "},"⅙":{"ha":1072,"x_min":0,"x_max":0,"o":"m 11 389 l 333 389 l 333 392 b 258 469 281 394 250 410 l 333 1000 l 329 1000 b 83 897 308 938 232 897 l 82 892 l 168 892 l 108 469 b 11 392 100 410 67 394 z m 76 0 l 113 0 l 965 972 l 929 972 z m 761 -4 l 764 0 b 767 336 732 24 735 110 b 856 582 789 496 807 565 l 854 586 b 601 256 694 572 628 447 b 761 -4 581 108 626 11 z m 956 439 b 1025 496 992 439 1021 461 b 922 585 1032 546 981 576 l 922 581 b 931 554 928 575 932 568 b 917 528 929 547 928 540 b 901 496 908 519 904 511 b 956 439 897 465 914 439 z m 829 -4 b 1033 167 939 6 1018 61 b 846 331 1046 261 979 331 b 813 329 832 331 822 332 l 813 325 b 818 324 814 324 815 324 b 878 138 872 324 899 285 b 832 -1 867 58 857 14 z "},"⅚":{"ha":1114,"x_min":0,"x_max":0,"o":"m 176 857 l 439 857 l 482 1010 l 479 1010 b 388 972 461 979 439 972 l 207 972 z m 118 0 l 154 0 l 1007 972 l 971 972 z m 232 386 b 460 550 369 392 447 461 b 268 721 474 653 403 721 b 138 697 203 721 165 708 l 176 835 l 171 835 l 132 693 l 138 693 b 222 711 167 704 196 711 b 308 525 308 711 322 628 b 231 389 297 446 286 399 z m 803 -4 l 806 0 b 808 336 774 24 776 110 b 897 582 831 496 849 565 l 896 586 b 643 256 736 572 669 447 b 803 -4 622 108 668 11 z m 997 439 b 1067 496 1033 439 1063 461 b 964 585 1074 546 1022 576 l 964 581 b 972 554 969 575 974 568 b 958 528 971 547 969 540 b 943 496 950 519 946 511 b 997 439 939 465 956 439 z m 164 388 l 165 392 b 125 433 132 400 124 422 b 139 468 126 446 132 456 b 154 504 146 476 151 489 b 101 569 158 539 143 569 b 36 510 68 569 42 544 b 164 388 26 438 90 399 z m 871 -4 b 1075 167 981 6 1060 61 b 888 331 1088 261 1021 331 b 854 329 874 331 864 332 l 854 325 b 860 324 856 324 857 324 b 919 138 914 324 940 285 b 874 -1 908 58 899 14 z "},"⅐":{"ha":1051,"x_min":0,"x_max":0,"o":"m 11 389 l 333 389 l 333 392 b 258 469 281 394 250 410 l 333 1000 l 329 1000 b 83 897 308 938 232 897 l 82 892 l 168 892 l 108 469 b 11 392 100 410 67 394 z m 76 0 l 113 0 l 965 972 l 929 972 z m 686 431 l 689 431 b 782 468 710 463 731 468 l 997 468 l 1079 583 l 735 583 z m 761 -3 b 851 83 811 -3 843 25 b 971 431 872 231 906 329 l 963 431 b 782 250 910 389 835 317 b 697 78 736 193 704 126 b 761 -3 689 22 714 -3 z "},"⅛":{"ha":1107,"x_min":0,"x_max":0,"o":"m 11 389 l 333 389 l 333 392 b 258 469 281 394 250 410 l 333 1000 l 329 1000 b 83 897 308 938 232 897 l 82 892 l 168 892 l 108 469 b 11 392 100 410 67 394 z m 76 0 l 113 0 l 965 972 l 929 972 z m 775 -3 l 776 1 b 735 171 742 19 722 76 b 815 308 746 246 779 294 l 815 313 b 792 463 790 332 781 386 b 853 581 800 524 824 567 l 851 586 b 668 449 756 578 681 535 b 806 310 657 364 717 319 b 586 153 692 300 600 251 b 775 -3 572 53 657 4 z m 843 -3 b 1065 153 960 6 1051 56 b 893 310 1079 251 1001 300 b 1069 449 983 319 1058 364 b 919 586 1082 535 1014 578 l 919 581 b 946 435 944 563 957 513 b 878 313 936 368 910 325 l 878 308 b 917 139 911 289 929 231 b 842 3 906 65 878 19 z "},"⅜":{"ha":1149,"x_min":0,"x_max":0,"o":"m 228 385 b 458 546 369 389 447 461 b 294 699 469 628 415 690 b 464 836 403 710 454 764 b 301 979 475 913 419 981 l 301 975 b 336 814 349 958 346 881 b 265 700 326 739 297 708 l 264 697 b 308 521 301 697 319 608 b 226 389 297 444 286 396 z m 118 0 l 154 0 l 1007 972 l 971 972 z m 174 825 b 238 881 211 825 233 851 b 232 915 240 896 236 906 b 229 947 229 928 226 935 b 233 965 229 950 228 960 l 232 969 b 128 875 174 954 135 921 b 174 825 125 847 143 825 z m 817 -3 l 818 1 b 776 171 783 19 764 76 b 857 308 788 246 821 294 l 857 313 b 833 463 832 332 822 386 b 894 581 842 524 865 567 l 893 586 b 710 449 797 578 722 535 b 847 310 699 364 758 319 b 628 153 733 300 642 251 b 817 -3 614 53 699 4 z m 885 -3 b 1107 153 1001 6 1093 56 b 935 310 1121 251 1043 300 b 1111 449 1025 319 1100 364 b 961 586 1124 535 1056 578 l 961 581 b 988 435 986 563 999 513 b 919 313 978 368 951 325 l 919 308 b 958 139 953 289 971 231 b 883 3 947 65 919 19 z m 160 389 l 163 393 b 125 433 133 403 124 422 b 139 468 126 446 132 456 b 154 504 146 476 151 489 b 101 569 158 539 143 569 b 36 510 68 569 42 544 b 160 389 26 439 89 401 z "},"⅝":{"ha":1149,"x_min":0,"x_max":0,"o":"m 176 857 l 439 857 l 482 1010 l 479 1010 b 388 972 461 979 439 972 l 207 972 z m 118 0 l 154 0 l 1007 972 l 971 972 z m 232 386 b 460 550 369 392 447 461 b 268 721 474 653 403 721 b 138 697 203 721 165 708 l 176 835 l 171 835 l 132 693 l 138 693 b 222 711 167 704 196 711 b 308 525 308 711 322 628 b 231 389 297 446 286 399 z m 817 -3 l 818 1 b 776 171 783 19 764 76 b 857 308 788 246 821 294 l 857 313 b 833 463 832 332 822 386 b 894 581 842 524 865 567 l 893 586 b 710 449 797 578 722 535 b 847 310 699 364 758 319 b 628 153 733 300 642 251 b 817 -3 614 53 699 4 z m 885 -3 b 1107 153 1001 6 1093 56 b 935 310 1121 251 1043 300 b 1111 449 1025 319 1100 364 b 961 586 1124 535 1056 578 l 961 581 b 988 435 986 563 999 513 b 919 313 978 368 951 325 l 919 308 b 958 139 953 289 971 231 b 883 3 947 65 919 19 z m 164 388 l 165 392 b 125 433 132 400 124 422 b 139 468 126 446 132 456 b 154 504 146 476 151 489 b 101 569 158 539 143 569 b 36 510 68 569 42 544 b 164 388 26 438 90 399 z "},"⅞":{"ha":1044,"x_min":0,"x_max":0,"o":"m 72 819 l 75 819 b 168 857 94 851 117 857 l 383 857 l 464 972 l 119 972 z m 14 0 l 50 0 l 903 972 l 867 972 z m 146 386 b 238 472 196 386 229 414 b 357 819 258 619 292 718 l 349 819 b 168 639 296 778 219 706 b 82 467 122 582 89 515 b 146 386 74 411 99 386 z m 713 -3 l 714 1 b 672 171 679 19 660 76 b 753 308 683 246 717 294 l 753 313 b 729 463 728 332 718 386 b 790 581 738 524 761 567 l 789 586 b 606 449 693 578 618 535 b 743 310 594 364 654 319 b 524 153 629 300 538 251 b 713 -3 510 53 594 4 z m 781 -3 b 1003 153 897 6 989 56 b 831 310 1017 251 939 300 b 1007 449 921 319 996 364 b 857 586 1019 535 951 578 l 857 581 b 883 435 882 563 894 513 b 815 313 874 368 847 325 l 815 308 b 854 139 849 289 867 231 b 779 3 843 65 815 19 z "},"⅑":{"ha":1072,"x_min":0,"x_max":0,"o":"m 11 389 l 333 389 l 333 392 b 258 469 281 394 250 410 l 333 1000 l 329 1000 b 83 897 308 938 232 897 l 82 892 l 168 892 l 108 469 b 11 392 100 410 67 394 z m 76 0 l 113 0 l 965 972 l 929 972 z m 810 253 b 843 251 824 253 833 251 l 843 257 l 838 257 b 778 444 786 257 757 296 b 826 582 789 525 800 569 l 826 588 b 624 415 717 576 639 521 b 810 253 610 319 676 253 z m 801 -4 b 1056 326 963 10 1029 136 b 894 586 1076 475 1032 572 l 893 582 b 889 247 925 560 921 474 b 801 0 865 85 850 17 z m 735 -3 l 735 1 b 726 26 729 7 724 15 b 739 53 726 35 729 43 b 753 88 747 63 750 72 b 699 143 757 118 742 143 b 632 88 664 143 636 121 b 735 -3 625 38 676 7 z "},"⅒":{"ha":1465,"x_min":0,"x_max":0,"o":"m 11 389 l 333 389 l 333 392 b 258 469 281 394 250 410 l 333 1000 l 329 1000 b 83 897 308 938 232 897 l 82 892 l 168 892 l 108 469 b 11 392 100 410 67 394 z m 76 0 l 113 0 l 965 972 l 929 972 z m 557 0 l 879 0 l 879 3 b 804 81 825 6 796 21 l 879 611 l 875 611 b 628 508 853 549 776 508 l 628 503 l 714 503 l 654 81 b 557 3 646 21 611 6 z m 1178 1 b 1444 293 1310 31 1424 147 b 1217 589 1467 451 1364 583 l 1217 585 b 1275 224 1294 546 1292 340 b 1176 4 1263 133 1239 36 z m 1103 -4 l 1104 0 b 1040 360 1021 33 1022 233 b 1143 581 1054 453 1079 551 l 1142 585 b 871 293 1006 558 890 438 b 1103 -4 847 132 953 0 z "},".":{"ha":236,"x_min":0,"x_max":0,"o":"m 69 -7 b 178 89 121 -7 169 35 b 96 183 185 142 147 183 b -12 89 42 183 -6 142 b 69 -7 -21 35 15 -7 z "},",":{"ha":244,"x_min":0,"x_max":0,"o":"m -4 -183 b 181 61 94 -117 168 -31 b 93 183 192 140 154 183 b -12 89 36 183 -6 140 b 33 -4 -18 47 -3 18 b 74 -51 68 -24 75 -35 b -11 -178 68 -87 28 -142 z "},":":{"ha":244,"x_min":0,"x_max":0,"o":"m 163 479 b 251 558 206 479 246 514 b 185 636 258 601 228 636 b 94 558 140 636 101 601 b 163 479 89 514 118 479 z m 94 -7 b 183 72 138 -7 178 28 b 117 150 190 115 160 150 b 26 72 72 150 33 115 b 94 -7 21 28 50 -7 z "},";":{"ha":244,"x_min":0,"x_max":0,"o":"m 163 479 b 251 558 206 479 246 514 b 185 636 258 601 228 636 b 94 558 140 636 101 601 b 163 479 89 514 118 479 z m 35 -107 b 183 68 117 -65 174 0 b 117 150 190 115 160 150 b 26 75 72 150 33 115 b 56 6 22 44 33 26 b 79 -39 74 -10 82 -22 b 32 -103 76 -61 64 -76 z "},"…":{"ha":244,"x_min":0,"x_max":0,"o":"m 96 183 b -12 89 42 183 -6 142 b 69 -7 -21 35 15 -7 b 178 89 121 -7 169 35 b 96 183 185 142 147 183 z "},"!":{"ha":378,"x_min":0,"x_max":0,"o":"m 99 272 l 299 272 l 443 972 l 151 972 z m 161 -7 b 269 89 213 -7 261 35 b 188 183 276 142 239 183 b 79 89 133 183 86 142 b 161 -7 71 35 107 -7 z "},"¡":{"ha":378,"x_min":0,"x_max":0,"o":"m 194 524 b 301 618 246 524 294 565 b 221 714 310 672 272 714 b 111 618 167 714 119 672 b 194 524 104 565 140 524 z m -64 -265 l 228 -265 l 281 435 l 81 435 z "},"?":{"ha":601,"x_min":0,"x_max":0,"o":"m 249 251 l 254 251 b 431 457 269 326 349 390 b 644 747 575 572 635 669 b 386 981 664 885 564 976 l 385 974 b 419 756 415 947 438 881 b 326 529 407 668 385 608 b 250 357 289 478 258 418 b 249 251 246 324 244 289 z m 168 668 b 290 769 232 668 282 715 b 271 854 294 804 288 819 b 260 917 264 871 256 894 b 275 960 261 933 267 946 l 274 967 b 74 778 163 935 83 856 b 168 668 64 714 104 668 z m 222 -7 b 311 72 265 -7 306 28 b 244 150 318 115 288 150 b 154 72 200 150 161 115 b 222 -7 149 28 178 -7 z "},"¿":{"ha":563,"x_min":0,"x_max":0,"o":"m 339 557 b 429 635 383 557 424 592 b 361 714 436 679 406 714 b 272 635 318 714 279 679 b 339 557 267 592 296 557 z m 196 -274 l 197 -267 b 163 -49 169 -240 144 -174 b 257 178 175 39 199 99 b 333 350 294 229 325 289 b 335 456 339 383 338 418 l 329 456 b 151 250 314 381 235 317 b -61 -40 8 135 -50 38 b 196 -274 -81 -178 21 -269 z m 311 -260 b 510 -71 419 -228 499 -149 b 414 39 518 -7 479 39 b 293 -62 351 39 300 -8 b 313 -147 288 -97 296 -112 b 324 -210 319 -164 326 -187 b 308 -253 321 -226 318 -239 z "},"·":{"ha":286,"x_min":0,"x_max":0,"o":"m 133 271 b 222 350 176 271 217 306 b 156 428 229 393 199 428 b 65 350 111 428 72 393 b 133 271 60 306 89 271 z "},"•":{"ha":439,"x_min":0,"x_max":0,"o":"m 201 194 b 375 350 286 194 363 263 b 244 504 388 436 329 504 b 65 350 156 504 78 436 b 201 194 53 263 113 194 z "},"*":{"ha":507,"x_min":0,"x_max":0,"o":"m 340 836 l 346 836 b 389 919 353 876 371 899 b 429 992 407 940 425 963 b 374 1053 433 1022 413 1053 b 301 992 335 1053 306 1022 b 322 919 297 963 310 940 b 340 836 335 899 347 876 z m 328 826 l 332 832 b 285 900 300 851 292 876 b 218 971 276 931 258 971 b 143 904 182 971 149 939 b 215 840 138 865 165 840 b 243 842 225 840 225 840 b 271 843 261 843 261 843 b 328 826 289 843 308 840 z m 356 826 b 418 843 381 840 400 843 b 446 842 428 843 428 843 b 474 840 464 840 464 840 b 563 904 524 840 557 865 b 507 971 568 939 543 971 b 421 900 467 971 438 931 b 354 832 408 876 392 851 z m 176 674 b 263 744 217 674 246 714 b 329 813 276 768 292 793 l 328 818 b 265 801 303 804 283 801 b 238 803 256 801 256 801 b 210 804 219 804 219 804 b 121 740 160 804 126 779 b 176 674 115 706 140 674 z m 465 674 b 540 740 501 674 535 706 b 468 804 546 779 518 804 b 440 803 458 804 458 804 b 413 801 422 801 422 801 b 356 818 394 801 375 804 l 351 813 b 399 744 383 793 393 768 b 465 674 407 714 425 674 z m 310 592 b 382 653 349 592 378 622 b 361 725 386 682 374 704 b 343 808 349 746 338 768 l 338 808 b 294 725 332 768 313 746 b 254 653 276 704 258 682 b 310 592 250 622 271 592 z "},"#":{"ha":800,"x_min":0,"x_max":0,"o":"m 21 0 l 96 0 l 222 332 l 489 332 l 363 0 l 438 0 l 563 332 l 692 332 l 697 343 l 568 343 l 681 636 l 796 636 l 800 649 l 685 649 l 810 972 l 736 972 l 611 649 l 344 649 l 469 972 l 394 972 l 269 649 l 147 649 l 142 636 l 265 636 l 153 343 l 44 343 l 39 332 l 147 332 z m 228 343 l 340 636 l 607 636 l 494 343 z "},"/":{"ha":632,"x_min":0,"x_max":0,"o":"m -67 -199 l -31 -199 l 711 972 l 675 972 z "},"\\":{"ha":632,"x_min":0,"x_max":0,"o":"m 511 -199 l 547 -199 l 133 972 l 97 972 z "},"(":{"ha":289,"x_min":0,"x_max":0,"o":"m 164 -196 l 172 -189 b 140 394 104 -103 103 133 b 336 978 176 656 244 892 l 331 985 b 49 394 196 899 85 658 b 164 -196 11 131 54 -110 z "},")":{"ha":289,"x_min":0,"x_max":0,"o":"m -28 -196 b 254 394 107 -110 217 131 b 139 985 290 658 249 899 l 131 978 b 163 394 197 892 199 656 b -33 -189 125 133 57 -103 z "},"{":{"ha":290,"x_min":0,"x_max":0,"o":"m 172 -194 l 174 -189 b 124 -87 126 -189 115 -146 l 181 318 b 71 396 190 382 85 396 b 203 474 85 396 193 410 l 260 881 b 338 982 268 938 290 982 l 339 988 b 189 881 254 988 199 954 l 132 472 b 49 399 124 417 92 404 l 49 393 b 110 319 90 388 118 375 l 53 -87 b 172 -194 43 -161 85 -194 z "},"}":{"ha":290,"x_min":0,"x_max":0,"o":"m -35 -194 b 115 -87 53 -194 106 -161 l 172 319 b 256 393 181 375 211 388 l 256 399 b 194 472 215 404 186 417 l 251 881 b 132 988 261 954 217 988 l 131 982 b 181 881 178 982 189 938 l 124 474 b 233 396 114 410 219 396 b 101 318 219 396 111 382 l 44 -87 b -33 -189 36 -146 14 -189 z "},"[":{"ha":292,"x_min":0,"x_max":0,"o":"m -32 -178 l 176 -178 l 178 -167 l 78 -167 l 236 961 l 336 961 l 338 972 l 129 972 z "},"]":{"ha":292,"x_min":0,"x_max":0,"o":"m -32 -178 l 176 -178 l 338 972 l 129 972 l 128 961 l 228 961 l 69 -167 l -31 -167 z "},"-":{"ha":585,"x_min":0,"x_max":0,"o":"m 72 394 l 528 394 l 531 418 l 75 418 z "},"–":{"ha":724,"x_min":0,"x_max":0,"o":"m 72 394 l 667 394 l 669 419 l 75 419 z "},"—":{"ha":1001,"x_min":0,"x_max":0,"o":"m 72 394 l 944 394 l 947 419 l 75 419 z "},"_":{"ha":640,"x_min":0,"x_max":0,"o":"m -51 -189 l 543 -189 l 546 -164 l -49 -164 z "},"‚":{"ha":244,"x_min":0,"x_max":0,"o":"m -4 -183 b 181 61 94 -117 168 -31 b 93 183 192 140 154 183 b -12 89 36 183 -6 140 b 33 -4 -18 47 -3 18 b 74 -51 68 -24 75 -35 b -11 -178 68 -87 28 -142 z "},"„":{"ha":467,"x_min":0,"x_max":0,"o":"m -4 -183 b 181 61 94 -117 168 -31 b 93 183 192 140 154 183 b -12 89 36 183 -6 140 b 33 -4 -18 47 -3 18 b 74 -51 68 -24 75 -35 b -11 -178 68 -87 28 -142 z m 218 -183 b 403 61 317 -117 390 -31 b 315 183 414 140 376 183 b 210 89 258 183 217 140 b 256 -4 204 47 219 18 b 296 -51 290 -24 297 -35 b 211 -178 290 -87 250 -142 z "},"“":{"ha":467,"x_min":0,"x_max":0,"o":"m 272 1060 b 89 815 175 993 103 907 b 176 693 78 736 114 693 b 283 788 233 693 275 736 b 236 881 289 829 272 858 b 197 928 201 900 194 911 b 282 1054 201 964 242 1018 z m 494 1060 b 311 815 397 993 325 907 b 399 693 300 736 336 693 b 506 788 456 693 497 736 b 458 881 511 829 494 858 b 419 928 424 900 417 911 b 504 1054 424 964 464 1018 z "},"”":{"ha":467,"x_min":0,"x_max":0,"o":"m 114 650 b 297 894 211 717 285 803 b 211 1017 308 974 272 1017 b 104 922 154 1017 111 974 b 151 829 99 881 114 851 b 190 782 186 810 193 799 b 106 656 185 746 144 692 z m 336 650 b 519 894 433 717 507 803 b 433 1017 531 974 494 1017 b 326 922 376 1017 333 974 b 374 829 321 881 336 851 b 413 782 408 810 415 799 b 328 656 407 746 367 692 z "},"‘":{"ha":258,"x_min":0,"x_max":0,"o":"m 288 1060 b 103 815 190 993 117 907 b 190 693 92 736 129 693 b 299 788 247 693 290 736 b 250 881 304 829 288 858 b 213 928 217 900 210 911 b 296 1054 217 964 257 1018 z "},"’":{"ha":244,"x_min":0,"x_max":0,"o":"m 114 650 b 297 894 211 717 285 803 b 211 1017 308 974 272 1017 b 104 922 154 1017 111 974 b 151 829 99 881 114 851 b 190 782 186 810 193 799 b 106 656 185 746 144 692 z "},"«":{"ha":611,"x_min":0,"x_max":0,"o":"m 257 117 l 279 117 l 143 406 l 360 694 l 338 694 l 32 406 z m 535 117 l 557 117 l 421 406 l 638 694 l 615 694 l 310 406 z "},"»":{"ha":611,"x_min":0,"x_max":0,"o":"m -8 117 l 14 117 l 319 406 l 94 694 l 72 694 l 208 406 z m 269 117 l 292 117 l 597 406 l 372 694 l 350 694 l 486 406 z "},"‹":{"ha":333,"x_min":0,"x_max":0,"o":"m 257 117 l 279 117 l 143 406 l 360 694 l 338 694 l 32 406 z "},"›":{"ha":333,"x_min":0,"x_max":0,"o":"m -8 117 l 14 117 l 319 406 l 94 694 l 72 694 l 208 406 z "},"\"":{"ha":321,"x_min":0,"x_max":0,"o":"m 67 656 l 90 656 l 228 972 l 111 972 z m 261 656 l 285 656 l 422 972 l 306 972 z "},"'":{"ha":126,"x_min":0,"x_max":0,"o":"m 67 656 l 90 656 l 228 972 l 111 972 z "},"¢":{"ha":731,"x_min":0,"x_max":0,"o":"m 693 1368 l 411 1368 l 411 1365 l 693 1365 z m 674 1229 l 392 1229 l 392 1226 l 674 1226 z m 654 1090 l 372 1090 l 372 1088 l 654 1088 z m 635 951 l 353 951 l 353 949 l 635 949 z m 504 118 l 376 118 l 396 254 l 538 254 l 538 257 l 396 257 l 415 393 l 557 393 l 557 396 l 415 396 l 435 532 l 576 532 l 576 535 l 435 535 l 454 671 l 596 671 l 596 674 l 454 674 l 474 810 l 615 810 l 615 813 l 474 813 l 490 931 l 482 931 l 465 813 l 333 813 l 333 810 l 465 810 l 446 674 l 328 674 b 417 786 347 729 375 769 l 417 793 b 38 446 233 768 63 622 b 236 118 17 296 100 172 l 236 115 l 242 115 b 364 89 279 101 319 92 l 349 -21 l 217 -21 l 215 -24 l 347 -24 l 346 -42 l 354 -42 l 356 -24 l 497 -24 l 499 -21 l 357 -21 l 372 88 l 397 88 b 653 186 510 88 592 132 l 647 192 b 504 118 603 156 551 131 z m 536 790 l 533 783 b 697 517 618 750 669 643 l 703 517 l 718 792 l 713 792 b 658 754 708 774 693 754 b 603 769 646 754 631 758 b 536 790 578 779 556 786 z m 446 671 l 426 535 l 297 535 b 328 671 304 586 314 632 z m 407 396 l 285 396 b 296 524 285 438 290 482 l 297 532 l 426 532 z m 388 257 l 293 257 b 285 393 285 299 283 344 l 407 393 z m 368 121 b 293 254 328 144 304 193 l 388 254 z m 382 115 l 493 115 b 426 107 469 110 447 107 b 382 115 410 107 394 110 z m 196 -162 l 478 -162 l 479 -160 l 197 -160 z "},"¤":{"ha":769,"x_min":0,"x_max":0,"o":"m 75 175 l 211 294 b 368 231 250 256 304 231 b 544 294 432 231 494 256 l 647 175 l 664 190 l 561 310 b 649 476 607 354 640 413 b 608 643 658 540 640 599 l 744 763 l 732 778 l 594 658 b 438 722 556 697 501 722 b 261 658 374 722 311 697 l 160 778 l 142 763 l 244 643 b 157 476 199 599 167 540 b 197 310 149 413 165 354 l 61 190 z m 371 253 b 179 476 247 253 163 353 b 435 700 197 600 311 700 b 626 476 558 700 644 600 b 371 253 610 353 494 253 z "},"$":{"ha":832,"x_min":0,"x_max":0,"o":"m 489 610 b 429 644 468 622 447 633 l 489 1069 l 481 1069 l 421 649 b 226 853 269 740 219 797 b 396 972 235 913 314 957 l 396 982 b 103 707 246 958 124 853 b 346 364 88 593 129 488 b 379 344 357 357 368 351 l 317 -101 l 325 -101 l 386 340 b 578 129 547 249 588 200 b 449 4 568 65 518 22 l 450 -6 b 746 269 604 17 724 111 b 489 610 767 417 683 500 z m 743 708 l 749 708 l 760 972 l 754 972 b 696 938 747 954 729 938 b 615 954 676 938 654 940 b 526 979 585 964 554 972 l 524 969 b 743 708 640 939 713 835 z m 42 283 l 36 283 l -4 0 l 1 0 b 75 60 7 25 36 60 b 147 40 99 60 115 56 b 299 -8 203 11 250 -3 l 301 3 b 42 283 157 29 63 139 z "},"€":{"ha":1018,"x_min":0,"x_max":0,"o":"m 838 1271 l 556 1271 l 556 1268 l 838 1268 z m 818 1132 l 536 1132 l 536 1129 l 818 1129 z m 799 993 l 517 993 l 517 990 l 799 990 z m 1038 972 l 1032 972 b 975 925 1025 953 1011 925 b 910 942 956 925 942 929 b 760 979 876 954 821 972 l 757 972 b 1018 693 883 949 985 843 l 1024 693 z m 629 6 b 556 18 601 6 578 10 l 663 18 l 663 21 l 549 21 b 429 157 492 44 454 92 l 682 157 l 682 160 l 428 160 b 392 389 403 222 392 301 l 714 389 l 715 397 l 392 397 b 403 583 390 456 394 519 l 742 583 l 743 592 l 404 592 l 407 618 b 633 969 435 811 497 938 l 633 976 b 150 592 414 947 224 790 l 65 592 l 64 583 l 147 583 b 124 486 136 551 128 519 b 119 397 119 456 118 426 l 38 397 l 36 389 l 119 389 b 394 21 132 219 238 81 l 381 21 l 381 18 l 403 18 b 574 -11 454 -1 513 -11 b 908 97 671 -11 804 19 l 904 103 b 629 6 803 29 675 6 z m 779 854 l 497 854 l 497 851 l 779 851 z m 478 713 l 760 713 l 760 715 l 478 715 z m 740 576 l 458 576 l 458 574 l 740 574 z m 439 435 l 721 435 l 721 438 l 439 438 z m 701 296 l 701 299 l 419 299 l 419 296 z m 361 -121 l 643 -121 l 643 -118 l 361 -118 z m 342 -260 l 624 -260 l 624 -257 l 342 -257 z "},"£":{"ha":764,"x_min":0,"x_max":0,"o":"m 1 0 b 390 385 171 35 364 203 b 397 472 394 413 396 442 l 599 472 l 599 481 l 396 481 b 392 607 397 522 394 565 b 394 828 388 685 385 761 b 532 974 407 921 453 974 b 601 911 581 974 608 957 b 578 864 600 897 593 883 b 550 800 564 846 553 826 b 644 700 542 746 572 700 b 760 800 704 700 751 740 b 519 979 775 914 647 979 b 132 717 303 979 156 878 b 135 515 125 661 128 592 l 138 481 l 60 481 l 60 472 l 139 472 b 136 232 144 394 147 311 b 1 6 122 128 83 40 z m 197 0 l 640 0 l 706 232 l 700 232 b 336 8 617 68 522 8 l 199 8 z "},"¥":{"ha":976,"x_min":0,"x_max":0,"o":"m 621 432 l 506 839 b 497 903 497 856 494 882 b 618 967 504 947 547 964 l 618 972 l 69 972 l 69 967 b 244 839 158 963 207 938 l 363 429 l 208 429 l 207 421 l 365 421 l 369 407 l 346 235 l 182 235 l 181 226 l 344 226 l 331 133 b 168 6 317 35 260 10 l 168 0 l 704 0 l 704 6 b 578 133 615 10 564 35 l 592 226 l 758 226 l 760 235 l 593 235 l 618 421 l 785 421 l 786 429 l 619 429 z m 694 972 l 694 967 b 806 868 761 961 817 953 b 750 708 800 836 776 764 l 758 708 b 1082 967 875 944 974 960 l 1082 972 z "},"+":{"ha":872,"x_min":0,"x_max":0,"o":"m 392 110 l 414 110 l 454 396 l 740 396 l 743 418 l 457 418 l 497 704 l 475 704 l 435 418 l 149 418 l 146 396 l 432 396 z "},"−":{"ha":872,"x_min":0,"x_max":0,"o":"m 146 396 l 740 396 l 743 418 l 149 418 z "},"×":{"ha":811,"x_min":0,"x_max":0,"o":"m 125 140 l 411 392 l 628 140 l 646 156 l 429 407 l 715 658 l 703 674 l 417 422 l 200 674 l 182 658 l 399 407 l 113 156 z "},"÷":{"ha":872,"x_min":0,"x_max":0,"o":"m 464 535 b 542 604 501 535 536 565 b 483 674 547 642 521 674 b 403 604 444 674 408 642 b 464 535 397 565 425 535 z m 146 396 l 740 396 l 743 418 l 149 418 z m 408 140 b 486 210 446 140 481 171 b 428 279 492 247 465 279 b 347 210 389 279 353 247 b 408 140 342 171 369 140 z "},"=":{"ha":872,"x_min":0,"x_max":0,"o":"m 161 507 l 756 507 l 758 529 l 164 529 z m 126 257 l 721 257 l 724 279 l 129 279 z "},"≠":{"ha":872,"x_min":0,"x_max":0,"o":"m 290 133 l 365 257 l 721 257 l 724 279 l 379 279 l 517 507 l 756 507 l 758 529 l 529 529 l 617 672 l 599 681 l 506 529 l 164 529 l 161 507 l 493 507 l 356 279 l 129 279 l 126 257 l 343 257 l 272 142 z "},">":{"ha":869,"x_min":0,"x_max":0,"o":"m 103 94 l 736 386 l 740 415 l 190 710 l 189 701 l 668 401 l 104 103 z "},"<":{"ha":869,"x_min":0,"x_max":0,"o":"m 694 94 l 696 103 l 215 401 l 781 701 l 782 710 l 149 415 l 144 386 z "},"≥":{"ha":872,"x_min":0,"x_max":0,"o":"m 126 261 l 751 497 l 756 526 l 190 710 l 189 701 l 672 510 l 128 269 z m 111 146 l 706 146 l 708 168 l 114 168 z "},"≤":{"ha":872,"x_min":0,"x_max":0,"o":"m 718 261 l 719 269 l 242 510 l 781 701 l 782 710 l 164 526 l 160 497 z m 111 146 l 706 146 l 708 168 l 114 168 z "},"±":{"ha":872,"x_min":0,"x_max":0,"o":"m 411 249 l 433 249 l 464 465 l 750 465 l 753 488 l 467 488 l 497 704 l 475 704 l 444 488 l 158 488 l 156 465 l 442 465 z m 111 146 l 706 146 l 708 168 l 114 168 z "},"≈":{"ha":872,"x_min":0,"x_max":0,"o":"m 582 394 b 763 558 707 394 751 500 l 753 558 b 619 424 738 500 700 424 b 479 506 565 424 521 465 b 325 578 425 558 385 578 b 149 414 204 578 160 472 l 158 414 b 292 549 174 472 211 549 b 432 467 346 549 390 507 b 582 394 483 417 526 394 z m 554 200 b 736 364 679 200 725 306 l 726 364 b 592 229 711 306 672 229 b 451 311 538 229 493 271 b 299 383 399 364 358 383 b 121 219 178 383 132 278 l 131 219 b 265 354 146 278 185 354 b 404 272 319 354 363 313 b 554 200 456 222 499 200 z "},"~":{"ha":872,"x_min":0,"x_max":0,"o":"m 569 311 b 751 475 694 311 740 417 l 742 475 b 607 340 726 417 688 340 b 468 422 553 340 510 382 b 314 494 414 475 374 494 b 136 331 193 494 147 389 l 146 331 b 281 465 161 389 200 465 b 421 383 335 465 379 424 b 569 311 472 333 514 311 z "},"¬":{"ha":872,"x_min":0,"x_max":0,"o":"m 682 138 l 704 138 l 743 418 l 149 418 l 146 396 l 718 396 z "},"^":{"ha":442,"x_min":0,"x_max":0,"o":"m 76 597 l 132 597 l 294 864 l 379 597 l 435 597 l 332 928 l 274 928 z "},"∅":{"ha":844,"x_min":0,"x_max":0,"o":"m 746 642 l 825 711 l 804 735 l 725 665 b 481 765 665 726 579 765 b 47 383 269 765 76 594 b 110 126 33 285 58 194 l 31 57 l 51 32 l 131 101 b 374 3 189 40 274 3 b 808 383 585 3 778 172 b 746 642 822 482 797 574 z m 81 383 b 476 731 107 578 283 731 b 697 640 568 731 644 696 l 138 151 b 81 383 90 211 67 292 z m 379 36 b 160 126 289 36 211 71 l 717 617 b 775 383 764 557 788 474 b 379 36 747 192 571 36 z "},"∞":{"ha":1074,"x_min":0,"x_max":0,"o":"m 872 614 b 586 457 758 614 679 558 b 310 614 519 563 444 614 b 29 389 164 614 50 532 b 214 156 8 242 97 156 b 497 313 328 156 404 211 b 775 156 567 207 640 156 b 1056 381 922 156 1036 238 b 872 614 1076 528 989 614 z m 832 182 b 597 439 743 182 676 288 b 869 590 675 529 761 590 b 1035 382 974 590 1053 514 b 832 182 1018 272 931 182 z m 217 179 b 51 388 113 179 33 256 b 253 588 67 497 154 588 b 486 331 340 588 408 482 b 217 179 408 240 324 179 z "},"∫":{"ha":910,"x_min":0,"x_max":0,"o":"m 174 -217 b 506 64 321 -214 463 -114 l 711 904 b 744 969 718 933 731 963 l 746 975 b 414 694 597 971 457 872 l 207 -147 b 175 -211 201 -176 189 -204 z m 828 713 b 954 821 890 713 944 749 b 807 969 965 903 894 953 l 806 965 b 814 935 813 963 817 951 b 783 875 813 919 807 903 b 749 806 769 857 754 838 b 828 713 743 760 758 713 z m 111 -212 l 114 -208 b 104 -176 107 -204 101 -194 b 136 -117 107 -161 111 -144 b 171 -47 151 -99 167 -79 b 92 46 178 -3 161 46 b -35 -64 31 46 -24 8 b 111 -212 -46 -144 24 -196 z "},"∏":{"ha":1044,"x_min":0,"x_max":0,"o":"m -68 -208 l 324 -208 l 488 964 l 731 964 l 567 -208 l 958 -208 l 958 -203 b 832 -75 869 -199 818 -174 l 978 964 l 1122 964 l 1124 972 l 97 972 l 96 964 l 239 964 l 93 -75 b -68 -203 79 -174 22 -199 z "},"∑":{"ha":799,"x_min":0,"x_max":0,"o":"m -64 -208 l 283 -208 l 549 382 l 449 972 l 101 972 l 101 967 b 233 839 186 961 218 940 l 303 382 l 104 -75 b -64 -203 61 -176 24 -197 z m 793 740 l 799 740 l 831 972 l 565 972 l 564 964 b 793 740 744 956 779 903 z m 422 -208 l 707 -208 l 739 24 l 733 24 b 422 -201 672 -144 621 -194 z "},"√":{"ha":906,"x_min":0,"x_max":0,"o":"m 564 342 l 818 967 l 997 967 l 997 972 l 811 972 l 558 343 z m 343 -183 l 349 -183 l 492 163 l 394 556 l 11 556 l 11 550 b 185 422 100 546 157 519 z "},"∂":{"ha":857,"x_min":0,"x_max":0,"o":"m 458 -4 b 843 406 663 22 808 157 b 561 1042 892 754 814 1042 l 358 1042 l 358 1035 b 589 356 589 1026 633 676 b 460 1 567 194 543 44 z m 350 -7 l 353 -1 b 283 428 275 47 257 242 b 486 696 307 594 371 696 b 539 692 504 696 524 694 l 538 697 b 478 703 522 701 500 703 b 24 347 253 703 51 543 b 350 -7 -3 158 140 4 z "},"%":{"ha":799,"x_min":0,"x_max":0,"o":"m 257 619 b 463 800 357 619 449 700 b 307 982 476 901 407 982 b 101 800 207 982 115 901 b 257 619 88 700 157 619 z m -25 0 l 11 0 l 864 972 l 828 972 z m 269 629 b 197 822 218 629 182 717 b 293 972 208 906 249 972 b 368 782 344 972 383 888 b 269 629 356 697 318 629 z m 544 -10 b 750 171 644 -10 736 71 b 596 353 764 272 696 353 b 389 171 496 353 403 272 b 544 -10 375 71 444 -10 z m 557 0 b 485 193 506 0 471 88 b 582 343 497 276 538 343 b 656 153 633 343 671 258 b 557 0 644 68 606 0 z "},"‰":{"ha":1214,"x_min":0,"x_max":0,"o":"m 257 619 b 463 800 357 619 449 700 b 307 982 476 901 407 982 b 101 800 207 982 115 901 b 257 619 88 700 157 619 z m -25 0 l 11 0 l 864 972 l 828 972 z m 269 629 b 197 822 218 629 182 717 b 293 972 208 906 249 972 b 368 782 344 972 383 888 b 269 629 356 697 318 629 z m 544 -10 b 750 171 644 -10 736 71 b 596 353 764 272 696 353 b 389 171 496 353 403 272 b 544 -10 375 71 444 -10 z m 961 -10 b 1167 171 1061 -10 1153 71 b 1013 353 1181 272 1113 353 b 806 171 913 353 819 272 b 961 -10 792 71 861 -10 z m 557 0 b 485 193 506 0 471 88 b 582 343 497 276 538 343 b 656 153 633 343 671 258 b 557 0 644 68 606 0 z m 974 0 b 901 193 922 0 888 88 b 999 343 914 276 954 343 b 1072 153 1050 343 1088 258 b 974 0 1061 68 1022 0 z "},"↑":{"ha":551,"x_min":0,"x_max":0,"o":"m 182 0 l 272 0 l 406 953 l 574 757 l 589 769 l 371 1021 l 83 769 l 93 757 l 315 953 z "},"↗":{"ha":800,"x_min":0,"x_max":0,"o":"m 68 218 l 836 893 l 797 617 l 814 617 l 864 972 l 507 972 l 506 956 l 782 956 l 15 283 z "},"→":{"ha":901,"x_min":0,"x_max":0,"o":"m 608 213 l 896 465 l 681 718 l 665 706 l 832 510 l 46 510 l 33 419 l 819 419 l 599 225 z "},"↘":{"ha":800,"x_min":0,"x_max":0,"o":"m 371 0 l 728 0 l 778 356 l 761 356 l 722 79 l 143 754 l 72 689 l 650 17 l 374 17 z "},"↓":{"ha":551,"x_min":0,"x_max":0,"o":"m 221 -49 l 508 203 l 499 215 l 275 19 l 408 972 l 318 972 l 185 19 l 18 215 l 3 203 z "},"↙":{"ha":800,"x_min":0,"x_max":0,"o":"m -25 0 l 332 0 l 335 17 l 58 17 l 825 689 l 771 754 l 3 79 l 42 356 l 25 356 z "},"←":{"ha":901,"x_min":0,"x_max":0,"o":"m 256 213 l 271 225 l 101 419 l 889 419 l 901 510 l 114 510 l 338 706 l 328 718 l 40 465 z "},"↖":{"ha":800,"x_min":0,"x_max":0,"o":"m 696 218 l 768 283 l 190 956 l 467 956 l 468 972 l 111 972 l 61 617 l 78 617 l 117 893 z "},"↔":{"ha":1113,"x_min":0,"x_max":0,"o":"m 258 232 l 274 244 l 104 440 l 1033 440 l 813 244 l 822 232 l 1110 485 l 893 738 l 879 725 l 1047 531 l 118 531 l 340 725 l 329 738 l 43 485 z "},"↕":{"ha":551,"x_min":0,"x_max":0,"o":"m 240 82 l 528 335 l 517 347 l 293 153 l 401 925 l 571 729 l 585 742 l 367 993 l 79 742 l 90 729 l 311 925 l 203 150 l 38 346 l 22 333 z "},"◊":{"ha":622,"x_min":0,"x_max":0,"o":"m 246 0 l 279 0 l 588 451 l 406 901 l 372 901 l 67 451 z m 267 28 l 143 451 l 385 874 l 510 451 z "},"@":{"ha":1163,"x_min":0,"x_max":0,"o":"m 511 -158 b 793 -87 607 -158 703 -133 l 785 -68 b 514 -136 699 -112 606 -136 b 54 403 217 -136 11 104 b 665 942 96 703 367 942 b 1126 403 964 942 1168 703 b 894 147 1110 289 1039 147 b 821 243 851 147 810 164 l 860 511 b 664 693 876 631 796 685 l 661 683 b 675 606 681 671 681 646 l 622 232 b 704 136 614 169 643 136 l 893 136 b 1149 403 1064 136 1132 286 b 668 964 1192 714 978 964 b 32 403 358 964 75 714 b 511 -158 -12 93 203 -158 z m 451 483 b 546 557 508 483 540 517 b 540 607 549 579 547 592 b 533 646 532 622 532 632 b 563 679 535 654 535 669 l 561 689 b 382 557 449 671 390 611 b 451 483 376 511 406 483 z m 465 132 b 582 154 515 132 551 140 l 581 160 b 544 150 567 154 554 150 b 493 313 506 150 479 213 b 607 451 507 403 558 451 l 614 451 l 614 456 l 575 456 b 285 286 406 456 297 372 b 465 132 271 185 342 132 z "},"&":{"ha":1011,"x_min":0,"x_max":0,"o":"m 564 624 b 740 833 689 700 729 757 b 561 978 753 924 685 978 b 506 975 543 978 525 976 l 507 968 b 593 753 560 949 606 844 b 557 628 586 701 575 661 z m 656 0 l 982 0 l 982 6 b 522 553 660 383 750 282 b 358 869 358 747 349 799 b 388 942 363 896 371 925 l 385 947 b 151 699 265 906 168 818 b 292 444 140 625 210 540 b 656 0 450 256 450 256 z m 831 333 b 863 385 842 351 851 368 b 1056 522 919 485 975 514 l 1056 528 l 700 528 l 700 522 b 843 415 772 517 856 507 b 822 338 840 396 835 368 z m 290 -19 b 517 10 385 -19 457 -8 l 515 19 b 456 13 496 15 472 13 b 207 344 340 13 174 111 b 233 440 213 382 222 418 l 225 449 b 1 186 71 356 14 278 b 290 -19 -15 75 88 -19 z "},"¶":{"ha":529,"x_min":0,"x_max":0,"o":"m 160 -199 l 193 -199 l 357 972 b 74 703 200 974 92 832 b 249 435 57 582 114 451 z m 396 -199 l 429 -199 l 593 972 l 560 972 z "},"§":{"ha":760,"x_min":0,"x_max":0,"o":"m 685 683 l 690 683 l 710 949 l 704 949 b 622 900 692 919 667 900 b 542 915 607 900 590 901 b 490 928 528 919 510 924 l 488 922 b 685 683 571 894 646 810 z m 421 -124 b 636 64 526 -104 621 -44 b 563 256 646 131 629 199 b 714 421 647 286 703 339 b 408 728 731 531 664 599 b 283 860 286 790 278 824 b 365 926 288 894 325 918 l 364 931 b 135 742 253 917 151 857 b 210 550 125 676 142 607 b 57 385 125 521 68 467 b 364 78 42 276 107 208 b 489 -53 486 17 493 -18 b 421 -117 483 -85 453 -106 z m 556 261 b 496 299 539 274 518 286 b 183 514 253 425 178 471 b 215 546 185 522 192 535 b 275 507 233 532 253 519 b 589 293 518 381 594 336 b 556 261 588 283 579 271 z m 61 -143 l 67 -143 b 149 -93 79 -114 104 -93 b 229 -110 164 -93 181 -96 l 286 -121 l 288 -112 b 86 122 203 -86 126 -6 l 81 122 z "},"©":{"ha":1146,"x_min":0,"x_max":0,"o":"m 510 -106 b 1138 444 815 -106 1094 139 b 664 994 1181 749 968 994 b 38 444 360 994 81 749 b 510 -106 -6 139 204 -106 z m 515 -72 b 71 444 226 -72 31 156 b 660 961 111 731 371 961 b 1104 444 949 961 1144 731 b 515 -72 1064 156 804 -72 z m 581 163 b 781 240 669 163 735 197 l 775 243 b 606 181 722 200 658 181 b 504 503 490 181 482 351 b 597 706 518 607 540 681 l 597 711 b 303 442 456 692 321 578 b 581 163 281 283 410 163 z m 815 497 l 819 497 l 835 710 l 828 710 b 788 681 825 696 813 681 b 744 692 776 681 761 685 b 689 707 724 701 707 706 l 688 703 b 815 497 754 676 796 596 z "},"®":{"ha":601,"x_min":0,"x_max":0,"o":"m 319 472 b 636 750 474 472 614 596 b 397 1028 657 903 551 1028 b 81 750 243 1028 101 903 b 319 472 58 596 165 472 z m 324 504 b 111 750 188 504 92 614 b 393 996 131 886 257 996 b 603 750 525 996 622 886 b 324 504 583 613 456 504 z m 179 594 l 350 594 l 350 599 b 318 642 324 603 314 614 l 335 760 l 349 760 b 382 701 369 760 378 725 b 489 594 392 618 417 594 l 508 594 l 508 599 b 460 696 489 599 479 608 b 399 763 453 729 438 751 b 489 838 447 769 483 797 b 386 913 494 883 456 913 l 224 913 l 222 906 b 264 865 251 904 269 896 l 233 642 b 179 599 229 614 214 603 z m 335 765 l 354 906 l 376 906 b 403 817 397 906 411 878 b 350 765 397 783 383 765 z "},"™":{"ha":2189,"x_min":0,"x_max":0,"o":"m 699 1271 l 417 1271 l 417 1268 l 699 1268 z m 679 1132 l 397 1132 l 397 1129 l 679 1129 z m 660 993 l 378 993 l 378 990 l 660 990 z m 339 972 l 144 972 l 75 713 l 81 713 b 339 967 150 874 218 951 z m 518 133 l 522 157 l 543 157 l 543 160 l 522 160 l 542 296 l 563 296 l 563 299 l 542 299 l 561 435 l 582 435 l 582 438 l 561 438 l 581 574 l 601 574 l 601 576 l 581 576 l 600 713 l 621 713 l 621 715 l 600 715 l 619 851 l 640 851 l 640 854 l 619 854 l 636 972 l 389 972 l 372 854 l 358 854 l 358 851 l 372 851 l 353 715 l 339 715 l 339 713 l 353 713 l 333 576 l 319 576 l 319 574 l 333 574 l 314 438 l 300 438 l 300 435 l 314 435 l 294 299 l 281 299 l 281 296 l 294 296 l 275 160 l 261 160 l 261 157 l 275 157 l 271 133 b 108 6 257 35 200 10 l 108 0 l 644 0 l 644 6 b 518 133 556 10 504 35 z m 878 713 l 881 972 l 685 972 l 685 967 b 872 713 801 951 847 874 z m 965 972 l 965 967 b 1136 839 1054 963 1114 938 l 1329 -28 l 1335 -28 l 1490 293 l 1347 972 z m 2011 133 l 1993 839 b 1994 872 1992 851 1993 864 b 2133 967 2004 944 2054 963 l 2131 972 l 1746 972 l 1768 133 b 1767 101 1769 121 1768 110 b 1629 6 1757 28 1707 10 l 1629 0 l 2158 0 l 2158 6 b 2011 133 2068 10 2013 35 z m 943 165 b 967 264 947 199 956 229 l 958 264 b 685 6 900 85 819 14 l 685 0 l 1072 0 l 1072 6 b 943 165 957 13 926 46 z m 222 -121 l 504 -121 l 504 -118 l 222 -118 z m 203 -260 l 485 -260 l 485 -257 l 203 -257 z "},"°":{"ha":407,"x_min":0,"x_max":0,"o":"m 239 592 b 444 772 339 592 431 672 b 289 954 458 874 389 954 b 83 772 189 954 97 874 b 239 592 69 672 139 592 z m 243 626 b 115 772 161 626 104 692 b 285 919 126 854 203 919 b 411 772 365 919 422 854 b 243 626 400 692 324 626 z "},"|":{"ha":163,"x_min":0,"x_max":0,"o":"m -11 -199 l 22 -199 l 186 972 l 153 972 z "},"¦":{"ha":163,"x_min":0,"x_max":0,"o":"m 89 514 l 122 514 l 186 972 l 153 972 z m -11 -199 l 22 -199 l 86 260 l 53 260 z "},"†":{"ha":490,"x_min":0,"x_max":0,"o":"m 235 410 l 271 410 l 325 796 l 517 796 l 522 829 l 331 829 l 357 1021 l 321 1021 l 294 829 l 106 829 l 100 796 l 289 796 z "},"‡":{"ha":490,"x_min":0,"x_max":0,"o":"m 235 410 l 271 410 l 297 593 l 489 593 l 493 626 l 301 626 l 328 810 l 519 810 l 524 843 l 332 843 l 357 1021 l 321 1021 l 296 843 l 107 843 l 103 810 l 292 810 l 265 626 l 76 626 l 72 593 l 261 593 z "},"̈":{"ha":0,"x_min":0,"x_max":0,"o":"m -206 876 b -126 947 -167 876 -132 907 b -186 1017 -121 986 -147 1017 b -267 947 -226 1017 -261 986 b -206 876 -272 907 -246 876 z m 6 876 b 85 947 44 876 79 907 b 25 1017 90 986 64 1017 b -56 947 -15 1017 -50 986 b 6 876 -61 907 -35 876 z "},"̇":{"ha":0,"x_min":0,"x_max":0,"o":"m -31 864 b 88 967 26 864 79 910 b -1 1071 94 1024 56 1071 b -121 967 -61 1071 -114 1024 b -31 864 -129 910 -90 864 z "},"̀":{"ha":0,"x_min":0,"x_max":0,"o":"m 56 847 l 71 847 l -25 1039 l -107 1039 z "},"́":{"ha":0,"x_min":0,"x_max":0,"o":"m -133 847 l -118 847 l 97 1039 l 15 1039 z "},"̋":{"ha":0,"x_min":0,"x_max":0,"o":"m -314 847 l -299 847 l -83 1039 l -165 1039 z m -133 847 l -118 847 l 97 1039 l 15 1039 z "},"̂":{"ha":0,"x_min":0,"x_max":0,"o":"m -311 847 l -296 847 l -99 1003 l 56 847 l 71 847 l -53 1039 l -135 1039 z "},"̌":{"ha":0,"x_min":0,"x_max":0,"o":"m -161 847 l -79 847 l 97 1039 l 82 1039 l -115 883 l -269 1039 l -285 1039 z "},"̆":{"ha":0,"x_min":0,"x_max":0,"o":"m -79 876 b 93 1013 26 876 83 939 l 89 1013 b -71 943 83 972 32 943 b -211 1013 -174 943 -217 972 l -215 1013 b -79 876 -225 939 -185 876 z "},"̊":{"ha":0,"x_min":0,"x_max":0,"o":"m -58 868 b 89 975 14 868 79 915 b -29 1081 96 1033 43 1081 b -178 975 -104 1081 -171 1033 b -58 868 -187 915 -133 868 z m -50 874 b -103 994 -97 874 -111 929 b -39 1075 -94 1046 -69 1075 b 13 954 8 1075 22 1019 b -50 874 6 903 -19 874 z "},"̃":{"ha":0,"x_min":0,"x_max":0,"o":"m -51 847 b 89 983 36 847 79 910 l 85 983 b -3 899 78 935 40 899 b -97 946 -44 899 -68 919 b -217 997 -129 974 -165 997 b -358 861 -304 997 -349 935 l -354 861 b -265 946 -347 910 -308 946 b -171 899 -224 946 -201 925 b -51 847 -140 871 -103 847 z "},"̄":{"ha":0,"x_min":0,"x_max":0,"o":"m -235 933 l 82 933 l 86 957 l -231 957 z "},"̒":{"ha":0,"x_min":0,"x_max":0,"o":"m -10 838 b 79 913 35 838 74 872 b 50 982 83 943 74 961 b 28 1026 33 997 25 1010 b 74 1090 31 1049 43 1064 l 72 1094 b -76 919 -11 1053 -67 988 b -10 838 -83 872 -53 838 z "},"̦":{"ha":0,"x_min":0,"x_max":0,"o":"m -217 -315 b -68 -140 -135 -274 -78 -208 b -135 -58 -62 -93 -92 -58 b -225 -133 -179 -58 -219 -93 b -196 -203 -229 -164 -219 -182 b -172 -247 -178 -218 -169 -231 b -219 -311 -175 -269 -187 -285 z "},"̧":{"ha":0,"x_min":0,"x_max":0,"o":"m -267 -72 l -262 -72 b -193 -53 -243 -58 -218 -53 l -160 -4 b -217 -3 -178 -4 -200 -4 z m -229 -244 b -68 -142 -140 -244 -78 -206 b -171 -50 -60 -81 -103 -50 l -174 -54 b -144 -122 -140 -60 -139 -85 b -264 -233 -154 -194 -199 -233 b -347 -207 -289 -233 -315 -228 l -350 -211 b -229 -244 -326 -226 -290 -244 z "},"̨":{"ha":0,"x_min":0,"x_max":0,"o":"m -176 -251 b -68 -136 -115 -251 -78 -204 l -72 -135 b -146 -174 -82 -168 -108 -174 b -233 -69 -218 -174 -243 -135 b -194 18 -231 -44 -221 -17 l -207 21 b -258 -106 -226 -6 -250 -44 b -176 -251 -271 -194 -240 -251 z "},"¨":{"ha":351,"x_min":0,"x_max":0,"o":"m 146 876 b 225 947 185 876 219 907 b 165 1017 231 986 204 1017 b 85 947 125 1017 90 986 b 146 876 79 907 106 876 z m 357 876 b 436 947 396 876 431 907 b 376 1017 442 986 415 1017 b 296 947 336 1017 301 986 b 357 876 290 907 317 876 z "},"˙":{"ha":208,"x_min":0,"x_max":0,"o":"m 178 864 b 296 967 235 864 288 910 b 207 1071 303 1024 264 1071 b 88 967 147 1071 94 1024 b 178 864 79 910 118 864 z "},"`":{"ha":204,"x_min":0,"x_max":0,"o":"m 260 847 l 275 847 l 179 1039 l 97 1039 z "},"´":{"ha":204,"x_min":0,"x_max":0,"o":"m 71 847 l 86 847 l 301 1039 l 219 1039 z "},"˝":{"ha":385,"x_min":0,"x_max":0,"o":"m 71 847 l 86 847 l 301 1039 l 219 1039 z m 251 847 l 267 847 l 482 1039 l 400 1039 z "},"ˆ":{"ha":382,"x_min":0,"x_max":0,"o":"m 71 847 l 86 847 l 283 1003 l 438 847 l 453 847 l 329 1039 l 247 1039 z "},"ˇ":{"ha":382,"x_min":0,"x_max":0,"o":"m 221 847 l 303 847 l 479 1039 l 464 1039 l 267 883 l 113 1039 l 97 1039 z "},"˘":{"ha":308,"x_min":0,"x_max":0,"o":"m 229 876 b 401 1013 335 876 392 939 l 397 1013 b 238 943 392 972 340 943 b 97 1013 135 943 92 972 l 93 1013 b 229 876 83 939 124 876 z "},"˚":{"ha":267,"x_min":0,"x_max":0,"o":"m 208 868 b 356 975 281 868 346 915 b 238 1081 363 1033 310 1081 b 89 975 163 1081 96 1033 b 208 868 79 915 133 868 z m 217 874 b 164 994 169 874 156 929 b 228 1075 172 1046 197 1075 b 279 954 275 1075 289 1019 b 217 874 272 903 247 874 z "},"˜":{"ha":431,"x_min":0,"x_max":0,"o":"m 379 847 b 519 983 467 847 510 910 l 515 983 b 428 899 508 935 471 899 b 333 946 386 899 363 919 b 214 997 301 974 265 997 b 72 861 126 997 82 935 l 76 861 b 165 946 83 910 122 946 b 260 899 207 946 229 925 b 379 847 290 871 328 847 z "},"¯":{"ha":317,"x_min":0,"x_max":0,"o":"m 82 933 l 399 933 l 403 957 l 86 957 z "},"¸":{"ha":272,"x_min":0,"x_max":0,"o":"m 6 -72 l 10 -72 b 79 -53 29 -58 54 -53 l 113 -4 b 56 -3 94 -4 72 -4 z m 43 -244 b 204 -142 132 -244 194 -206 b 101 -50 213 -81 169 -50 l 99 -54 b 128 -122 132 -60 133 -85 b 8 -233 118 -194 74 -233 b -75 -207 -17 -233 -43 -228 l -78 -211 b 43 -244 -54 -226 -18 -244 z "},"˛":{"ha":194,"x_min":0,"x_max":0,"o":"m 18 -251 b 126 -136 79 -251 117 -204 l 122 -135 b 49 -174 113 -168 86 -174 b -39 -69 -24 -174 -49 -135 b 0 18 -36 -44 -26 -17 l -12 21 b -64 -106 -32 -6 -56 -44 b 18 -251 -76 -194 -46 -251 z "}}}
